<svg id="Layer_1" data-name="Layer 1" xmlns="http://www.w3.org/2000/svg" viewBox="0 0 416.92 495"><path d="M292.83,146H123.49V103.54a13.75,13.75,0,0,1,13.73-13.73H279.1a13.75,13.75,0,0,1,13.73,13.73ZM132.4,137.05H283.92V103.54a4.82,4.82,0,0,0-4.82-4.81H137.22a4.82,4.82,0,0,0-4.82,4.81Z" fill="#9dbcd8"/><path d="M306.53,208.42H110.16a15.94,15.94,0,0,1-15.94-14.51l-3.39-35.84a16,16,0,0,1,15.94-17.52H309.64A16,16,0,0,1,325.59,158l-3.11,35.84A15.93,15.93,0,0,1,306.53,208.42ZM106.77,149.47a7.09,7.09,0,0,0-7.06,7.76l3.38,35.84a7.07,7.07,0,0,0,7.07,6.43H306.53A7.05,7.05,0,0,0,313.6,193l3.11-35.84a7.1,7.1,0,0,0-7.07-7.71Z" fill="#9dbcd8"/><path d="M261.41,455.69H159.15a18,18,0,0,1-17.87-15.91L113.13,199.44h190l-23.79,240A17.93,17.93,0,0,1,261.41,455.69ZM123.15,208.35l27,230.4a9.09,9.09,0,0,0,9,8H261.41a9.06,9.06,0,0,0,9-8.18l22.81-230.24Z" fill="#9dbcd8"/><path d="M249.24,96.27a5,5,0,0,1-5-5l-.07-40.93A10.82,10.82,0,0,1,255,39.5h29.47a5,5,0,0,1,0,10H255a.81.81,0,0,0-.58.24.78.78,0,0,0-.24.59l.07,40.93a5,5,0,0,1-5,5Z" fill="#9dbcd8"/></svg>
