<svg id="Layer_1" data-name="Layer 1" xmlns="http://www.w3.org/2000/svg" viewBox="0 0 1117.98 212"><path d="M81.8,24.6c43.2,0,74.8,32,74.8,73,0,42-31.6,74.8-74.8,74.8S7,139.6,7,97.6C7,56.6,38.6,24.6,81.8,24.6Zm0,115.8c21.4,0,38.6-18.4,38.6-42.8,0-23.4-17.2-41-38.6-41s-38.6,17.6-38.6,41C43.2,122,60.4,140.4,81.8,140.4Z" fill="#004b8b"/><path d="M245.6,24.6c35.4,0,53.6,20.2,53.6,20.2L283,71.2s-16-14.6-35.8-14.6c-27.4,0-40.4,20.2-40.4,40.8,0,21.2,14,43,40.4,43,21.6,0,38-17.6,38-17.6l18,25.6s-20.2,24-57.6,24c-44.8,0-75-31.8-75-74.2C170.6,56.6,202.6,24.6,245.6,24.6Z" fill="#004b8b"/><path d="M324.4,27H414V57h-54.6V83H403v30h-43.6v27h57.4v30H324.4Z" fill="#004b8b"/><path d="M513.59,140H469l-8.61,30h-36L473,27h36.8l48.6,143h-36Zm-22.4-80.4s-3.2,15.6-5.8,24.6l-8.2,27.8h28.2l-8-27.8c-2.6-9-5.8-24.6-5.8-24.6Z" fill="#004b8b"/><path d="M574.39,27h35.4l39.6,66.8c5.6,9.4,12,24.4,12,24.4h.4s-1.6-15.4-1.6-24.4V27h35V170H660l-39.8-66.6c-5.6-9.4-12-24.4-12-24.4h-.4s1.6,15.4,1.6,24.4V170h-35Z" fill="#004b8b"/><path d="M742.59,94.4V94s-16.8-7.6-16.8-30.8c0-27.8,23.4-38.6,47.2-38.6a102.8,102.8,0,0,1,20.6,2.4l-8,27.4a40.3,40.3,0,0,0-7.8-.8c-9,0-16.6,4.6-16.6,14.8,0,7.2,5,13.8,14.6,13.8h17.4V64.6h34.4V82.2h17.8v30h-17.8V126c0,25.6-19.6,46.4-54.6,46.4-32.6,0-53.2-19.4-53.2-43.8A37.38,37.38,0,0,1,742.59,94.4ZM773,140.6c13.2,0,20.2-7.2,20.2-16.6V112.2h-19.6c-9.2,0-18,3.4-18,14.2C755.59,134.2,763.19,140.6,773,140.6Z" fill="#004b8b"/><path d="M867.59,27h35v90.4c0,15,9.8,23,24.8,23s24.8-8,24.8-23V27h35v90.4c0,32.2-23.6,55-59.6,55-36.4,0-60-22.8-60-55Z" fill="#004b8b"/><path d="M1026.59,125.4s16.2,14.8,34.2,14.8c7.2,0,15-2.8,15-11.4,0-17-64.4-16.4-64.4-60.4,0-26.4,22.2-43.8,50.6-43.8,30.8,0,46,16.2,46,16.2l-14.8,28.6s-14.39-12.6-31.6-12.6c-7.19,0-15.19,3.2-15.19,11.2,0,18,64.4,14.8,64.4,60,0,23.8-18.21,44.4-50.4,44.4-33.6,0-52.2-20.4-52.2-20.4Z" fill="#004b8b"/></svg>
