<svg id="Layer_1" data-name="Layer 1" xmlns="http://www.w3.org/2000/svg" viewBox="0 0 666 373"><text transform="translate(15.75 162.34)" font-size="200" font-family="Gilroy-Light, Gilroy" font-weight="300">O<tspan x="163.2" y="0" letter-spacing="0em">c</tspan><tspan x="274.4" y="0" letter-spacing="0em">ean</tspan><tspan x="0" y="175" xml:space="preserve" letter-spacing="-0.09em">				</tspan><tspan x="144" y="175" letter-spacing="0em">U</tspan><tspan x="276.4" y="175">s</tspan></text><path d="M393,207.49c24.2,0,24.2,11.59,48.39,11.59s24.2-11.59,48.4-11.59,24.2,11.59,48.39,11.59,24.2-11.59,48.4-11.59,24.2,11.59,48.4,11.59" fill="none" stroke="#004b8b" stroke-linecap="round" stroke-miterlimit="10" stroke-width="11.59"/><path d="M393,237c24.2,0,24.2,11.59,48.39,11.59S465.59,237,489.79,237s24.2,11.59,48.39,11.59S562.38,237,586.58,237s24.2,11.59,48.4,11.59" fill="none" stroke="#004b8b" stroke-linecap="round" stroke-miterlimit="10" stroke-width="11.59"/><path d="M393,266.57c24.2,0,24.2,11.59,48.39,11.59s24.2-11.59,48.4-11.59,24.2,11.59,48.39,11.59,24.2-11.59,48.4-11.59,24.2,11.59,48.4,11.59" fill="none" stroke="#004b8b" stroke-linecap="round" stroke-miterlimit="10" stroke-width="11.59"/><path d="M393,296.12c24.2,0,24.2,11.58,48.39,11.58s24.2-11.58,48.4-11.58S514,307.7,538.18,307.7s24.2-11.58,48.4-11.58,24.2,11.58,48.4,11.58" fill="none" stroke="#004b8b" stroke-linecap="round" stroke-miterlimit="10" stroke-width="11.59"/><path d="M393,325.66c24.2,0,24.2,11.59,48.39,11.59s24.2-11.59,48.4-11.59,24.2,11.59,48.39,11.59,24.2-11.59,48.4-11.59,24.2,11.59,48.4,11.59" fill="none" stroke="#004b8b" stroke-linecap="round" stroke-miterlimit="10" stroke-width="11.59"/><path d="M97.92,333.25a15,15,0,0,1-1.9-.12,8.76,8.76,0,0,1-4.49-1.85c-2.12-1.71-2.58-4.12-2.76-6.47-.08-1-.13-2-.22-2.94v-.11a49.39,49.39,0,0,0-.34-5,39.73,39.73,0,0,0-1.37-6.41l-.52.13a31,31,0,0,1-4.08.7c.22.76.36,1.41.47,1.88a28.91,28.91,0,0,1,.48,7.92c-.06,1-.18,2.33-.18,2.33v.09s-.27,1.89-.42,3.8c-.34,4.43-.17,5.24.13,6a7.35,7.35,0,0,0,3.13,3.34,59.48,59.48,0,0,0,12.07-2.7h0c.66-.21,1.31-.45,2-.7A13,13,0,0,1,97.92,333.25Zm0,0a15,15,0,0,1-1.9-.12,8.76,8.76,0,0,1-4.49-1.85c-2.12-1.71-2.58-4.12-2.76-6.47-.08-1-.13-2-.22-2.94v-.11a49.39,49.39,0,0,0-.34-5,39.73,39.73,0,0,0-1.37-6.41l-.52.13a31,31,0,0,1-4.08.7c.22.76.36,1.41.47,1.88a28.91,28.91,0,0,1,.48,7.92c-.06,1-.18,2.33-.18,2.33v.09s-.27,1.89-.42,3.8c-.34,4.43-.17,5.24.13,6a7.35,7.35,0,0,0,3.13,3.34,59.48,59.48,0,0,0,12.07-2.7h0c.66-.21,1.31-.45,2-.7A13,13,0,0,1,97.92,333.25ZM79.21,198.79a8,8,0,0,0-.2,1.09h0a9.6,9.6,0,0,1,.2-1.07l.13-.46C79.29,198.51,79.25,198.66,79.21,198.79ZM78,223.32l-1.05.77-1.37,1a7.69,7.69,0,0,0-1,.77c-2.24,2.2-2.86,5.21-3.27,7.2a21.21,21.21,0,0,0-.41,3,17.72,17.72,0,0,1-.68,3.89c-.66,2.37-1.23,3.19-1.75,3.72a7.33,7.33,0,0,1-4.58,1.9h-.12c-2.3.29-5.63,1.39-12.14,3.56l-.1.07c6.59-2.2,9.94-3.32,12.26-3.6h.11a7.46,7.46,0,0,0,4.6-1.91c.53-.55,1.09-1.38,1.75-3.72a17,17,0,0,0,.67-3.88,21.23,21.23,0,0,1,.42-3c.44-2.12,1-5,3.27-7.22a10.93,10.93,0,0,1,1-.76l.07-.05,1.29-.95,1-.76A.08.08,0,0,0,78,223.32Zm59.2,73.54-.24-.22c-1.54-1.37-3.14-2.79-4.8-4.05l-.08,0a44.1,44.1,0,0,0-13.26-7.2,31.74,31.74,0,0,1-13.58-8.28c-3.83-3.84-7.21-6-11-7a15.38,15.38,0,0,0-2.43-.39c-.37,0-.75-.08-1.14-.14l-.18.06a4.06,4.06,0,0,1-.59.19c-3.17.77-4.27,2.15-4.19,5.29q0,1.2-.06,2.4l7,8.51.74.9,10.95,13.33a37.08,37.08,0,0,1-6.11,4.86c-.3.19-.61.39-.92.57-1.27.79-2.63,1.54-4.06,2.27l-.83.4c0,.1.09.19.13.29A73.82,73.82,0,0,0,97.16,317c1.66,2.7,3,3.08,6.45,1.78a79.1,79.1,0,0,0,14.94-7.33,27.85,27.85,0,0,1,11.55-4.19,15.27,15.27,0,0,0,5.88-1.87c2.17-1.32,3.13-2.85,3-4.81A5.28,5.28,0,0,0,137.21,296.86ZM96,333.09a8.69,8.69,0,0,1-4.49-1.85c-2.13-1.7-2.59-4.11-2.77-6.46a11.4,11.4,0,0,1,0-2.74v-.2c-.28-1.59-.37-3.4-.59-5.1a39.49,39.49,0,0,0-1.37-6.39h0l-.52.13a31,31,0,0,1-4.08.7c.22.76.36,1.41.47,1.88a28.91,28.91,0,0,1,.48,7.92c-.06,1-.18,2.33-.18,2.33v.09s-.27,1.89-.42,3.8c-.34,4.43-.17,5.24.13,6a7.35,7.35,0,0,0,3.13,3.34,59.48,59.48,0,0,0,12.07-2.7h0c.66-.21,1.31-.45,2-.7A.42.42,0,0,0,100,333,13.37,13.37,0,0,1,96,333.09Zm-4-24.26-.12-.27h0l.12.27a74.09,74.09,0,0,0,4.61,8.43A74.79,74.79,0,0,1,92.07,308.83Zm-2.38-39.51c-3.44.82-4.69,2.38-4.6,5.81,0,.53,0,1.06,0,1.59h0c0-.53,0-1.06,0-1.6-.09-3.36,1.2-5,4.59-5.8a4,4,0,0,0,.49-.17Zm-5.38-38.23q-3.63-4.32-5.89-7.23l-.39-.5-1,.76-1.29.95-.07.05a10.93,10.93,0,0,0-1,.76c-2.22,2.2-2.83,5.1-3.27,7.22a21.23,21.23,0,0,0-.42,3,17,17,0,0,1-.67,3.88c-.66,2.34-1.22,3.17-1.75,3.72a7.46,7.46,0,0,1-4.6,1.91h-.11c-2.32.28-5.67,1.4-12.26,3.6-.7.46-1.38.93-2,1.39A77.57,77.57,0,0,0,35.26,263h0a12.77,12.77,0,0,0,.2,6.21c.94,3,3,4.76,6.32,7.67a30.83,30.83,0,0,0,3.14,2.42,12.69,12.69,0,0,1,2.62,2.23c1.32,1.46,1.79,2.42,3.53,6l.76,1.54c4.65,9.47,5.66,10.81,7.17,12a18.59,18.59,0,0,1-3.37-10.62A23.4,23.4,0,0,1,57,282.27c-.36-.72-.75-1.49-1.18-2.31l-.06-.12c-3.37-6.47-5.41-10.38-6-11l0,0a5.3,5.3,0,0,1-1.88-3.38c-.11-1.78,1.09-3.2,1.89-4.14a12,12,0,0,1,4-3.09c2.85-1.39,6.9-2.12,11.7-2.09,1.78,0,3,.12,4.07.2a11.72,11.72,0,0,0,4.64-.26,9.62,9.62,0,0,0,4.92-2.8,9.78,9.78,0,0,0,1.47-2.54,15.91,15.91,0,0,0,1-6.15c0-.63,0-1.24.08-1.88.15-2.31.79-4.26,2-8.13v0a36.6,36.6,0,0,1,1.61-4.13Zm-7.13,84.06A16,16,0,0,0,76,311.23h0a15.21,15.21,0,0,1,1.21,3.92,16.94,16.94,0,0,1-.7,9,12.38,12.38,0,0,1-1.9,3.95c-.2.26-.41.52-.62.75a9.25,9.25,0,0,0,.63-.75,12.28,12.28,0,0,0,1.91-3.94l.26.06-.25-.09A17.2,17.2,0,0,0,77.18,315.15Zm-17-12.47a18.48,18.48,0,0,1-1.81-1.22c-1.59-1.23-2.64-2.6-7.35-12.17l-.78-1.54-.31-.63c.08.19.18.39.28.59L51,289.3c4.71,9.59,5.71,10.89,7.34,12.16a20.36,20.36,0,0,0,1.9,1.28A.13.13,0,0,1,60.23,302.68Zm19-103.89a8,8,0,0,0-.2,1.09h0a9.6,9.6,0,0,1,.2-1.07l.13-.46C79.29,198.51,79.25,198.66,79.21,198.79ZM78,223.32l-1.05.77-1.37,1a7.69,7.69,0,0,0-1,.77c-2.24,2.2-2.86,5.21-3.27,7.2a21.21,21.21,0,0,0-.41,3,17.72,17.72,0,0,1-.68,3.89c-.66,2.37-1.23,3.19-1.75,3.72a7.33,7.33,0,0,1-4.58,1.9h-.12c-2.3.29-5.63,1.39-12.14,3.56l-.1.07c6.59-2.2,9.94-3.32,12.26-3.6h.11a7.46,7.46,0,0,0,4.6-1.91c.53-.55,1.09-1.38,1.75-3.72a17,17,0,0,0,.67-3.88,21.23,21.23,0,0,1,.42-3c.44-2.12,1-5,3.27-7.22a10.93,10.93,0,0,1,1-.76l.07-.05,1.29-.95,1-.76A.08.08,0,0,0,78,223.32Zm59.2,73.54-.24-.22c-1.54-1.37-3.14-2.79-4.8-4.05l-.08,0a44.1,44.1,0,0,0-13.26-7.2,31.74,31.74,0,0,1-13.58-8.28c-3.83-3.84-7.21-6-11-7a15.38,15.38,0,0,0-2.43-.39c-.37,0-.75-.08-1.14-.14l-.18.06a4.06,4.06,0,0,1-.59.19c-3.17.77-4.27,2.15-4.19,5.29q0,1.2-.06,2.4l7,8.51.74.9,10.95,13.33a37.08,37.08,0,0,1-6.11,4.86c-.3.19-.61.39-.92.57-1.27.79-2.63,1.54-4.06,2.27l-.83.4c0,.1.09.19.13.29A73.82,73.82,0,0,0,97.16,317c1.66,2.7,3,3.08,6.45,1.78a79.1,79.1,0,0,0,14.94-7.33,27.85,27.85,0,0,1,11.55-4.19,15.27,15.27,0,0,0,5.88-1.87c2.17-1.32,3.13-2.85,3-4.81A5.28,5.28,0,0,0,137.21,296.86ZM96,333.67a9.26,9.26,0,0,1-4.76-2c-2.28-1.83-2.77-4.37-3-6.84-.07-1-.12-2-.22-2.95v-.11c0-1.63-.13-3.32-.33-4.95a39.49,39.49,0,0,0-1.37-6.37,31,31,0,0,1-4.08.7c.22.76.36,1.41.47,1.88a28.91,28.91,0,0,1,.48,7.92c-.06,1-.18,2.33-.18,2.33v.09s-.27,1.89-.42,3.8c-.34,4.43-.17,5.24.13,6a7.35,7.35,0,0,0,3.13,3.34,59.48,59.48,0,0,0,12.07-2.7A16,16,0,0,1,96,333.67Zm-3.89-24.84-.12-.27h0l.12.27a74.09,74.09,0,0,0,4.61,8.43A74.79,74.79,0,0,1,92.07,308.83Zm-2.38-39.51c-3.44.82-4.69,2.38-4.6,5.81,0,.53,0,1.06,0,1.59h0c0-.53,0-1.06,0-1.6-.09-3.36,1.2-5,4.59-5.8a4,4,0,0,0,.49-.17Zm-5.38-38.23q-3.63-4.32-5.89-7.23l-.39-.5-1,.76-1.29.95-.07.05a10.93,10.93,0,0,0-1,.76c-2.22,2.2-2.83,5.1-3.27,7.22a21.23,21.23,0,0,0-.42,3,17,17,0,0,1-.67,3.88c-.66,2.34-1.22,3.17-1.75,3.72a7.46,7.46,0,0,1-4.6,1.91h-.11c-2.32.28-5.67,1.4-12.26,3.6-.7.46-1.38.93-2,1.39A77.57,77.57,0,0,0,35.26,263h0a12.77,12.77,0,0,0,.2,6.21c.94,3,3,4.76,6.32,7.67a30.83,30.83,0,0,0,3.14,2.42,12.69,12.69,0,0,1,2.62,2.23c1.32,1.46,1.79,2.42,3.53,6l.76,1.54c4.65,9.47,5.66,10.81,7.17,12a18.59,18.59,0,0,1-3.37-10.62A23.4,23.4,0,0,1,57,282.27c-.36-.72-.75-1.49-1.18-2.31l-.06-.12c-3.37-6.47-5.41-10.38-6-11l0,0a5.3,5.3,0,0,1-1.88-3.38c-.11-1.78,1.09-3.2,1.89-4.14a12,12,0,0,1,4-3.09c2.85-1.39,6.9-2.12,11.7-2.09,1.78,0,3,.12,4.07.2a11.72,11.72,0,0,0,4.64-.26,9.62,9.62,0,0,0,4.92-2.8,9.78,9.78,0,0,0,1.47-2.54,15.91,15.91,0,0,0,1-6.15c0-.63,0-1.24.08-1.88.15-2.31.79-4.26,2-8.13v0a36.6,36.6,0,0,1,1.61-4.13Zm-7.13,84.06A16,16,0,0,0,76,311.23h0a15.21,15.21,0,0,1,1.21,3.92,16.94,16.94,0,0,1-.7,9,12.38,12.38,0,0,1-1.9,3.95c-.2.26-.41.52-.62.75a9.25,9.25,0,0,0,.63-.75,12.28,12.28,0,0,0,1.91-3.94l.26.06-.25-.09A17.2,17.2,0,0,0,77.18,315.15Zm-17-12.47a18.48,18.48,0,0,1-1.81-1.22c-1.59-1.23-2.64-2.6-7.35-12.17l-.78-1.54-.31-.63c.08.19.18.39.28.59L51,289.3c4.71,9.59,5.71,10.89,7.34,12.16a20.36,20.36,0,0,0,1.9,1.28A.13.13,0,0,1,60.23,302.68Zm19-103.89a8,8,0,0,0-.2,1.09h0a9.6,9.6,0,0,1,.2-1.07l.13-.46C79.29,198.51,79.25,198.66,79.21,198.79ZM78,223.32l-1.05.77-1.37,1a7.69,7.69,0,0,0-1,.77c-2.24,2.2-2.86,5.21-3.27,7.2a21.21,21.21,0,0,0-.41,3,17.72,17.72,0,0,1-.68,3.89c-.66,2.37-1.23,3.19-1.75,3.72a7.33,7.33,0,0,1-4.58,1.9h-.12c-2.3.29-5.63,1.39-12.14,3.56l-.1.07c6.59-2.2,9.94-3.32,12.26-3.6h.11a7.46,7.46,0,0,0,4.6-1.91c.53-.55,1.09-1.38,1.75-3.72a17,17,0,0,0,.67-3.88,21.23,21.23,0,0,1,.42-3c.44-2.12,1-5,3.27-7.22a10.93,10.93,0,0,1,1-.76l.07-.05,1.29-.95,1-.76A.08.08,0,0,0,78,223.32Zm59.2,73.54-.24-.22c-1.54-1.37-3.14-2.79-4.8-4.05l-.08,0a44.1,44.1,0,0,0-13.26-7.2,31.74,31.74,0,0,1-13.58-8.28c-3.83-3.84-7.21-6-11-7a15.38,15.38,0,0,0-2.43-.39c-.37,0-.75-.08-1.14-.14l-.18.06a4.06,4.06,0,0,1-.59.19c-3.17.77-4.27,2.15-4.19,5.29q0,1.2-.06,2.4l7,8.51.74.9,10.95,13.33a37.08,37.08,0,0,1-6.11,4.86c-.3.19-.61.39-.92.57-1.27.79-2.63,1.54-4.06,2.27l-.83.4c0,.1.09.19.13.29A73.82,73.82,0,0,0,97.16,317c1.66,2.7,3,3.08,6.45,1.78a79.1,79.1,0,0,0,14.94-7.33,27.85,27.85,0,0,1,11.55-4.19,15.27,15.27,0,0,0,5.88-1.87c2.17-1.32,3.13-2.85,3-4.81A5.28,5.28,0,0,0,137.21,296.86ZM96,333.67a9.26,9.26,0,0,1-4.76-2c-2.28-1.83-2.77-4.37-3-6.84-.07-1-.12-2-.22-2.95v-.11c0-1.63-.13-3.32-.33-4.95a39.49,39.49,0,0,0-1.37-6.37,31,31,0,0,1-4.08.7c.22.76.36,1.41.47,1.88a28.91,28.91,0,0,1,.48,7.92c-.06,1-.18,2.33-.18,2.33v.09s-.27,1.89-.42,3.8c-.34,4.43-.17,5.24.13,6a7.35,7.35,0,0,0,3.13,3.34,59.48,59.48,0,0,0,12.07-2.7A16,16,0,0,1,96,333.67Zm-3.89-24.84-.12-.27h0l.12.27a74.09,74.09,0,0,0,4.61,8.43A74.79,74.79,0,0,1,92.07,308.83Zm-2.38-39.51c-3.44.82-4.69,2.38-4.6,5.81,0,.53,0,1.06,0,1.59h0c0-.53,0-1.06,0-1.6-.09-3.36,1.2-5,4.59-5.8a4,4,0,0,0,.49-.17Zm-5.38-38.23q-3.63-4.32-5.89-7.23l-.39-.5-1,.76-1.29.95-.07.05a10.93,10.93,0,0,0-1,.76c-2.22,2.2-2.83,5.1-3.27,7.22a21.23,21.23,0,0,0-.42,3,17,17,0,0,1-.67,3.88c-.66,2.34-1.22,3.17-1.75,3.72a7.46,7.46,0,0,1-4.6,1.91h-.11c-2.32.28-5.67,1.4-12.26,3.6-.7.46-1.38.93-2,1.39A77.57,77.57,0,0,0,35.26,263h0a12.77,12.77,0,0,0,.2,6.21c.94,3,3,4.76,6.32,7.67a30.83,30.83,0,0,0,3.14,2.42,12.69,12.69,0,0,1,2.62,2.23c1.32,1.46,1.79,2.42,3.53,6l.76,1.54c4.65,9.47,5.66,10.81,7.17,12a18.59,18.59,0,0,1-3.37-10.62A23.4,23.4,0,0,1,57,282.27c-.36-.72-.75-1.49-1.18-2.31l-.06-.12c-3.37-6.47-5.41-10.38-6-11l0,0a5.3,5.3,0,0,1-1.88-3.38c-.11-1.78,1.09-3.2,1.89-4.14a12,12,0,0,1,4-3.09c2.85-1.39,6.9-2.12,11.7-2.09,1.78,0,3,.12,4.07.2a11.72,11.72,0,0,0,4.64-.26,9.62,9.62,0,0,0,4.92-2.8,9.78,9.78,0,0,0,1.47-2.54,15.91,15.91,0,0,0,1-6.15c0-.63,0-1.24.08-1.88.15-2.31.79-4.26,2-8.13v0a36.6,36.6,0,0,1,1.61-4.13Zm-7.13,84.06A16,16,0,0,0,76,311.23h0a15.21,15.21,0,0,1,1.21,3.92,16.94,16.94,0,0,1-.7,9,12.38,12.38,0,0,1-1.9,3.95c-.2.26-.41.52-.62.75a9.25,9.25,0,0,0,.63-.75,12.28,12.28,0,0,0,1.91-3.94l.26.06-.25-.09A17.2,17.2,0,0,0,77.18,315.15Zm-17-12.47a18.48,18.48,0,0,1-1.81-1.22c-1.59-1.23-2.64-2.6-7.35-12.17l-.78-1.54-.31-.63c.08.19.18.39.28.59L51,289.3c4.71,9.59,5.71,10.89,7.34,12.16a20.36,20.36,0,0,0,1.9,1.28A.13.13,0,0,1,60.23,302.68Zm19-103.89a8,8,0,0,0-.2,1.09h0a9.6,9.6,0,0,1,.2-1.07l.13-.46C79.29,198.51,79.25,198.66,79.21,198.79ZM78,223.32l-1.05.77-1.37,1a7.69,7.69,0,0,0-1,.77c-2.24,2.2-2.86,5.21-3.27,7.2a21.21,21.21,0,0,0-.41,3,17.72,17.72,0,0,1-.68,3.89c-.66,2.37-1.23,3.19-1.75,3.72a7.33,7.33,0,0,1-4.58,1.9h-.12c-2.3.29-5.63,1.39-12.14,3.56l-.1.07c6.59-2.2,9.94-3.32,12.26-3.6h.11a7.46,7.46,0,0,0,4.6-1.91c.53-.55,1.09-1.38,1.75-3.72a17,17,0,0,0,.67-3.88,21.23,21.23,0,0,1,.42-3c.44-2.12,1-5,3.27-7.22a10.93,10.93,0,0,1,1-.76l.07-.05,1.29-.95,1-.76A.08.08,0,0,0,78,223.32Zm59.2,73.54-.24-.22c-1.54-1.37-3.14-2.79-4.8-4.05l-.08,0a44.1,44.1,0,0,0-13.26-7.2,31.74,31.74,0,0,1-13.58-8.28c-3.83-3.84-7.21-6-11-7a15.38,15.38,0,0,0-2.43-.39c-.37,0-.75-.08-1.14-.14l-.18.06a4.06,4.06,0,0,1-.59.19c-3.17.77-4.27,2.15-4.19,5.29q0,1.2-.06,2.4l7,8.51.74.9,10.95,13.33a37.08,37.08,0,0,1-6.11,4.86c-.3.19-.61.39-.92.57-1.27.79-2.63,1.54-4.06,2.27l-.83.4c0,.1.09.19.13.29A73.82,73.82,0,0,0,97.16,317c1.66,2.7,3,3.08,6.45,1.78a79.1,79.1,0,0,0,14.94-7.33,27.85,27.85,0,0,1,11.55-4.19,15.27,15.27,0,0,0,5.88-1.87c2.17-1.32,3.13-2.85,3-4.81A5.28,5.28,0,0,0,137.21,296.86ZM96,333.67a9.26,9.26,0,0,1-4.76-2c-2.28-1.83-2.77-4.37-3-6.84-.07-1-.12-2-.22-2.95v-.11c0-1.63-.13-3.32-.33-4.95a39.49,39.49,0,0,0-1.37-6.37,31,31,0,0,1-4.08.7c.22.76.36,1.41.47,1.88a28.91,28.91,0,0,1,.48,7.92c-.06,1-.18,2.33-.18,2.33v.09s-.27,1.89-.42,3.8c-.34,4.43-.17,5.24.13,6a7.35,7.35,0,0,0,3.13,3.34,59.48,59.48,0,0,0,12.07-2.7A16,16,0,0,1,96,333.67Zm-3.89-24.84-.12-.27h0l.12.27a74.09,74.09,0,0,0,4.61,8.43A74.79,74.79,0,0,1,92.07,308.83Zm-2.38-39.51c-3.44.82-4.69,2.38-4.6,5.81,0,.53,0,1.06,0,1.59h0c0-.53,0-1.06,0-1.6-.09-3.36,1.2-5,4.59-5.8a4,4,0,0,0,.49-.17ZM77.18,315.15A16,16,0,0,0,76,311.23h0a15.21,15.21,0,0,1,1.21,3.92,16.94,16.94,0,0,1-.7,9,12.38,12.38,0,0,1-1.9,3.95c-.2.26-.41.52-.62.75a9.25,9.25,0,0,0,.63-.75,12.28,12.28,0,0,0,1.91-3.94l.26.06-.25-.09A17.2,17.2,0,0,0,77.18,315.15Zm-17-12.47a18.48,18.48,0,0,1-1.81-1.22c-1.59-1.23-2.64-2.6-7.35-12.17l-.78-1.54-.31-.63c.08.19.18.39.28.59L51,289.3c4.71,9.59,5.71,10.89,7.34,12.16a20.36,20.36,0,0,0,1.9,1.28A.13.13,0,0,1,60.23,302.68Zm19-103.89a8,8,0,0,0-.2,1.09h0a9.6,9.6,0,0,1,.2-1.07l.13-.46C79.29,198.51,79.25,198.66,79.21,198.79Zm58,98.07-.24-.22c-1.54-1.37-3.14-2.79-4.8-4.05l-.08,0a44.1,44.1,0,0,0-13.26-7.2,31.74,31.74,0,0,1-13.58-8.28c-3.83-3.84-7.21-6-11-7a15.38,15.38,0,0,0-2.43-.39c-.37,0-.75-.08-1.14-.14l-.18.06a4.06,4.06,0,0,1-.59.19c-3.17.77-4.27,2.15-4.19,5.29q0,1.2-.06,2.4l7,8.51.74.9,10.95,13.33a37.08,37.08,0,0,1-6.11,4.86c-.3.19-.61.39-.92.57-1.27.79-2.63,1.54-4.06,2.27l-.83.4c0,.1.09.19.13.29A73.82,73.82,0,0,0,97.16,317c1.66,2.7,3,3.08,6.45,1.78a79.1,79.1,0,0,0,14.94-7.33,27.85,27.85,0,0,1,11.55-4.19,15.27,15.27,0,0,0,5.88-1.87c2.17-1.32,3.13-2.85,3-4.81A5.28,5.28,0,0,0,137.21,296.86ZM96,333.67a9.26,9.26,0,0,1-4.76-2c-2.28-1.83-2.77-4.37-3-6.84-.07-1-.12-2-.22-2.95v-.11c0-1.63-.13-3.32-.33-4.95a39.49,39.49,0,0,0-1.37-6.37,31,31,0,0,1-4.08.7c.22.76.36,1.41.47,1.88a28.91,28.91,0,0,1,.48,7.92c-.06,1-.18,2.33-.18,2.33v.09s-.27,1.89-.42,3.8c-.34,4.43-.17,5.24.13,6a7.35,7.35,0,0,0,3.13,3.34,59.48,59.48,0,0,0,12.07-2.7A16,16,0,0,1,96,333.67Zm-3.89-24.84-.12-.27h0l.12.27a74.09,74.09,0,0,0,4.61,8.43A74.79,74.79,0,0,1,92.07,308.83Zm-2.38-39.51c-3.44.82-4.69,2.38-4.6,5.81,0,.53,0,1.06,0,1.59h0c0-.53,0-1.06,0-1.6-.09-3.36,1.2-5,4.59-5.8a4,4,0,0,0,.49-.17ZM77.18,315.15A16,16,0,0,0,76,311.23h0a15.21,15.21,0,0,1,1.21,3.92,16.94,16.94,0,0,1-.7,9,12.38,12.38,0,0,1-1.9,3.95c-.2.26-.41.52-.62.75a9.25,9.25,0,0,0,.63-.75,12.28,12.28,0,0,0,1.91-3.94l.26.06-.25-.09A17.2,17.2,0,0,0,77.18,315.15Zm-17-12.47a18.48,18.48,0,0,1-1.81-1.22c-1.59-1.23-2.64-2.6-7.35-12.17l-.78-1.54-.31-.63c.08.19.18.39.28.59L51,289.3c4.71,9.59,5.71,10.89,7.34,12.16a20.36,20.36,0,0,0,1.9,1.28A.13.13,0,0,1,60.23,302.68Zm19-103.89a8,8,0,0,0-.2,1.09h0a9.6,9.6,0,0,1,.2-1.07l.13-.46C79.29,198.51,79.25,198.66,79.21,198.79Zm58,98.07-.24-.22c-1.54-1.37-3.14-2.79-4.8-4.05l-.08,0a44.1,44.1,0,0,0-13.26-7.2,31.74,31.74,0,0,1-13.58-8.28c-3.83-3.84-7.21-6-11-7a15.38,15.38,0,0,0-2.43-.39c-.37,0-.75-.08-1.14-.14l-.18.06a4.06,4.06,0,0,1-.59.19c-3.17.77-4.27,2.15-4.19,5.29q0,1.2-.06,2.4l7,8.51.74.9,10.95,13.33a37.08,37.08,0,0,1-6.11,4.86c-.3.19-.61.39-.92.57-1.27.79-2.63,1.54-4.06,2.27l-.83.4c0,.1.09.19.13.29A73.82,73.82,0,0,0,97.16,317c1.66,2.7,3,3.08,6.45,1.78a79.1,79.1,0,0,0,14.94-7.33,27.85,27.85,0,0,1,11.55-4.19,15.27,15.27,0,0,0,5.88-1.87c2.17-1.32,3.13-2.85,3-4.81A5.28,5.28,0,0,0,137.21,296.86Zm-45.14,12-.12-.27h0l.12.27a74.09,74.09,0,0,0,4.61,8.43A74.79,74.79,0,0,1,92.07,308.83Zm-2.38-39.51c-3.44.82-4.69,2.38-4.6,5.81,0,.53,0,1.06,0,1.59h0c0-.53,0-1.06,0-1.6-.09-3.36,1.2-5,4.59-5.8a4,4,0,0,0,.49-.17ZM77.18,315.15A16,16,0,0,0,76,311.23h0a15.21,15.21,0,0,1,1.21,3.92,16.94,16.94,0,0,1-.7,9,12.38,12.38,0,0,1-1.9,3.95c-.2.26-.41.52-.62.75a9.25,9.25,0,0,0,.63-.75,12.28,12.28,0,0,0,1.91-3.94l.26.06-.25-.09A17.2,17.2,0,0,0,77.18,315.15Zm-17-12.47a18.48,18.48,0,0,1-1.81-1.22c-1.59-1.23-2.64-2.6-7.35-12.17l-.78-1.54-.31-.63c.08.19.18.39.28.59L51,289.3c4.71,9.59,5.71,10.89,7.34,12.16a20.36,20.36,0,0,0,1.9,1.28A.13.13,0,0,1,60.23,302.68Zm19-103.89a8,8,0,0,0-.2,1.09h0a9.6,9.6,0,0,1,.2-1.07l.13-.46C79.29,198.51,79.25,198.66,79.21,198.79Zm58,98.07-.24-.22c-1.54-1.37-3.14-2.79-4.8-4.05l-.08,0a44.1,44.1,0,0,0-13.26-7.2,31.74,31.74,0,0,1-13.58-8.28c-3.83-3.84-7.21-6-11-7a15.38,15.38,0,0,0-2.43-.39c-.37,0-.75-.08-1.14-.14l-.18.06a4.06,4.06,0,0,1-.59.19c-3.17.77-4.27,2.15-4.19,5.29q0,1.2-.06,2.4l7,8.51.74.9,10.95,13.33a37.08,37.08,0,0,1-6.11,4.86c-.3.19-.61.39-.92.57-1.27.79-2.63,1.54-4.06,2.27l-.83.4c0,.1.09.19.13.29A73.82,73.82,0,0,0,97.16,317c1.66,2.7,3,3.08,6.45,1.78a79.1,79.1,0,0,0,14.94-7.33,27.85,27.85,0,0,1,11.55-4.19,15.27,15.27,0,0,0,5.88-1.87c2.17-1.32,3.13-2.85,3-4.81A5.28,5.28,0,0,0,137.21,296.86Zm-45.14,12-.12-.27h0l.12.27a74.09,74.09,0,0,0,4.61,8.43A74.79,74.79,0,0,1,92.07,308.83Zm-2.38-39.51c-3.44.82-4.69,2.38-4.6,5.81,0,.53,0,1.06,0,1.59h0c0-.53,0-1.06,0-1.6-.09-3.36,1.2-5,4.59-5.8a4,4,0,0,0,.49-.17ZM77.18,315.15A16,16,0,0,0,76,311.23h0a15.21,15.21,0,0,1,1.21,3.92,16.94,16.94,0,0,1-.7,9,12.38,12.38,0,0,1-1.9,3.95c-.2.26-.41.52-.62.75a9.25,9.25,0,0,0,.63-.75,12.28,12.28,0,0,0,1.91-3.94l.26.06-.25-.09A17.2,17.2,0,0,0,77.18,315.15Zm-17-12.47a18.48,18.48,0,0,1-1.81-1.22c-1.59-1.23-2.64-2.6-7.35-12.17l-.78-1.54-.31-.63c.08.19.18.39.28.59L51,289.3c4.71,9.59,5.71,10.89,7.34,12.16a20.36,20.36,0,0,0,1.9,1.28A.13.13,0,0,1,60.23,302.68Zm19-103.89a8,8,0,0,0-.2,1.09h0a9.6,9.6,0,0,1,.2-1.07l.13-.46C79.29,198.51,79.25,198.66,79.21,198.79Zm58,98.07-.24-.22c-1.54-1.37-3.14-2.79-4.8-4.05l-.08,0a44.1,44.1,0,0,0-13.26-7.2,31.74,31.74,0,0,1-13.58-8.28c-3.83-3.84-7.21-6-11-7a15.38,15.38,0,0,0-2.43-.39c-.37,0-.75-.08-1.14-.14l-.18.06a4.06,4.06,0,0,1-.59.19c-3.17.77-4.27,2.15-4.19,5.29q0,1.2-.06,2.4l7,8.51.74.9,10.95,13.33a37.08,37.08,0,0,1-6.11,4.86c-.3.19-.61.39-.92.57-1.27.79-2.63,1.54-4.06,2.27l-.83.4c0,.1.09.19.13.29A73.82,73.82,0,0,0,97.16,317c1.66,2.7,3,3.08,6.45,1.78a79.1,79.1,0,0,0,14.94-7.33,27.85,27.85,0,0,1,11.55-4.19,15.27,15.27,0,0,0,5.88-1.87c2.17-1.32,3.13-2.85,3-4.81A5.28,5.28,0,0,0,137.21,296.86Zm-45.14,12-.12-.27h0l.12.27a74.09,74.09,0,0,0,4.61,8.43A74.79,74.79,0,0,1,92.07,308.83Zm-2.38-39.51c-3.44.82-4.69,2.38-4.6,5.81,0,.53,0,1.06,0,1.59h0c0-.53,0-1.06,0-1.6-.09-3.36,1.2-5,4.59-5.8a4,4,0,0,0,.49-.17ZM77.18,315.15A16,16,0,0,0,76,311.23h0a15.21,15.21,0,0,1,1.21,3.92,16.94,16.94,0,0,1-.7,9,12.38,12.38,0,0,1-1.9,3.95c-.2.26-.41.52-.62.75a9.25,9.25,0,0,0,.63-.75,12.28,12.28,0,0,0,1.91-3.94l.26.06-.25-.09A17.2,17.2,0,0,0,77.18,315.15Zm-17-12.47a18.48,18.48,0,0,1-1.81-1.22c-1.59-1.23-2.64-2.6-7.35-12.17l-.78-1.54-.31-.63c.08.19.18.39.28.59L51,289.3c4.71,9.59,5.71,10.89,7.34,12.16a20.36,20.36,0,0,0,1.9,1.28A.13.13,0,0,1,60.23,302.68Zm19-103.89a8,8,0,0,0-.2,1.09h0a9.6,9.6,0,0,1,.2-1.07l.13-.46C79.29,198.51,79.25,198.66,79.21,198.79Zm58,98.07-.24-.22c-1.54-1.37-3.14-2.79-4.8-4.05l-.08,0a44.1,44.1,0,0,0-13.26-7.2,31.74,31.74,0,0,1-13.58-8.28c-3.83-3.84-7.21-6-11-7a15.38,15.38,0,0,0-2.43-.39c-.37,0-.75-.08-1.14-.14l-.18.06a4.06,4.06,0,0,1-.59.19c-3.17.77-4.27,2.15-4.19,5.29q0,1.2-.06,2.4l7,8.51.74.9,10.95,13.33a37.08,37.08,0,0,1-6.11,4.86c-.3.19-.61.39-.92.57-1.27.79-2.63,1.54-4.06,2.27l-.83.4c0,.1.09.19.13.29A73.82,73.82,0,0,0,97.16,317c1.66,2.7,3,3.08,6.45,1.78a79.1,79.1,0,0,0,14.94-7.33,27.85,27.85,0,0,1,11.55-4.19,15.27,15.27,0,0,0,5.88-1.87c2.17-1.32,3.13-2.85,3-4.81A5.28,5.28,0,0,0,137.21,296.86Zm-45.14,12-.12-.27h0l.12.27a74.09,74.09,0,0,0,4.61,8.43A74.79,74.79,0,0,1,92.07,308.83Zm-2.38-39.51c-3.44.82-4.69,2.38-4.6,5.81,0,.53,0,1.06,0,1.59h0c0-.53,0-1.06,0-1.6-.09-3.36,1.2-5,4.59-5.8a4,4,0,0,0,.49-.17ZM77.18,315.15A16,16,0,0,0,76,311.23h0a15.21,15.21,0,0,1,1.21,3.92,16.94,16.94,0,0,1-.7,9,12.38,12.38,0,0,1-1.9,3.95c-.2.26-.41.52-.62.75a9.25,9.25,0,0,0,.63-.75,12.28,12.28,0,0,0,1.91-3.94l.26.06-.25-.09A17.2,17.2,0,0,0,77.18,315.15Zm-17-12.47a18.48,18.48,0,0,1-1.81-1.22c-1.59-1.23-2.64-2.6-7.35-12.17l-.78-1.54-.31-.63c.08.19.18.39.28.59L51,289.3c4.71,9.59,5.71,10.89,7.34,12.16a20.36,20.36,0,0,0,1.9,1.28A.13.13,0,0,1,60.23,302.68Zm19-103.89a8,8,0,0,0-.2,1.09h0a9.6,9.6,0,0,1,.2-1.07l.13-.46C79.29,198.51,79.25,198.66,79.21,198.79Zm58,98.07-.24-.22c-1.54-1.37-3.14-2.79-4.8-4.05l-.08,0a44.1,44.1,0,0,0-13.26-7.2,31.74,31.74,0,0,1-13.58-8.28c-3.83-3.84-7.21-6-11-7a15.38,15.38,0,0,0-2.43-.39c-.37,0-.75-.08-1.14-.14l-.18.06a4.06,4.06,0,0,1-.59.19c-3.17.77-4.27,2.15-4.19,5.29q0,1.2-.06,2.4l7,8.51.74.9,10.95,13.33a37.08,37.08,0,0,1-6.11,4.86c-.3.19-.61.39-.92.57-1.27.79-2.63,1.54-4.06,2.27l-.83.4c0,.1.09.19.13.29A73.82,73.82,0,0,0,97.16,317c1.66,2.7,3,3.08,6.45,1.78a79.1,79.1,0,0,0,14.94-7.33,27.85,27.85,0,0,1,11.55-4.19,15.27,15.27,0,0,0,5.88-1.87c2.17-1.32,3.13-2.85,3-4.81A5.28,5.28,0,0,0,137.21,296.86Zm-45.14,12-.12-.27h0l.12.27a74.09,74.09,0,0,0,4.61,8.43A74.79,74.79,0,0,1,92.07,308.83Zm-2.38-39.51c-3.44.82-4.69,2.38-4.6,5.81,0,.53,0,1.06,0,1.59h0c0-.53,0-1.06,0-1.6-.09-3.36,1.2-5,4.59-5.8a4,4,0,0,0,.49-.17ZM77.18,315.15A16,16,0,0,0,76,311.23h0a15.21,15.21,0,0,1,1.21,3.92,16.94,16.94,0,0,1-.7,9,12.38,12.38,0,0,1-1.9,3.95c-.2.26-.41.52-.62.75a9.25,9.25,0,0,0,.63-.75,12.28,12.28,0,0,0,1.91-3.94l.26.06-.25-.09A17.2,17.2,0,0,0,77.18,315.15Zm-17-12.47a18.48,18.48,0,0,1-1.81-1.22c-1.59-1.23-2.64-2.6-7.35-12.17l-.78-1.54-.31-.63c.08.19.18.39.28.59L51,289.3c4.71,9.59,5.71,10.89,7.34,12.16a20.36,20.36,0,0,0,1.9,1.28A.13.13,0,0,1,60.23,302.68Zm19-103.89a8,8,0,0,0-.2,1.09h0a9.6,9.6,0,0,1,.2-1.07l.13-.46C79.29,198.51,79.25,198.66,79.21,198.79Zm58,98.07-.24-.22c-1.54-1.37-3.14-2.79-4.8-4.05l-.08,0a44.1,44.1,0,0,0-13.26-7.2,31.74,31.74,0,0,1-13.58-8.28c-3.83-3.84-7.21-6-11-7a15.38,15.38,0,0,0-2.43-.39c-.37,0-.75-.08-1.14-.14l-.18.06a4.06,4.06,0,0,1-.59.19c-3.17.77-4.27,2.15-4.19,5.29q0,1.2-.06,2.4l7,8.51.74.9,10.95,13.33a37.08,37.08,0,0,1-6.11,4.86c-.3.19-.61.39-.92.57-1.27.79-2.63,1.54-4.06,2.27l-.83.4c0,.1.09.19.13.29A73.82,73.82,0,0,0,97.16,317c1.66,2.7,3,3.08,6.45,1.78a79.1,79.1,0,0,0,14.94-7.33,27.85,27.85,0,0,1,11.55-4.19,15.27,15.27,0,0,0,5.88-1.87c2.17-1.32,3.13-2.85,3-4.81A5.28,5.28,0,0,0,137.21,296.86Zm-45.14,12-.12-.27h0l.12.27a74.09,74.09,0,0,0,4.61,8.43A74.79,74.79,0,0,1,92.07,308.83Zm-2.38-39.51c-3.44.82-4.69,2.38-4.6,5.81,0,.53,0,1.06,0,1.59h0c0-.53,0-1.06,0-1.6-.09-3.36,1.2-5,4.59-5.8a4,4,0,0,0,.49-.17ZM77.18,315.15A16,16,0,0,0,76,311.23h0a15.21,15.21,0,0,1,1.21,3.92,16.94,16.94,0,0,1-.7,9,12.38,12.38,0,0,1-1.9,3.95c-.2.26-.41.52-.62.75a9.25,9.25,0,0,0,.63-.75,12.28,12.28,0,0,0,1.91-3.94l.26.06-.25-.09A17.2,17.2,0,0,0,77.18,315.15Zm-17-12.47a18.48,18.48,0,0,1-1.81-1.22c-1.59-1.23-2.64-2.6-7.35-12.17l-.78-1.54-.31-.63c.08.19.18.39.28.59L51,289.3c4.71,9.59,5.71,10.89,7.34,12.16a20.36,20.36,0,0,0,1.9,1.28A.13.13,0,0,1,60.23,302.68Zm19-103.89a8,8,0,0,0-.2,1.09h0a9.6,9.6,0,0,1,.2-1.07l.13-.46C79.29,198.51,79.25,198.66,79.21,198.79Zm58,98.07-.24-.22c-1.54-1.37-3.14-2.79-4.8-4.05l-.08,0a44.1,44.1,0,0,0-13.26-7.2,31.74,31.74,0,0,1-13.58-8.28c-3.83-3.84-7.21-6-11-7a15.38,15.38,0,0,0-2.43-.39c-.37,0-.75-.08-1.14-.14l-.18.06a4.06,4.06,0,0,1-.59.19c-3.17.77-4.27,2.15-4.19,5.29q0,1.2-.06,2.4l7,8.51.74.9,10.95,13.33a37.08,37.08,0,0,1-6.11,4.86c-.3.19-.61.39-.92.57-1.27.79-2.63,1.54-4.06,2.27l-.83.4c0,.1.09.19.13.29A73.82,73.82,0,0,0,97.16,317c1.66,2.7,3,3.08,6.45,1.78a79.1,79.1,0,0,0,14.94-7.33,27.85,27.85,0,0,1,11.55-4.19,15.27,15.27,0,0,0,5.88-1.87c2.17-1.32,3.13-2.85,3-4.81A5.28,5.28,0,0,0,137.21,296.86Zm-45.14,12-.12-.27h0l.12.27a74.09,74.09,0,0,0,4.61,8.43A74.79,74.79,0,0,1,92.07,308.83Zm-2.38-39.51c-3.44.82-4.69,2.38-4.6,5.81,0,.53,0,1.06,0,1.59h0c0-.53,0-1.06,0-1.6-.09-3.36,1.2-5,4.59-5.8a4,4,0,0,0,.49-.17ZM77.18,315.15A16,16,0,0,0,76,311.23h0a15.21,15.21,0,0,1,1.21,3.92,16.94,16.94,0,0,1-.7,9,12.38,12.38,0,0,1-1.9,3.95c-.2.26-.41.52-.62.75a9.25,9.25,0,0,0,.63-.75,12.28,12.28,0,0,0,1.91-3.94l.26.06-.25-.09A17.2,17.2,0,0,0,77.18,315.15Zm-17-12.47a18.48,18.48,0,0,1-1.81-1.22c-1.59-1.23-2.64-2.6-7.35-12.17l-.78-1.54-.31-.63c.08.19.18.39.28.59L51,289.3c4.71,9.59,5.71,10.89,7.34,12.16a20.36,20.36,0,0,0,1.9,1.28A.13.13,0,0,1,60.23,302.68Zm19-103.89a8,8,0,0,0-.2,1.09h0a9.6,9.6,0,0,1,.2-1.07l.13-.46C79.29,198.51,79.25,198.66,79.21,198.79Zm58,98.07-.24-.22c-1.54-1.37-3.14-2.79-4.8-4.05l-.08,0a44.1,44.1,0,0,0-13.26-7.2,31.74,31.74,0,0,1-13.58-8.28c-3.83-3.84-7.21-6-11-7a15.38,15.38,0,0,0-2.43-.39c-.37,0-.75-.08-1.14-.14l-.18.06a4.06,4.06,0,0,1-.59.19c-3.17.77-4.27,2.15-4.19,5.29q0,1.2-.06,2.4l7,8.51.74.9,10.95,13.33a37.08,37.08,0,0,1-6.11,4.86c-.3.19-.61.39-.92.57-1.27.79-2.63,1.54-4.06,2.27l-.83.4c0,.1.09.19.13.29A73.82,73.82,0,0,0,97.16,317c1.66,2.7,3,3.08,6.45,1.78a79.1,79.1,0,0,0,14.94-7.33,27.85,27.85,0,0,1,11.55-4.19,15.27,15.27,0,0,0,5.88-1.87c2.17-1.32,3.13-2.85,3-4.81A5.28,5.28,0,0,0,137.21,296.86Zm-45.14,12-.12-.27h0l.12.27a74.09,74.09,0,0,0,4.61,8.43A74.79,74.79,0,0,1,92.07,308.83Zm-2.38-39.51c-3.44.82-4.69,2.38-4.6,5.81,0,.53,0,1.06,0,1.59h0c0-.53,0-1.06,0-1.6-.09-3.36,1.2-5,4.59-5.8a4,4,0,0,0,.49-.17ZM77.18,315.15A16,16,0,0,0,76,311.23h0a15.21,15.21,0,0,1,1.21,3.92,16.94,16.94,0,0,1-.7,9,12.38,12.38,0,0,1-1.9,3.95c-.2.26-.41.52-.62.75a9.25,9.25,0,0,0,.63-.75,12.28,12.28,0,0,0,1.91-3.94l.26.06-.25-.09A17.2,17.2,0,0,0,77.18,315.15Zm-17-12.47a18.48,18.48,0,0,1-1.81-1.22c-1.59-1.23-2.64-2.6-7.35-12.17l-.78-1.54-.31-.63c.08.19.18.39.28.59L51,289.3c4.71,9.59,5.71,10.89,7.34,12.16a20.36,20.36,0,0,0,1.9,1.28A.13.13,0,0,1,60.23,302.68Zm19-103.89a8,8,0,0,0-.2,1.09h0a9.6,9.6,0,0,1,.2-1.07l.13-.46C79.29,198.51,79.25,198.66,79.21,198.79Zm58,98.07-.24-.22c-1.54-1.37-3.14-2.79-4.8-4.05l-.08,0a44.1,44.1,0,0,0-13.26-7.2,31.74,31.74,0,0,1-13.58-8.28c-3.83-3.84-7.21-6-11-7a15.38,15.38,0,0,0-2.43-.39c-.37,0-.75-.08-1.14-.14l-.18.06a4.06,4.06,0,0,1-.59.19c-3.17.77-4.27,2.15-4.19,5.29q0,1.2-.06,2.4l7,8.51.74.9,10.95,13.33a37.08,37.08,0,0,1-6.11,4.86c-.3.19-.61.39-.92.57-1.27.79-2.63,1.54-4.06,2.27l-.83.4c0,.1.09.19.13.29A73.82,73.82,0,0,0,97.16,317c1.66,2.7,3,3.08,6.45,1.78a79.1,79.1,0,0,0,14.94-7.33,27.85,27.85,0,0,1,11.55-4.19,15.27,15.27,0,0,0,5.88-1.87c2.17-1.32,3.13-2.85,3-4.81A5.28,5.28,0,0,0,137.21,296.86Zm-45.14,12-.12-.27h0l.12.27a74.09,74.09,0,0,0,4.61,8.43A74.79,74.79,0,0,1,92.07,308.83Zm-2.38-39.51c-3.44.82-4.69,2.38-4.6,5.81,0,.53,0,1.06,0,1.59h0c0-.53,0-1.06,0-1.6-.09-3.36,1.2-5,4.59-5.8a4,4,0,0,0,.49-.17ZM77.18,315.15A16,16,0,0,0,76,311.23h0a15.21,15.21,0,0,1,1.21,3.92,16.94,16.94,0,0,1-.7,9,12.38,12.38,0,0,1-1.9,3.95c-.2.26-.41.52-.62.75a9.25,9.25,0,0,0,.63-.75,12.28,12.28,0,0,0,1.91-3.94l.26.06-.25-.09A17.2,17.2,0,0,0,77.18,315.15Zm-17-12.47a18.48,18.48,0,0,1-1.81-1.22c-1.59-1.23-2.64-2.6-7.35-12.17l-.78-1.54-.31-.63c.08.19.18.39.28.59L51,289.3c4.71,9.59,5.71,10.89,7.34,12.16a20.36,20.36,0,0,0,1.9,1.28A.13.13,0,0,1,60.23,302.68Zm19-103.89a8,8,0,0,0-.2,1.09h0a9.6,9.6,0,0,1,.2-1.07l.13-.46C79.29,198.51,79.25,198.66,79.21,198.79Zm58,98.07-.24-.22c-1.54-1.37-3.14-2.79-4.8-4.05l-.08,0a44.1,44.1,0,0,0-13.26-7.2,31.74,31.74,0,0,1-13.58-8.28c-3.83-3.84-7.21-6-11-7a15.38,15.38,0,0,0-2.43-.39c-.37,0-.75-.08-1.14-.14l-.18.06a4.06,4.06,0,0,1-.59.19c-3.17.77-4.27,2.15-4.19,5.29q0,1.2-.06,2.4l7,8.51.74.9,10.95,13.33a37.08,37.08,0,0,1-6.11,4.86c-.3.19-.61.39-.92.57-1.27.79-2.63,1.54-4.06,2.27l-.83.4c0,.1.09.19.13.29A73.82,73.82,0,0,0,97.16,317c1.66,2.7,3,3.08,6.45,1.78a79.1,79.1,0,0,0,14.94-7.33,27.85,27.85,0,0,1,11.55-4.19,15.27,15.27,0,0,0,5.88-1.87c2.17-1.32,3.13-2.85,3-4.81A5.28,5.28,0,0,0,137.21,296.86Zm-45.14,12-.12-.27h0l.12.27a74.09,74.09,0,0,0,4.61,8.43A74.79,74.79,0,0,1,92.07,308.83Zm-2.38-39.51c-3.44.82-4.69,2.38-4.6,5.81,0,.53,0,1.06,0,1.59h0c0-.53,0-1.06,0-1.6-.09-3.36,1.2-5,4.59-5.8a4,4,0,0,0,.49-.17ZM77.18,315.15A16,16,0,0,0,76,311.23h0a15.21,15.21,0,0,1,1.21,3.92,16.94,16.94,0,0,1-.7,9,12.38,12.38,0,0,1-1.9,3.95c-.2.26-.41.52-.62.75a9.25,9.25,0,0,0,.63-.75,12.28,12.28,0,0,0,1.91-3.94l.26.06-.25-.09A17.2,17.2,0,0,0,77.18,315.15Zm-17-12.47a18.48,18.48,0,0,1-1.81-1.22c-1.59-1.23-2.64-2.6-7.35-12.17l-.78-1.54-.31-.63c.08.19.18.39.28.59L51,289.3c4.71,9.59,5.71,10.89,7.34,12.16a20.36,20.36,0,0,0,1.9,1.28A.13.13,0,0,1,60.23,302.68Zm19-103.89a8,8,0,0,0-.2,1.09h0a9.6,9.6,0,0,1,.2-1.07l.13-.46C79.29,198.51,79.25,198.66,79.21,198.79Zm58,98.07-.24-.22c-1.54-1.37-3.14-2.79-4.8-4.05l-.08,0a44.1,44.1,0,0,0-13.26-7.2,31.74,31.74,0,0,1-13.58-8.28c-3.83-3.84-7.21-6-11-7a15.38,15.38,0,0,0-2.43-.39c-.37,0-.75-.08-1.14-.14l-.18.06a4.06,4.06,0,0,1-.59.19c-3.17.77-4.27,2.15-4.19,5.29q0,1.2-.06,2.4l7,8.51.74.9,10.95,13.33a37.08,37.08,0,0,1-6.11,4.86c-.3.19-.61.39-.92.57-1.27.79-2.63,1.54-4.06,2.27l-.83.4c0,.1.09.19.13.29A73.82,73.82,0,0,0,97.16,317c1.66,2.7,3,3.08,6.45,1.78a79.1,79.1,0,0,0,14.94-7.33,27.85,27.85,0,0,1,11.55-4.19,15.27,15.27,0,0,0,5.88-1.87c2.17-1.32,3.13-2.85,3-4.81A5.28,5.28,0,0,0,137.21,296.86Zm-45.14,12-.12-.27h0l.12.27a74.09,74.09,0,0,0,4.61,8.43A74.79,74.79,0,0,1,92.07,308.83Zm-2.38-39.51c-3.44.82-4.69,2.38-4.6,5.81,0,.53,0,1.06,0,1.59h0c0-.53,0-1.06,0-1.6-.09-3.36,1.2-5,4.59-5.8a4,4,0,0,0,.49-.17ZM77.18,315.15A16,16,0,0,0,76,311.23h0a15.21,15.21,0,0,1,1.21,3.92,16.94,16.94,0,0,1-.7,9,12.38,12.38,0,0,1-1.9,3.95c-.2.26-.41.52-.62.75a9.25,9.25,0,0,0,.63-.75,12.28,12.28,0,0,0,1.91-3.94l.26.06-.25-.09A17.2,17.2,0,0,0,77.18,315.15Zm-17-12.47a18.48,18.48,0,0,1-1.81-1.22c-1.59-1.23-2.64-2.6-7.35-12.17l-.78-1.54-.31-.63c.08.19.18.39.28.59L51,289.3c4.71,9.59,5.71,10.89,7.34,12.16a20.36,20.36,0,0,0,1.9,1.28A.13.13,0,0,1,60.23,302.68Zm19-103.89a8,8,0,0,0-.2,1.09h0a9.6,9.6,0,0,1,.2-1.07l.13-.46C79.29,198.51,79.25,198.66,79.21,198.79Zm58,98.07-.24-.22c-1.54-1.37-3.14-2.79-4.8-4.05l-.08,0a44.1,44.1,0,0,0-13.26-7.2,31.74,31.74,0,0,1-13.58-8.28c-3.83-3.84-7.21-6-11-7a15.38,15.38,0,0,0-2.43-.39c-.37,0-.75-.08-1.14-.14l-.18.06a4.06,4.06,0,0,1-.59.19c-3.17.77-4.27,2.15-4.19,5.29q0,1.2-.06,2.4l7,8.51.74.9,10.95,13.33a37.08,37.08,0,0,1-6.11,4.86c-.3.19-.61.39-.92.57-1.27.79-2.63,1.54-4.06,2.27l-.83.4c0,.1.09.19.13.29A73.82,73.82,0,0,0,97.16,317c1.66,2.7,3,3.08,6.45,1.78a79.1,79.1,0,0,0,14.94-7.33,27.85,27.85,0,0,1,11.55-4.19,15.27,15.27,0,0,0,5.88-1.87c2.17-1.32,3.13-2.85,3-4.81A5.28,5.28,0,0,0,137.21,296.86Zm-45.14,12-.12-.27h0l.12.27a74.09,74.09,0,0,0,4.61,8.43A74.79,74.79,0,0,1,92.07,308.83Zm-2.38-39.51c-3.44.82-4.69,2.38-4.6,5.81,0,.53,0,1.06,0,1.59h0c0-.53,0-1.06,0-1.6-.09-3.36,1.2-5,4.59-5.8a4,4,0,0,0,.49-.17ZM77.18,315.15A16,16,0,0,0,76,311.23h0a15.21,15.21,0,0,1,1.21,3.92,16.94,16.94,0,0,1-.7,9,12.38,12.38,0,0,1-1.9,3.95c-.2.26-.41.52-.62.75a9.25,9.25,0,0,0,.63-.75,12.28,12.28,0,0,0,1.91-3.94l.26.06-.25-.09A17.2,17.2,0,0,0,77.18,315.15Zm-17-12.47a18.48,18.48,0,0,1-1.81-1.22c-1.59-1.23-2.64-2.6-7.35-12.17l-.78-1.54-.31-.63c.08.19.18.39.28.59L51,289.3c4.71,9.59,5.71,10.89,7.34,12.16a20.36,20.36,0,0,0,1.9,1.28A.13.13,0,0,1,60.23,302.68Zm19-103.89a8,8,0,0,0-.2,1.09h0a9.6,9.6,0,0,1,.2-1.07l.13-.46C79.29,198.51,79.25,198.66,79.21,198.79Zm58,98.07-.24-.22c-1.54-1.37-3.14-2.79-4.8-4.05l-.08,0a44.1,44.1,0,0,0-13.26-7.2,31.74,31.74,0,0,1-13.58-8.28c-3.83-3.84-7.21-6-11-7a15.38,15.38,0,0,0-2.43-.39c-.37,0-.75-.08-1.14-.14l-.18.06a4.06,4.06,0,0,1-.59.19c-3.17.77-4.27,2.15-4.19,5.29q0,1.2-.06,2.4l7,8.51.74.9,10.95,13.33a37.08,37.08,0,0,1-6.11,4.86c-.3.19-.61.39-.92.57-1.27.79-2.63,1.54-4.06,2.27l-.83.4c0,.1.09.19.13.29A73.82,73.82,0,0,0,97.16,317c1.66,2.7,3,3.08,6.45,1.78a79.1,79.1,0,0,0,14.94-7.33,27.85,27.85,0,0,1,11.55-4.19,15.27,15.27,0,0,0,5.88-1.87c2.17-1.32,3.13-2.85,3-4.81A5.28,5.28,0,0,0,137.21,296.86Zm-45.14,12-.12-.27h0l.12.27a74.09,74.09,0,0,0,4.61,8.43A74.79,74.79,0,0,1,92.07,308.83Zm-2.38-39.51c-3.44.82-4.69,2.38-4.6,5.81,0,.53,0,1.06,0,1.59h0c0-.53,0-1.06,0-1.6-.09-3.36,1.2-5,4.59-5.8a4,4,0,0,0,.49-.17ZM77.18,315.15A16,16,0,0,0,76,311.23h0a15.21,15.21,0,0,1,1.21,3.92,16.94,16.94,0,0,1-.7,9,12.38,12.38,0,0,1-1.9,3.95c-.2.26-.41.52-.62.75a9.25,9.25,0,0,0,.63-.75,12.28,12.28,0,0,0,1.91-3.94l.26.06-.25-.09A17.2,17.2,0,0,0,77.18,315.15Zm-17-12.47a18.48,18.48,0,0,1-1.81-1.22c-1.59-1.23-2.64-2.6-7.35-12.17l-.78-1.54-.31-.63c.08.19.18.39.28.59L51,289.3c4.71,9.59,5.71,10.89,7.34,12.16a20.36,20.36,0,0,0,1.9,1.28A.13.13,0,0,1,60.23,302.68Zm19-103.89a8,8,0,0,0-.2,1.09h0a9.6,9.6,0,0,1,.2-1.07l.13-.46C79.29,198.51,79.25,198.66,79.21,198.79Zm58,98.07-.24-.22c-1.54-1.37-3.14-2.79-4.8-4.05l-.08,0a44.1,44.1,0,0,0-13.26-7.2,31.74,31.74,0,0,1-13.58-8.28c-3.83-3.84-7.21-6-11-7a15.38,15.38,0,0,0-2.43-.39c-.37,0-.75-.08-1.14-.14l-.18.06a4.06,4.06,0,0,1-.59.19c-3.17.77-4.27,2.15-4.19,5.29q0,1.2-.06,2.4l7,8.51.74.9,10.95,13.33a37.08,37.08,0,0,1-6.11,4.86c-.3.19-.61.39-.92.57-1.27.79-2.63,1.54-4.06,2.27l-.83.4c0,.1.09.19.13.29A73.82,73.82,0,0,0,97.16,317c1.66,2.7,3,3.08,6.45,1.78a79.1,79.1,0,0,0,14.94-7.33,27.85,27.85,0,0,1,11.55-4.19,15.27,15.27,0,0,0,5.88-1.87c2.17-1.32,3.13-2.85,3-4.81A5.28,5.28,0,0,0,137.21,296.86Zm-45.14,12-.12-.27h0l.12.27a74.09,74.09,0,0,0,4.61,8.43A74.79,74.79,0,0,1,92.07,308.83Zm-2.38-39.51c-3.44.82-4.69,2.38-4.6,5.81,0,.53,0,1.06,0,1.59h0c0-.53,0-1.06,0-1.6-.09-3.36,1.2-5,4.59-5.8a4,4,0,0,0,.49-.17ZM77.18,315.15A16,16,0,0,0,76,311.23h0a15.21,15.21,0,0,1,1.21,3.92,16.94,16.94,0,0,1-.7,9,12.38,12.38,0,0,1-1.9,3.95c-.2.26-.41.52-.62.75a9.25,9.25,0,0,0,.63-.75,12.28,12.28,0,0,0,1.91-3.94l.26.06-.25-.09A17.2,17.2,0,0,0,77.18,315.15Zm-17-12.47a18.48,18.48,0,0,1-1.81-1.22c-1.59-1.23-2.64-2.6-7.35-12.17l-.78-1.54-.31-.63c.08.19.18.39.28.59L51,289.3c4.71,9.59,5.71,10.89,7.34,12.16a20.36,20.36,0,0,0,1.9,1.28A.13.13,0,0,1,60.23,302.68Zm19-103.89a8,8,0,0,0-.2,1.09h0a9.6,9.6,0,0,1,.2-1.07l.13-.46C79.29,198.51,79.25,198.66,79.21,198.79Zm58,98.07-.24-.22c-1.54-1.37-3.14-2.79-4.8-4.05l-.08,0a44.1,44.1,0,0,0-13.26-7.2,31.74,31.74,0,0,1-13.58-8.28c-3.83-3.84-7.21-6-11-7a15.38,15.38,0,0,0-2.43-.39c-.37,0-.75-.08-1.14-.14l-.18.06a4.06,4.06,0,0,1-.59.19c-3.17.77-4.27,2.15-4.19,5.29q0,1.2-.06,2.4l7,8.51.74.9,10.95,13.33a37.08,37.08,0,0,1-6.11,4.86c-.3.19-.61.39-.92.57-1.27.79-2.63,1.54-4.06,2.27l-.83.4c0,.1.09.19.13.29A73.82,73.82,0,0,0,97.16,317c1.66,2.7,3,3.08,6.45,1.78a79.1,79.1,0,0,0,14.94-7.33,27.85,27.85,0,0,1,11.55-4.19,15.27,15.27,0,0,0,5.88-1.87c2.17-1.32,3.13-2.85,3-4.81A5.28,5.28,0,0,0,137.21,296.86ZM92,308.56h0l.12.27a74.09,74.09,0,0,0,4.61,8.43,74.79,74.79,0,0,1-4.59-8.44ZM89.7,269.33a4,4,0,0,0,.49-.17l-.5.16c-3.44.82-4.69,2.38-4.6,5.81,0,.53,0,1.06,0,1.59h0c0-.53,0-1.06,0-1.6C85,271.77,86.31,270.15,89.7,269.33ZM77.18,315.15A16,16,0,0,0,76,311.23h0a15.21,15.21,0,0,1,1.21,3.92,16.94,16.94,0,0,1-.7,9,12.38,12.38,0,0,1-1.9,3.95c-.2.26-.41.52-.62.75a9.25,9.25,0,0,0,.63-.75,12.28,12.28,0,0,0,1.91-3.94l.26.06-.25-.09A17.2,17.2,0,0,0,77.18,315.15ZM58.42,301.46c-1.59-1.23-2.64-2.6-7.35-12.17l-.78-1.54-.31-.63c.08.19.18.39.28.59L51,289.3c4.71,9.59,5.71,10.89,7.34,12.16a20.36,20.36,0,0,0,1.9,1.28.13.13,0,0,1-.05-.06A18.48,18.48,0,0,1,58.42,301.46ZM79.21,198.79a8,8,0,0,0-.2,1.09h0a9.6,9.6,0,0,1,.2-1.07l.13-.46C79.29,198.51,79.25,198.66,79.21,198.79Zm83.65,127.64-.68-.82-8-9.51-.26-.31h0l-.18-.22L150,311l-.46-.55h0l-.23-.27-2.16-2.58-.75-.9-2.09-2.5-.39-.46-.45-.54-3.75-4.48q1.38-1.8,2.63-3.55c.23-.32.46-.63.67-.95,1.19-1.7,2.28-3.35,3.27-5,.1-.16.2-.32.29-.49s.24-.39.35-.59a61,61,0,0,0,3.93-7.76,92.58,92.58,0,0,0,4.56-13.54c.06-.22.12-.44.17-.66a.06.06,0,0,0,0,0c.08-.29.14-.57.21-.86a81,81,0,0,0,1.66-9.7c.12-1.07.22-2.14.29-3.2,0-.41.05-.81.07-1.21H130.61a47.09,47.09,0,0,1-2.23,13.86,44.59,44.59,0,0,1-2.73,6.61,4.63,4.63,0,0,1-.28.54h0c-.08.16-.16.32-.25.47a43.58,43.58,0,0,1-2.78,4.5L111,263.39l-.47-.57-.53-.64L99.59,249.62c1.22-.7,2.39-1.41,3.53-2.14l1.25-.8a59.44,59.44,0,0,0,14.83-13.23q.45-.58.87-1.2c.3-.43.58-.87.85-1.32s.42-.69.61-1.05a31.87,31.87,0,0,0,3.18-8.39c.08-.33.16-.66.23-1h0c.06-.28.12-.57.16-.86a48.1,48.1,0,0,0,.78-8.9c0-.73,0-1.44,0-2.15l-.09-1.29a34.46,34.46,0,0,0-1.49-7.6c-.08-.27-.17-.54-.26-.8v0c-.08-.26-.18-.51-.27-.77a31.32,31.32,0,0,0-5.24-9c-.46-.56-.93-1.1-1.43-1.63-.72-.77-1.49-1.51-2.3-2.24a37.17,37.17,0,0,0-10.27-6.54,12,12,0,0,0-1.17-.48,41.25,41.25,0,0,0-8.72-2.34c-.5-.07-1-.15-1.51-.2-1-.14-2.08-.23-3.15-.29-.33,0-.67,0-1,0s-.42,0-.64,0q-.85,0-1.74,0a60.51,60.51,0,0,0-9.63.73l-.57.09a5.43,5.43,0,0,0-.56.09,43.34,43.34,0,0,0-14.62,5.28,5.64,5.64,0,0,0-.53.31,4.66,4.66,0,0,0-.47.3A36.35,36.35,0,0,0,56.09,185a32.73,32.73,0,0,0-3.19,3c-.43.46-.83.92-1.21,1.4a29.07,29.07,0,0,0-2.28,3.16h0c-.43.69-.83,1.4-1.21,2.13a35.12,35.12,0,0,0-3.65,13c0,.19,0,.38,0,.57v.06l0,.43c-.07,1.06-.11,2.15-.11,3.26a39.23,39.23,0,0,0,3.76,16.78c.4.86.83,1.71,1.29,2.57.1.21.22.42.34.63a.08.08,0,0,0,0,0c.1.2.21.39.32.59a70.06,70.06,0,0,0,8.67,12l-3.33,2c-.78.48-1.54,1-2.29,1.45l-1.5,1-.1.07c-.7.46-1.38.93-2,1.39A77.57,77.57,0,0,0,35.26,263h0c-.37.42-.73.85-1.07,1.28h0l-.29.37c-.6.74-1.16,1.49-1.68,2.24a40,40,0,0,0-6.79,18.81c-.05.45-.09.91-.12,1.37-.12,1.4-.18,2.84-.18,4.31a41,41,0,0,0,4.09,18c.06.14.13.28.2.42v0c.09.17.17.35.27.53a45.56,45.56,0,0,0,2.86,4.85c.2.31.41.61.63.92a57.68,57.68,0,0,0,5.62,6.76,42.8,42.8,0,0,0,9.49,7.42l.45.26h0a3.24,3.24,0,0,0,.36.2A48.07,48.07,0,0,0,61,335.29l1.21.28A68.34,68.34,0,0,0,76.81,337a73.93,73.93,0,0,0,7.54-.37c.51-.05,1-.1,1.5-.17a59.48,59.48,0,0,0,12.07-2.7h0c.66-.21,1.31-.45,2-.7A.42.42,0,0,0,100,333h0a51.27,51.27,0,0,0,5.29-2.36l1.18-.63.13-.08c.71-.39,1.44-.82,2.17-1.28a77.31,77.31,0,0,0,11.5-9l2,2.46.68.83,2.76,3.36.22.27h0l.44.55,3.64,4.42.27.34,1,1.18h37.06Zm-84.79-126a6.65,6.65,0,0,1,.58-.33,3.24,3.24,0,0,1,.36-.2h0c.27-.14.54-.28.82-.4A14.67,14.67,0,0,1,86,198.15q6.8,0,10.14,3.87a13.2,13.2,0,0,1,3.34,8.83c0,.16,0,.32,0,.47a6.08,6.08,0,0,1,0,.61h0c0,.23,0,.45-.06.67a18.5,18.5,0,0,1-5.47,10.83A46.48,46.48,0,0,1,87.28,229l-1.12.79-.08.05c-.25.19-.51.36-.77.54l-1,.69q-3.63-4.32-5.89-7.23l-.39-.5a.08.08,0,0,0,0,0l-.25-.33c-.94-1.22-1.65-2.22-2.14-3a16.55,16.55,0,0,1-3.12-9Q72.5,203.75,78.07,200.41Zm4.17,110.78c-.35,0-.7.07-1.06.09-.79.06-1.58.09-2.38.09s-1.36,0-2-.07l-.82-.07h0l-.44-.05a21.76,21.76,0,0,1-13.37-6.37c-.35-.35-.68-.7-1-1.06a13.17,13.17,0,0,1-.86-1,.13.13,0,0,1-.05-.06,20.21,20.21,0,0,1-4.6-12.28A23.4,23.4,0,0,1,57,282.27q.24-.67.54-1.32a23.6,23.6,0,0,1,1.8-3.35q3.75-5.82,15.38-13.45l.17.21.63.76,9,11,.51.62h0l.62.75,7,8.51.74.9,10.95,13.33a37.08,37.08,0,0,1-6.11,4.86c-.3.19-.61.39-.92.57-1.27.79-2.63,1.54-4.06,2.27l-.83.4-.51.24h0l-.54.23a30.88,30.88,0,0,1-4.08,1.43l-.45.12h0l-.52.13A31,31,0,0,1,82.24,311.19Zm-3-112.4a8,8,0,0,0-.2,1.09h0a9.6,9.6,0,0,1,.2-1.07l.13-.46C79.29,198.51,79.25,198.66,79.21,198.79Zm-19,103.89a18.48,18.48,0,0,1-1.81-1.22c-1.59-1.23-2.64-2.6-7.35-12.17l-.78-1.54-.31-.63c.08.19.18.39.28.59L51,289.3c4.71,9.59,5.71,10.89,7.34,12.16a20.36,20.36,0,0,0,1.9,1.28A.13.13,0,0,1,60.23,302.68Zm17,12.47A16,16,0,0,0,76,311.23h0a15.21,15.21,0,0,1,1.21,3.92,16.94,16.94,0,0,1-.7,9,12.38,12.38,0,0,1-1.9,3.95c-.2.26-.41.52-.62.75a9.25,9.25,0,0,0,.63-.75,12.28,12.28,0,0,0,1.91-3.94l.26.06-.25-.09A17.2,17.2,0,0,0,77.18,315.15Zm12.51-45.83c-3.44.82-4.69,2.38-4.6,5.81,0,.53,0,1.06,0,1.59h0c0-.53,0-1.06,0-1.6-.09-3.36,1.2-5,4.59-5.8a4,4,0,0,0,.49-.17Zm2.38,39.51-.12-.27h0l.12.27a74.09,74.09,0,0,0,4.61,8.43A74.79,74.79,0,0,1,92.07,308.83Zm45.14-12-.24-.22c-1.54-1.37-3.14-2.79-4.8-4.05l-.08,0a44.1,44.1,0,0,0-13.26-7.2,31.74,31.74,0,0,1-13.58-8.28c-3.83-3.84-7.21-6-11-7a15.38,15.38,0,0,0-2.43-.39c-.37,0-.75-.08-1.14-.14l-.18.06a4.06,4.06,0,0,1-.59.19c-3.17.77-4.27,2.15-4.19,5.29q0,1.2-.06,2.4l7,8.51.74.9,10.95,13.33a37.08,37.08,0,0,1-6.11,4.86c-.3.19-.61.39-.92.57-1.27.79-2.63,1.54-4.06,2.27l-.83.4c0,.1.09.19.13.29A73.82,73.82,0,0,0,97.16,317c1.66,2.7,3,3.08,6.45,1.78a79.1,79.1,0,0,0,14.94-7.33,27.85,27.85,0,0,1,11.55-4.19,15.27,15.27,0,0,0,5.88-1.87c2.17-1.32,3.13-2.85,3-4.81A5.28,5.28,0,0,0,137.21,296.86Zm-58-98.07a8,8,0,0,0-.2,1.09h0a9.6,9.6,0,0,1,.2-1.07l.13-.46C79.29,198.51,79.25,198.66,79.21,198.79Zm-19,103.89a18.48,18.48,0,0,1-1.81-1.22c-1.59-1.23-2.64-2.6-7.35-12.17l-.78-1.54-.31-.63c.08.19.18.39.28.59L51,289.3c4.71,9.59,5.71,10.89,7.34,12.16a20.36,20.36,0,0,0,1.9,1.28A.13.13,0,0,1,60.23,302.68Zm17,12.47A16,16,0,0,0,76,311.23h0a15.21,15.21,0,0,1,1.21,3.92,16.94,16.94,0,0,1-.7,9,12.38,12.38,0,0,1-1.9,3.95c-.2.26-.41.52-.62.75a9.25,9.25,0,0,0,.63-.75,12.28,12.28,0,0,0,1.91-3.94l.26.06-.25-.09A17.2,17.2,0,0,0,77.18,315.15Zm12.51-45.83c-3.44.82-4.69,2.38-4.6,5.81,0,.53,0,1.06,0,1.59h0c0-.53,0-1.06,0-1.6-.09-3.36,1.2-5,4.59-5.8a4,4,0,0,0,.49-.17Zm2.38,39.51-.12-.27h0l.12.27a74.09,74.09,0,0,0,4.61,8.43A74.79,74.79,0,0,1,92.07,308.83Zm45.14-12-.24-.22c-1.54-1.37-3.14-2.79-4.8-4.05l-.08,0a44.1,44.1,0,0,0-13.26-7.2,31.74,31.74,0,0,1-13.58-8.28c-3.83-3.84-7.21-6-11-7a15.38,15.38,0,0,0-2.43-.39c-.37,0-.75-.08-1.14-.14l-.18.06a4.06,4.06,0,0,1-.59.19c-3.17.77-4.27,2.15-4.19,5.29q0,1.2-.06,2.4l7,8.51.74.9,10.95,13.33a37.08,37.08,0,0,1-6.11,4.86c-.3.19-.61.39-.92.57-1.27.79-2.63,1.54-4.06,2.27l-.83.4c0,.1.09.19.13.29A73.82,73.82,0,0,0,97.16,317c1.66,2.7,3,3.08,6.45,1.78a79.1,79.1,0,0,0,14.94-7.33,27.85,27.85,0,0,1,11.55-4.19,15.27,15.27,0,0,0,5.88-1.87c2.17-1.32,3.13-2.85,3-4.81A5.28,5.28,0,0,0,137.21,296.86Zm-58-98.07a8,8,0,0,0-.2,1.09h0a9.6,9.6,0,0,1,.2-1.07l.13-.46C79.29,198.51,79.25,198.66,79.21,198.79Zm-19,103.89a18.48,18.48,0,0,1-1.81-1.22c-1.59-1.23-2.64-2.6-7.35-12.17l-.78-1.54-.31-.63c.08.19.18.39.28.59L51,289.3c4.71,9.59,5.71,10.89,7.34,12.16a20.36,20.36,0,0,0,1.9,1.28A.13.13,0,0,1,60.23,302.68Zm17,12.47A16,16,0,0,0,76,311.23h0a15.21,15.21,0,0,1,1.21,3.92,16.94,16.94,0,0,1-.7,9,12.38,12.38,0,0,1-1.9,3.95c-.2.26-.41.52-.62.75a9.25,9.25,0,0,0,.63-.75,12.28,12.28,0,0,0,1.91-3.94l.26.06-.25-.09A17.2,17.2,0,0,0,77.18,315.15Zm12.51-45.83c-3.44.82-4.69,2.38-4.6,5.81,0,.53,0,1.06,0,1.59h0c0-.53,0-1.06,0-1.6-.09-3.36,1.2-5,4.59-5.8a4,4,0,0,0,.49-.17Zm2.38,39.51-.12-.27h0l.12.27a74.09,74.09,0,0,0,4.61,8.43A74.79,74.79,0,0,1,92.07,308.83Zm45.14-12-.24-.22c-1.54-1.37-3.14-2.79-4.8-4.05l-.08,0a44.1,44.1,0,0,0-13.26-7.2,31.74,31.74,0,0,1-13.58-8.28c-3.83-3.84-7.21-6-11-7a15.38,15.38,0,0,0-2.43-.39c-.37,0-.75-.08-1.14-.14l-.18.06a4.06,4.06,0,0,1-.59.19c-3.17.77-4.27,2.15-4.19,5.29q0,1.2-.06,2.4l7,8.51.74.9,10.95,13.33a37.08,37.08,0,0,1-6.11,4.86c-.3.19-.61.39-.92.57-1.27.79-2.63,1.54-4.06,2.27l-.83.4c0,.1.09.19.13.29A73.82,73.82,0,0,0,97.16,317c1.66,2.7,3,3.08,6.45,1.78a79.1,79.1,0,0,0,14.94-7.33,27.85,27.85,0,0,1,11.55-4.19,15.27,15.27,0,0,0,5.88-1.87c2.17-1.32,3.13-2.85,3-4.81A5.28,5.28,0,0,0,137.21,296.86Zm-58-98.07a8,8,0,0,0-.2,1.09h0a9.6,9.6,0,0,1,.2-1.07l.13-.46C79.29,198.51,79.25,198.66,79.21,198.79Zm-19,103.89a18.48,18.48,0,0,1-1.81-1.22c-1.59-1.23-2.64-2.6-7.35-12.17l-.78-1.54-.31-.63c.08.19.18.39.28.59L51,289.3c4.71,9.59,5.71,10.89,7.34,12.16a20.36,20.36,0,0,0,1.9,1.28A.13.13,0,0,1,60.23,302.68Zm17,12.47A16,16,0,0,0,76,311.23h0a15.21,15.21,0,0,1,1.21,3.92,16.94,16.94,0,0,1-.7,9,12.38,12.38,0,0,1-1.9,3.95c-.2.26-.41.52-.62.75a9.25,9.25,0,0,0,.63-.75,12.28,12.28,0,0,0,1.91-3.94l.26.06-.25-.09A17.2,17.2,0,0,0,77.18,315.15Zm12.51-45.83c-3.44.82-4.69,2.38-4.6,5.81,0,.53,0,1.06,0,1.59h0c0-.53,0-1.06,0-1.6-.09-3.36,1.2-5,4.59-5.8a4,4,0,0,0,.49-.17Zm2.38,39.51-.12-.27h0l.12.27a74.09,74.09,0,0,0,4.61,8.43A74.79,74.79,0,0,1,92.07,308.83Zm45.14-12-.24-.22c-1.54-1.37-3.14-2.79-4.8-4.05l-.08,0a44.1,44.1,0,0,0-13.26-7.2,31.74,31.74,0,0,1-13.58-8.28c-3.83-3.84-7.21-6-11-7a15.38,15.38,0,0,0-2.43-.39c-.37,0-.75-.08-1.14-.14l-.18.06a4.06,4.06,0,0,1-.59.19c-3.17.77-4.27,2.15-4.19,5.29q0,1.2-.06,2.4l7,8.51.74.9,10.95,13.33a37.08,37.08,0,0,1-6.11,4.86c-.3.19-.61.39-.92.57-1.27.79-2.63,1.54-4.06,2.27l-.83.4c0,.1.09.19.13.29A73.82,73.82,0,0,0,97.16,317c1.66,2.7,3,3.08,6.45,1.78a79.1,79.1,0,0,0,14.94-7.33,27.85,27.85,0,0,1,11.55-4.19,15.27,15.27,0,0,0,5.88-1.87c2.17-1.32,3.13-2.85,3-4.81A5.28,5.28,0,0,0,137.21,296.86Zm-58-98.07a8,8,0,0,0-.2,1.09h0a9.6,9.6,0,0,1,.2-1.07l.13-.46C79.29,198.51,79.25,198.66,79.21,198.79Zm-19,103.89a18.48,18.48,0,0,1-1.81-1.22c-1.59-1.23-2.64-2.6-7.35-12.17l-.78-1.54-.31-.63c.08.19.18.39.28.59L51,289.3c4.71,9.59,5.71,10.89,7.34,12.16a20.36,20.36,0,0,0,1.9,1.28A.13.13,0,0,1,60.23,302.68Zm17,12.47A16,16,0,0,0,76,311.23h0a15.21,15.21,0,0,1,1.21,3.92,16.94,16.94,0,0,1-.7,9,12.38,12.38,0,0,1-1.9,3.95c-.2.26-.41.52-.62.75a9.25,9.25,0,0,0,.63-.75,12.28,12.28,0,0,0,1.91-3.94l.26.06-.25-.09A17.2,17.2,0,0,0,77.18,315.15Zm12.51-45.83c-3.44.82-4.69,2.38-4.6,5.81,0,.53,0,1.06,0,1.59h0c0-.53,0-1.06,0-1.6-.09-3.36,1.2-5,4.59-5.8a4,4,0,0,0,.49-.17Zm2.38,39.51-.12-.27h0l.12.27a74.09,74.09,0,0,0,4.61,8.43A74.79,74.79,0,0,1,92.07,308.83Zm45.14-12-.24-.22c-1.54-1.37-3.14-2.79-4.8-4.05l-.08,0a44.1,44.1,0,0,0-13.26-7.2,31.74,31.74,0,0,1-13.58-8.28c-3.83-3.84-7.21-6-11-7a15.38,15.38,0,0,0-2.43-.39c-.37,0-.75-.08-1.14-.14l-.18.06a4.06,4.06,0,0,1-.59.19c-3.17.77-4.27,2.15-4.19,5.29q0,1.2-.06,2.4l7,8.51.74.9,10.95,13.33a37.08,37.08,0,0,1-6.11,4.86c-.3.19-.61.39-.92.57-1.27.79-2.63,1.54-4.06,2.27l-.83.4c0,.1.09.19.13.29A73.82,73.82,0,0,0,97.16,317c1.66,2.7,3,3.08,6.45,1.78a79.1,79.1,0,0,0,14.94-7.33,27.85,27.85,0,0,1,11.55-4.19,15.27,15.27,0,0,0,5.88-1.87c2.17-1.32,3.13-2.85,3-4.81A5.28,5.28,0,0,0,137.21,296.86Zm-58-98.07a8,8,0,0,0-.2,1.09h0a9.6,9.6,0,0,1,.2-1.07l.13-.46C79.29,198.51,79.25,198.66,79.21,198.79Zm-19,103.89a18.48,18.48,0,0,1-1.81-1.22c-1.59-1.23-2.64-2.6-7.35-12.17l-.78-1.54-.31-.63c.08.19.18.39.28.59L51,289.3c4.71,9.59,5.71,10.89,7.34,12.16a20.36,20.36,0,0,0,1.9,1.28A.13.13,0,0,1,60.23,302.68Zm17,12.47A16,16,0,0,0,76,311.23h0a15.21,15.21,0,0,1,1.21,3.92,16.94,16.94,0,0,1-.7,9,12.38,12.38,0,0,1-1.9,3.95c-.2.26-.41.52-.62.75a9.25,9.25,0,0,0,.63-.75,12.28,12.28,0,0,0,1.91-3.94l.26.06-.25-.09A17.2,17.2,0,0,0,77.18,315.15Zm12.51-45.83c-3.44.82-4.69,2.38-4.6,5.81,0,.53,0,1.06,0,1.59h0c0-.53,0-1.06,0-1.6-.09-3.36,1.2-5,4.59-5.8a4,4,0,0,0,.49-.17Zm2.38,39.51-.12-.27h0l.12.27a74.09,74.09,0,0,0,4.61,8.43A74.79,74.79,0,0,1,92.07,308.83Zm45.14-12-.24-.22c-1.54-1.37-3.14-2.79-4.8-4.05l-.08,0a44.1,44.1,0,0,0-13.26-7.2,31.74,31.74,0,0,1-13.58-8.28c-3.83-3.84-7.21-6-11-7a15.38,15.38,0,0,0-2.43-.39c-.37,0-.75-.08-1.14-.14l-.18.06a4.06,4.06,0,0,1-.59.19c-3.17.77-4.27,2.15-4.19,5.29q0,1.2-.06,2.4l7,8.51.74.9,10.95,13.33a37.08,37.08,0,0,1-6.11,4.86c-.3.19-.61.39-.92.57-1.27.79-2.63,1.54-4.06,2.27l-.83.4c0,.1.09.19.13.29A73.82,73.82,0,0,0,97.16,317c1.66,2.7,3,3.08,6.45,1.78a79.1,79.1,0,0,0,14.94-7.33,27.85,27.85,0,0,1,11.55-4.19,15.27,15.27,0,0,0,5.88-1.87c2.17-1.32,3.13-2.85,3-4.81A5.28,5.28,0,0,0,137.21,296.86Zm-58-98.07a8,8,0,0,0-.2,1.09h0a9.6,9.6,0,0,1,.2-1.07l.13-.46C79.29,198.51,79.25,198.66,79.21,198.79Zm-19,103.89a18.48,18.48,0,0,1-1.81-1.22c-1.59-1.23-2.64-2.6-7.35-12.17l-.78-1.54-.31-.63c.08.19.18.39.28.59L51,289.3c4.71,9.59,5.71,10.89,7.34,12.16a20.36,20.36,0,0,0,1.9,1.28A.13.13,0,0,1,60.23,302.68Zm17,12.47A16,16,0,0,0,76,311.23h0a15.21,15.21,0,0,1,1.21,3.92,16.94,16.94,0,0,1-.7,9,12.38,12.38,0,0,1-1.9,3.95c-.2.26-.41.52-.62.75a9.25,9.25,0,0,0,.63-.75,12.28,12.28,0,0,0,1.91-3.94l.26.06-.25-.09A17.2,17.2,0,0,0,77.18,315.15Zm12.51-45.83c-3.44.82-4.69,2.38-4.6,5.81,0,.53,0,1.06,0,1.59h0c0-.53,0-1.06,0-1.6-.09-3.36,1.2-5,4.59-5.8a4,4,0,0,0,.49-.17Zm2.38,39.51-.12-.27h0l.12.27a74.09,74.09,0,0,0,4.61,8.43A74.79,74.79,0,0,1,92.07,308.83Zm45.14-12-.24-.22c-1.54-1.37-3.14-2.79-4.8-4.05l-.08,0a44.1,44.1,0,0,0-13.26-7.2,31.74,31.74,0,0,1-13.58-8.28c-3.83-3.84-7.21-6-11-7a15.38,15.38,0,0,0-2.43-.39c-.37,0-.75-.08-1.14-.14l-.18.06a4.06,4.06,0,0,1-.59.19c-3.17.77-4.27,2.15-4.19,5.29q0,1.2-.06,2.4l7,8.51.74.9,10.95,13.33a37.08,37.08,0,0,1-6.11,4.86c-.3.19-.61.39-.92.57-1.27.79-2.63,1.54-4.06,2.27l-.83.4c0,.1.09.19.13.29A73.82,73.82,0,0,0,97.16,317c1.66,2.7,3,3.08,6.45,1.78a79.1,79.1,0,0,0,14.94-7.33,27.85,27.85,0,0,1,11.55-4.19,15.27,15.27,0,0,0,5.88-1.87c2.17-1.32,3.13-2.85,3-4.81A5.28,5.28,0,0,0,137.21,296.86Zm-58-98.07a8,8,0,0,0-.2,1.09h0a9.6,9.6,0,0,1,.2-1.07l.13-.46C79.29,198.51,79.25,198.66,79.21,198.79Zm-19,103.89a18.48,18.48,0,0,1-1.81-1.22c-1.59-1.23-2.64-2.6-7.35-12.17l-.78-1.54-.31-.63c.08.19.18.39.28.59L51,289.3c4.71,9.59,5.71,10.89,7.34,12.16a20.36,20.36,0,0,0,1.9,1.28A.13.13,0,0,1,60.23,302.68Zm17,12.47A16,16,0,0,0,76,311.23h0a15.21,15.21,0,0,1,1.21,3.92,16.94,16.94,0,0,1-.7,9,12.38,12.38,0,0,1-1.9,3.95c-.2.26-.41.52-.62.75a9.25,9.25,0,0,0,.63-.75,12.28,12.28,0,0,0,1.91-3.94l.26.06-.25-.09A17.2,17.2,0,0,0,77.18,315.15Zm12.51-45.83c-3.44.82-4.69,2.38-4.6,5.81,0,.53,0,1.06,0,1.59h0c0-.53,0-1.06,0-1.6-.09-3.36,1.2-5,4.59-5.8a4,4,0,0,0,.49-.17Zm2.38,39.51-.12-.27h0l.12.27a74.09,74.09,0,0,0,4.61,8.43A74.79,74.79,0,0,1,92.07,308.83Zm45.14-12-.24-.22c-1.54-1.37-3.14-2.79-4.8-4.05l-.08,0a44.1,44.1,0,0,0-13.26-7.2,31.74,31.74,0,0,1-13.58-8.28c-3.83-3.84-7.21-6-11-7a15.38,15.38,0,0,0-2.43-.39c-.37,0-.75-.08-1.14-.14l-.18.06a4.06,4.06,0,0,1-.59.19c-3.17.77-4.27,2.15-4.19,5.29q0,1.2-.06,2.4l7,8.51.74.9,10.95,13.33a37.08,37.08,0,0,1-6.11,4.86c-.3.19-.61.39-.92.57-1.27.79-2.63,1.54-4.06,2.27l-.83.4c0,.1.09.19.13.29A73.82,73.82,0,0,0,97.16,317c1.66,2.7,3,3.08,6.45,1.78a79.1,79.1,0,0,0,14.94-7.33,27.85,27.85,0,0,1,11.55-4.19,15.27,15.27,0,0,0,5.88-1.87c2.17-1.32,3.13-2.85,3-4.81A5.28,5.28,0,0,0,137.21,296.86Zm-58-98.07a8,8,0,0,0-.2,1.09h0a9.6,9.6,0,0,1,.2-1.07l.13-.46C79.29,198.51,79.25,198.66,79.21,198.79Zm-19,103.89a18.48,18.48,0,0,1-1.81-1.22c-1.59-1.23-2.64-2.6-7.35-12.17l-.78-1.54-.31-.63c.08.19.18.39.28.59L51,289.3c4.71,9.59,5.71,10.89,7.34,12.16a20.36,20.36,0,0,0,1.9,1.28A.13.13,0,0,1,60.23,302.68Zm17,12.47A16,16,0,0,0,76,311.23h0a15.21,15.21,0,0,1,1.21,3.92,16.94,16.94,0,0,1-.7,9,12.38,12.38,0,0,1-1.9,3.95c-.2.26-.41.52-.62.75a9.25,9.25,0,0,0,.63-.75,12.28,12.28,0,0,0,1.91-3.94l.26.06-.25-.09A17.2,17.2,0,0,0,77.18,315.15Zm12.51-45.83c-3.44.82-4.69,2.38-4.6,5.81,0,.53,0,1.06,0,1.59h0c0-.53,0-1.06,0-1.6-.09-3.36,1.2-5,4.59-5.8a4,4,0,0,0,.49-.17Zm2.38,39.51-.12-.27h0l.12.27a74.09,74.09,0,0,0,4.61,8.43A74.79,74.79,0,0,1,92.07,308.83Zm45.14-12-.24-.22c-1.54-1.37-3.14-2.79-4.8-4.05l-.08,0a44.1,44.1,0,0,0-13.26-7.2,31.74,31.74,0,0,1-13.58-8.28c-3.83-3.84-7.21-6-11-7a15.38,15.38,0,0,0-2.43-.39c-.37,0-.75-.08-1.14-.14l-.18.06a4.06,4.06,0,0,1-.59.19c-3.17.77-4.27,2.15-4.19,5.29q0,1.2-.06,2.4l7,8.51.74.9,10.95,13.33a37.08,37.08,0,0,1-6.11,4.86c-.3.19-.61.39-.92.57-1.27.79-2.63,1.54-4.06,2.27l-.83.4c0,.1.09.19.13.29A73.82,73.82,0,0,0,97.16,317c1.66,2.7,3,3.08,6.45,1.78a79.1,79.1,0,0,0,14.94-7.33,27.85,27.85,0,0,1,11.55-4.19,15.27,15.27,0,0,0,5.88-1.87c2.17-1.32,3.13-2.85,3-4.81A5.28,5.28,0,0,0,137.21,296.86Zm-58-98.07a8,8,0,0,0-.2,1.09h0a9.6,9.6,0,0,1,.2-1.07l.13-.46C79.29,198.51,79.25,198.66,79.21,198.79Zm-19,103.89a18.48,18.48,0,0,1-1.81-1.22c-1.59-1.23-2.64-2.6-7.35-12.17l-.78-1.54-.31-.63c.08.19.18.39.28.59L51,289.3c4.71,9.59,5.71,10.89,7.34,12.16a20.36,20.36,0,0,0,1.9,1.28A.13.13,0,0,1,60.23,302.68Zm17,12.47A16,16,0,0,0,76,311.23h0a15.21,15.21,0,0,1,1.21,3.92,16.94,16.94,0,0,1-.7,9,12.38,12.38,0,0,1-1.9,3.95c-.2.26-.41.52-.62.75a9.25,9.25,0,0,0,.63-.75,12.28,12.28,0,0,0,1.91-3.94l.26.06-.25-.09A17.2,17.2,0,0,0,77.18,315.15Zm12.51-45.83c-3.44.82-4.69,2.38-4.6,5.81,0,.53,0,1.06,0,1.59h0c0-.53,0-1.06,0-1.6-.09-3.36,1.2-5,4.59-5.8a4,4,0,0,0,.49-.17Zm2.38,39.51-.12-.27h0l.12.27a74.09,74.09,0,0,0,4.61,8.43A74.79,74.79,0,0,1,92.07,308.83Zm45.14-12-.24-.22c-1.54-1.37-3.14-2.79-4.8-4.05l-.08,0a44.1,44.1,0,0,0-13.26-7.2,31.74,31.74,0,0,1-13.58-8.28c-3.83-3.84-7.21-6-11-7a15.38,15.38,0,0,0-2.43-.39c-.37,0-.75-.08-1.14-.14l-.18.06a4.06,4.06,0,0,1-.59.19c-3.17.77-4.27,2.15-4.19,5.29q0,1.2-.06,2.4l7,8.51.74.9,10.95,13.33a37.08,37.08,0,0,1-6.11,4.86c-.3.19-.61.39-.92.57-1.27.79-2.63,1.54-4.06,2.27l-.83.4c0,.1.09.19.13.29A73.82,73.82,0,0,0,97.16,317c1.66,2.7,3,3.08,6.45,1.78a79.1,79.1,0,0,0,14.94-7.33,27.85,27.85,0,0,1,11.55-4.19,15.27,15.27,0,0,0,5.88-1.87c2.17-1.32,3.13-2.85,3-4.81A5.28,5.28,0,0,0,137.21,296.86Zm-58-98.07a8,8,0,0,0-.2,1.09h0a9.6,9.6,0,0,1,.2-1.07l.13-.46C79.29,198.51,79.25,198.66,79.21,198.79Zm-19,103.89a18.48,18.48,0,0,1-1.81-1.22c-1.59-1.23-2.64-2.6-7.35-12.17l-.78-1.54-.31-.63c.08.19.18.39.28.59L51,289.3c4.71,9.59,5.71,10.89,7.34,12.16a20.36,20.36,0,0,0,1.9,1.28A.13.13,0,0,1,60.23,302.68Zm17,12.47A16,16,0,0,0,76,311.23h0a15.21,15.21,0,0,1,1.21,3.92,16.94,16.94,0,0,1-.7,9,12.38,12.38,0,0,1-1.9,3.95c-.2.26-.41.52-.62.75a9.25,9.25,0,0,0,.63-.75,12.28,12.28,0,0,0,1.91-3.94l.26.06-.25-.09A17.2,17.2,0,0,0,77.18,315.15Zm12.51-45.83c-3.44.82-4.69,2.38-4.6,5.81,0,.53,0,1.06,0,1.59h0c0-.53,0-1.06,0-1.6-.09-3.36,1.2-5,4.59-5.8a4,4,0,0,0,.49-.17Zm2.38,39.51-.12-.27h0l.12.27a74.09,74.09,0,0,0,4.61,8.43A74.79,74.79,0,0,1,92.07,308.83Zm45.14-12-.24-.22c-1.54-1.37-3.14-2.79-4.8-4.05l-.08,0a44.1,44.1,0,0,0-13.26-7.2,31.74,31.74,0,0,1-13.58-8.28c-3.83-3.84-7.21-6-11-7a15.38,15.38,0,0,0-2.43-.39c-.37,0-.75-.08-1.14-.14l-.18.06a4.06,4.06,0,0,1-.59.19c-3.17.77-4.27,2.15-4.19,5.29q0,1.2-.06,2.4l7,8.51.74.9,10.95,13.33a37.08,37.08,0,0,1-6.11,4.86c-.3.19-.61.39-.92.57-1.27.79-2.63,1.54-4.06,2.27l-.83.4c0,.1.09.19.13.29A73.82,73.82,0,0,0,97.16,317c1.66,2.7,3,3.08,6.45,1.78a79.1,79.1,0,0,0,14.94-7.33,27.85,27.85,0,0,1,11.55-4.19,15.27,15.27,0,0,0,5.88-1.87c2.17-1.32,3.13-2.85,3-4.81A5.28,5.28,0,0,0,137.21,296.86Zm-58-98.07a8,8,0,0,0-.2,1.09h0a9.6,9.6,0,0,1,.2-1.07l.13-.46C79.29,198.51,79.25,198.66,79.21,198.79Zm-19,103.89a18.48,18.48,0,0,1-1.81-1.22c-1.59-1.23-2.64-2.6-7.35-12.17l-.78-1.54-.31-.63c.08.19.18.39.28.59L51,289.3c4.71,9.59,5.71,10.89,7.34,12.16a20.36,20.36,0,0,0,1.9,1.28A.13.13,0,0,1,60.23,302.68Zm17,12.47A16,16,0,0,0,76,311.23h0a15.21,15.21,0,0,1,1.21,3.92,16.94,16.94,0,0,1-.7,9,12.38,12.38,0,0,1-1.9,3.95c-.2.26-.41.52-.62.75a9.25,9.25,0,0,0,.63-.75,12.28,12.28,0,0,0,1.91-3.94l.26.06-.25-.09A17.2,17.2,0,0,0,77.18,315.15Zm12.51-45.83c-3.44.82-4.69,2.38-4.6,5.81,0,.53,0,1.06,0,1.59h0c0-.53,0-1.06,0-1.6-.09-3.36,1.2-5,4.59-5.8a4,4,0,0,0,.49-.17Zm2.38,39.51-.12-.27h0l.12.27a74.09,74.09,0,0,0,4.61,8.43A74.79,74.79,0,0,1,92.07,308.83Zm45.14-12-.24-.22c-1.54-1.37-3.14-2.79-4.8-4.05l-.08,0a44.1,44.1,0,0,0-13.26-7.2,31.74,31.74,0,0,1-13.58-8.28c-3.83-3.84-7.21-6-11-7a15.38,15.38,0,0,0-2.43-.39c-.37,0-.75-.08-1.14-.14l-.18.06a4.06,4.06,0,0,1-.59.19c-3.17.77-4.27,2.15-4.19,5.29q0,1.2-.06,2.4l7,8.51.74.9,10.95,13.33a37.08,37.08,0,0,1-6.11,4.86c-.3.19-.61.39-.92.57-1.27.79-2.63,1.54-4.06,2.27l-.83.4c0,.1.09.19.13.29A73.82,73.82,0,0,0,97.16,317c1.66,2.7,3,3.08,6.45,1.78a79.1,79.1,0,0,0,14.94-7.33,27.85,27.85,0,0,1,11.55-4.19,15.27,15.27,0,0,0,5.88-1.87c2.17-1.32,3.13-2.85,3-4.81A5.28,5.28,0,0,0,137.21,296.86Zm-58-98.07a8,8,0,0,0-.2,1.09h0a9.6,9.6,0,0,1,.2-1.07l.13-.46C79.29,198.51,79.25,198.66,79.21,198.79Zm-19,103.89a18.48,18.48,0,0,1-1.81-1.22c-1.59-1.23-2.64-2.6-7.35-12.17l-.78-1.54-.31-.63c.08.19.18.39.28.59L51,289.3c4.71,9.59,5.71,10.89,7.34,12.16a20.36,20.36,0,0,0,1.9,1.28A.13.13,0,0,1,60.23,302.68Zm17,12.47A16,16,0,0,0,76,311.23h0a15.21,15.21,0,0,1,1.21,3.92,16.94,16.94,0,0,1-.7,9,12.38,12.38,0,0,1-1.9,3.95c-.2.26-.41.52-.62.75a9.25,9.25,0,0,0,.63-.75,12.28,12.28,0,0,0,1.91-3.94l.26.06-.25-.09A17.2,17.2,0,0,0,77.18,315.15Zm12.51-45.83c-3.44.82-4.69,2.38-4.6,5.81,0,.53,0,1.06,0,1.59h0c0-.53,0-1.06,0-1.6-.09-3.36,1.2-5,4.59-5.8a4,4,0,0,0,.49-.17Zm2.38,39.51-.12-.27h0l.12.27a74.09,74.09,0,0,0,4.61,8.43A74.79,74.79,0,0,1,92.07,308.83Zm45.14-12-.24-.22c-1.54-1.37-3.14-2.79-4.8-4.05l-.08,0a44.1,44.1,0,0,0-13.26-7.2,31.74,31.74,0,0,1-13.58-8.28c-3.83-3.84-7.21-6-11-7a15.38,15.38,0,0,0-2.43-.39c-.37,0-.75-.08-1.14-.14l-.18.06a4.06,4.06,0,0,1-.59.19c-3.17.77-4.27,2.15-4.19,5.29q0,1.2-.06,2.4l7,8.51.74.9,10.95,13.33a37.08,37.08,0,0,1-6.11,4.86c-.3.19-.61.39-.92.57-1.27.79-2.63,1.54-4.06,2.27l-.83.4c0,.1.09.19.13.29A73.82,73.82,0,0,0,97.16,317c1.66,2.7,3,3.08,6.45,1.78a79.1,79.1,0,0,0,14.94-7.33,27.85,27.85,0,0,1,11.55-4.19,15.27,15.27,0,0,0,5.88-1.87c2.17-1.32,3.13-2.85,3-4.81A5.28,5.28,0,0,0,137.21,296.86Zm-58-98.07a8,8,0,0,0-.2,1.09h0a9.6,9.6,0,0,1,.2-1.07l.13-.46C79.29,198.51,79.25,198.66,79.21,198.79Zm-19,103.89a18.48,18.48,0,0,1-1.81-1.22c-1.59-1.23-2.64-2.6-7.35-12.17l-.78-1.54-.31-.63c.08.19.18.39.28.59L51,289.3c4.71,9.59,5.71,10.89,7.34,12.16a20.36,20.36,0,0,0,1.9,1.28A.13.13,0,0,1,60.23,302.68Zm17,12.47A16,16,0,0,0,76,311.23h0a15.21,15.21,0,0,1,1.21,3.92,16.94,16.94,0,0,1-.7,9,12.38,12.38,0,0,1-1.9,3.95c-.2.26-.41.52-.62.75a9.25,9.25,0,0,0,.63-.75,12.28,12.28,0,0,0,1.91-3.94l.26.06-.25-.09A17.2,17.2,0,0,0,77.18,315.15Zm12.51-45.83c-3.44.82-4.69,2.38-4.6,5.81,0,.53,0,1.06,0,1.59h0c0-.53,0-1.06,0-1.6-.09-3.36,1.2-5,4.59-5.8a4,4,0,0,0,.49-.17Zm2.38,39.51-.12-.27h0l.12.27a74.09,74.09,0,0,0,4.61,8.43A74.79,74.79,0,0,1,92.07,308.83Zm45.14-12-.24-.22c-1.54-1.37-3.14-2.79-4.8-4.05l-.08,0a44.1,44.1,0,0,0-13.26-7.2,31.74,31.74,0,0,1-13.58-8.28c-3.83-3.84-7.21-6-11-7a15.38,15.38,0,0,0-2.43-.39c-.37,0-.75-.08-1.14-.14l-.18.06a4.06,4.06,0,0,1-.59.19c-3.17.77-4.27,2.15-4.19,5.29q0,1.2-.06,2.4l7,8.51.74.9,10.95,13.33a37.08,37.08,0,0,1-6.11,4.86c-.3.19-.61.39-.92.57-1.27.79-2.63,1.54-4.06,2.27l-.83.4c0,.1.09.19.13.29A73.82,73.82,0,0,0,97.16,317c1.66,2.7,3,3.08,6.45,1.78a79.1,79.1,0,0,0,14.94-7.33,27.85,27.85,0,0,1,11.55-4.19,15.27,15.27,0,0,0,5.88-1.87c2.17-1.32,3.13-2.85,3-4.81A5.28,5.28,0,0,0,137.21,296.86Zm-58-98.07a8,8,0,0,0-.2,1.09h0a9.6,9.6,0,0,1,.2-1.07l.13-.46C79.29,198.51,79.25,198.66,79.21,198.79Zm-19,103.89a18.48,18.48,0,0,1-1.81-1.22c-1.59-1.23-2.64-2.6-7.35-12.17l-.78-1.54-.31-.63c.08.19.18.39.28.59L51,289.3c4.71,9.59,5.71,10.89,7.34,12.16a20.36,20.36,0,0,0,1.9,1.28A.13.13,0,0,1,60.23,302.68Zm17,12.47A16,16,0,0,0,76,311.23h0a15.21,15.21,0,0,1,1.21,3.92,16.94,16.94,0,0,1-.7,9,12.38,12.38,0,0,1-1.9,3.95c-.2.26-.41.52-.62.75a9.25,9.25,0,0,0,.63-.75,12.28,12.28,0,0,0,1.91-3.94l.26.06-.25-.09A17.2,17.2,0,0,0,77.18,315.15Zm12.51-45.83c-3.44.82-4.69,2.38-4.6,5.81,0,.53,0,1.06,0,1.59h0c0-.53,0-1.06,0-1.6-.09-3.36,1.2-5,4.59-5.8a4,4,0,0,0,.49-.17Zm2.38,39.51-.12-.27h0l.12.27a74.09,74.09,0,0,0,4.61,8.43A74.79,74.79,0,0,1,92.07,308.83ZM96,333.67a9.26,9.26,0,0,1-4.76-2c-2.28-1.83-2.77-4.37-3-6.84-.07-1-.12-2-.22-2.95v-.11c0-1.63-.13-3.32-.33-4.95a39.49,39.49,0,0,0-1.37-6.37,31,31,0,0,1-4.08.7c.22.76.36,1.41.47,1.88a28.91,28.91,0,0,1,.48,7.92c-.06,1-.18,2.33-.18,2.33v.09s-.27,1.89-.42,3.8c-.34,4.43-.17,5.24.13,6a7.35,7.35,0,0,0,3.13,3.34,59.48,59.48,0,0,0,12.07-2.7A16,16,0,0,1,96,333.67Zm41.25-36.81-.24-.22c-1.54-1.37-3.14-2.79-4.8-4.05l-.08,0a44.1,44.1,0,0,0-13.26-7.2,31.74,31.74,0,0,1-13.58-8.28c-3.83-3.84-7.21-6-11-7a15.38,15.38,0,0,0-2.43-.39c-.37,0-.75-.08-1.14-.14l-.18.06a4.06,4.06,0,0,1-.59.19c-3.17.77-4.27,2.15-4.19,5.29q0,1.2-.06,2.4l7,8.51.74.9,10.95,13.33a37.08,37.08,0,0,1-6.11,4.86c-.3.19-.61.39-.92.57-1.27.79-2.63,1.54-4.06,2.27l-.83.4c0,.1.09.19.13.29A73.82,73.82,0,0,0,97.16,317c1.66,2.7,3,3.08,6.45,1.78a79.1,79.1,0,0,0,14.94-7.33,27.85,27.85,0,0,1,11.55-4.19,15.27,15.27,0,0,0,5.88-1.87c2.17-1.32,3.13-2.85,3-4.81A5.28,5.28,0,0,0,137.21,296.86Zm-58-98.07a8,8,0,0,0-.2,1.09h0a9.6,9.6,0,0,1,.2-1.07l.13-.46C79.29,198.51,79.25,198.66,79.21,198.79Zm-19,103.89a18.48,18.48,0,0,1-1.81-1.22c-1.59-1.23-2.64-2.6-7.35-12.17l-.78-1.54-.31-.63c.08.19.18.39.28.59L51,289.3c4.71,9.59,5.71,10.89,7.34,12.16a20.36,20.36,0,0,0,1.9,1.28A.13.13,0,0,1,60.23,302.68Zm17,12.47A16,16,0,0,0,76,311.23h0a15.21,15.21,0,0,1,1.21,3.92,16.94,16.94,0,0,1-.7,9,12.38,12.38,0,0,1-1.9,3.95c-.2.26-.41.52-.62.75a9.25,9.25,0,0,0,.63-.75,12.28,12.28,0,0,0,1.91-3.94l.26.06-.25-.09A17.2,17.2,0,0,0,77.18,315.15Zm12.51-45.83c-3.44.82-4.69,2.38-4.6,5.81,0,.53,0,1.06,0,1.59h0c0-.53,0-1.06,0-1.6-.09-3.36,1.2-5,4.59-5.8a4,4,0,0,0,.49-.17Zm2.38,39.51-.12-.27h0l.12.27a74.09,74.09,0,0,0,4.61,8.43A74.79,74.79,0,0,1,92.07,308.83ZM96,333.67a9.26,9.26,0,0,1-4.76-2c-2.28-1.83-2.77-4.37-3-6.84-.07-1-.12-2-.22-2.95v-.11c0-1.63-.13-3.32-.33-4.95a39.49,39.49,0,0,0-1.37-6.37,31,31,0,0,1-4.08.7c.22.76.36,1.41.47,1.88a28.91,28.91,0,0,1,.48,7.92c-.06,1-.18,2.33-.18,2.33v.09s-.27,1.89-.42,3.8c-.34,4.43-.17,5.24.13,6a7.35,7.35,0,0,0,3.13,3.34,59.48,59.48,0,0,0,12.07-2.7A16,16,0,0,1,96,333.67Zm41.25-36.81-.24-.22c-1.54-1.37-3.14-2.79-4.8-4.05l-.08,0a44.1,44.1,0,0,0-13.26-7.2,31.74,31.74,0,0,1-13.58-8.28c-3.83-3.84-7.21-6-11-7a15.38,15.38,0,0,0-2.43-.39c-.37,0-.75-.08-1.14-.14l-.18.06a4.06,4.06,0,0,1-.59.19c-3.17.77-4.27,2.15-4.19,5.29q0,1.2-.06,2.4l7,8.51.74.9,10.95,13.33a37.08,37.08,0,0,1-6.11,4.86c-.3.19-.61.39-.92.57-1.27.79-2.63,1.54-4.06,2.27l-.83.4c0,.1.09.19.13.29A73.82,73.82,0,0,0,97.16,317c1.66,2.7,3,3.08,6.45,1.78a79.1,79.1,0,0,0,14.94-7.33,27.85,27.85,0,0,1,11.55-4.19,15.27,15.27,0,0,0,5.88-1.87c2.17-1.32,3.13-2.85,3-4.81A5.28,5.28,0,0,0,137.21,296.86Zm-58-98.07a8,8,0,0,0-.2,1.09h0a9.6,9.6,0,0,1,.2-1.07l.13-.46C79.29,198.51,79.25,198.66,79.21,198.79Zm-19,103.89a18.48,18.48,0,0,1-1.81-1.22c-1.59-1.23-2.64-2.6-7.35-12.17l-.78-1.54-.31-.63c.08.19.18.39.28.59L51,289.3c4.71,9.59,5.71,10.89,7.34,12.16a20.36,20.36,0,0,0,1.9,1.28A.13.13,0,0,1,60.23,302.68Zm17,12.47A16,16,0,0,0,76,311.23h0a15.21,15.21,0,0,1,1.21,3.92,16.94,16.94,0,0,1-.7,9,12.38,12.38,0,0,1-1.9,3.95c-.2.26-.41.52-.62.75a9.25,9.25,0,0,0,.63-.75,12.28,12.28,0,0,0,1.91-3.94l.26.06-.25-.09A17.2,17.2,0,0,0,77.18,315.15Zm12.51-45.83c-3.44.82-4.69,2.38-4.6,5.81,0,.53,0,1.06,0,1.59h0c0-.53,0-1.06,0-1.6-.09-3.36,1.2-5,4.59-5.8a4,4,0,0,0,.49-.17Zm2.38,39.51-.12-.27h0l.12.27a74.09,74.09,0,0,0,4.61,8.43A74.79,74.79,0,0,1,92.07,308.83ZM96,333.67a9.26,9.26,0,0,1-4.76-2c-2.28-1.83-2.77-4.37-3-6.84-.07-1-.12-2-.22-2.95v-.11c0-1.63-.13-3.32-.33-4.95a39.49,39.49,0,0,0-1.37-6.37,31,31,0,0,1-4.08.7c.22.76.36,1.41.47,1.88a28.91,28.91,0,0,1,.48,7.92c-.06,1-.18,2.33-.18,2.33v.09s-.27,1.89-.42,3.8c-.34,4.43-.17,5.24.13,6a7.35,7.35,0,0,0,3.13,3.34,59.48,59.48,0,0,0,12.07-2.7A16,16,0,0,1,96,333.67Zm41.25-36.81-.24-.22c-1.54-1.37-3.14-2.79-4.8-4.05l-.08,0a44.1,44.1,0,0,0-13.26-7.2,31.74,31.74,0,0,1-13.58-8.28c-3.83-3.84-7.21-6-11-7a15.38,15.38,0,0,0-2.43-.39c-.37,0-.75-.08-1.14-.14l-.18.06a4.06,4.06,0,0,1-.59.19c-3.17.77-4.27,2.15-4.19,5.29q0,1.2-.06,2.4l7,8.51.74.9,10.95,13.33a37.08,37.08,0,0,1-6.11,4.86c-.3.19-.61.39-.92.57-1.27.79-2.63,1.54-4.06,2.27l-.83.4c0,.1.09.19.13.29A73.82,73.82,0,0,0,97.16,317c1.66,2.7,3,3.08,6.45,1.78a79.1,79.1,0,0,0,14.94-7.33,27.85,27.85,0,0,1,11.55-4.19,15.27,15.27,0,0,0,5.88-1.87c2.17-1.32,3.13-2.85,3-4.81A5.28,5.28,0,0,0,137.21,296.86ZM78,223.32l-1.05.77-1.37,1a7.69,7.69,0,0,0-1,.77c-2.24,2.2-2.86,5.21-3.27,7.2a21.21,21.21,0,0,0-.41,3,17.72,17.72,0,0,1-.68,3.89c-.66,2.37-1.23,3.19-1.75,3.72a7.33,7.33,0,0,1-4.58,1.9h-.12c-2.3.29-5.63,1.39-12.14,3.56l-.1.07c6.59-2.2,9.94-3.32,12.26-3.6h.11a7.46,7.46,0,0,0,4.6-1.91c.53-.55,1.09-1.38,1.75-3.72a17,17,0,0,0,.67-3.88,21.23,21.23,0,0,1,.42-3c.44-2.12,1-5,3.27-7.22a10.93,10.93,0,0,1,1-.76l.07-.05,1.29-.95,1-.76A.08.08,0,0,0,78,223.32Zm1.2-24.53a8,8,0,0,0-.2,1.09h0a9.6,9.6,0,0,1,.2-1.07l.13-.46C79.29,198.51,79.25,198.66,79.21,198.79Zm-19,103.89a18.48,18.48,0,0,1-1.81-1.22c-1.59-1.23-2.64-2.6-7.35-12.17l-.78-1.54-.31-.63c.08.19.18.39.28.59L51,289.3c4.71,9.59,5.71,10.89,7.34,12.16a20.36,20.36,0,0,0,1.9,1.28A.13.13,0,0,1,60.23,302.68Zm17,12.47A16,16,0,0,0,76,311.23h0a15.21,15.21,0,0,1,1.21,3.92,16.94,16.94,0,0,1-.7,9,12.38,12.38,0,0,1-1.9,3.95c-.2.26-.41.52-.62.75a9.25,9.25,0,0,0,.63-.75,12.28,12.28,0,0,0,1.91-3.94l.26.06-.25-.09A17.2,17.2,0,0,0,77.18,315.15Zm7.13-84.06q-3.63-4.32-5.89-7.23l-.39-.5-1,.76-1.29.95-.07.05a10.93,10.93,0,0,0-1,.76c-2.22,2.2-2.83,5.1-3.27,7.22a21.23,21.23,0,0,0-.42,3,17,17,0,0,1-.67,3.88c-.66,2.34-1.22,3.17-1.75,3.72a7.46,7.46,0,0,1-4.6,1.91h-.11c-2.32.28-5.67,1.4-12.26,3.6-.7.46-1.38.93-2,1.39A77.57,77.57,0,0,0,35.26,263h0a12.77,12.77,0,0,0,.2,6.21c.94,3,3,4.76,6.32,7.67a30.83,30.83,0,0,0,3.14,2.42,12.69,12.69,0,0,1,2.62,2.23c1.32,1.46,1.79,2.42,3.53,6l.76,1.54c4.65,9.47,5.66,10.81,7.17,12a18.59,18.59,0,0,1-3.37-10.62A23.4,23.4,0,0,1,57,282.27c-.36-.72-.75-1.49-1.18-2.31l-.06-.12c-3.37-6.47-5.41-10.38-6-11l0,0a5.3,5.3,0,0,1-1.88-3.38c-.11-1.78,1.09-3.2,1.89-4.14a12,12,0,0,1,4-3.09c2.85-1.39,6.9-2.12,11.7-2.09,1.78,0,3,.12,4.07.2a11.72,11.72,0,0,0,4.64-.26,9.62,9.62,0,0,0,4.92-2.8,9.78,9.78,0,0,0,1.47-2.54,15.91,15.91,0,0,0,1-6.15c0-.63,0-1.24.08-1.88.15-2.31.79-4.26,2-8.13v0a36.6,36.6,0,0,1,1.61-4.13Zm5.38,38.23c-3.44.82-4.69,2.38-4.6,5.81,0,.53,0,1.06,0,1.59h0c0-.53,0-1.06,0-1.6-.09-3.36,1.2-5,4.59-5.8a4,4,0,0,0,.49-.17Zm2.38,39.51-.12-.27h0l.12.27a74.09,74.09,0,0,0,4.61,8.43A74.79,74.79,0,0,1,92.07,308.83ZM96,333.67a9.26,9.26,0,0,1-4.76-2c-2.28-1.83-2.77-4.37-3-6.84-.07-1-.12-2-.22-2.95v-.11c0-1.63-.13-3.32-.33-4.95a39.49,39.49,0,0,0-1.37-6.37,31,31,0,0,1-4.08.7c.22.76.36,1.41.47,1.88a28.91,28.91,0,0,1,.48,7.92c-.06,1-.18,2.33-.18,2.33v.09s-.27,1.89-.42,3.8c-.34,4.43-.17,5.24.13,6a7.35,7.35,0,0,0,3.13,3.34,59.48,59.48,0,0,0,12.07-2.7A16,16,0,0,1,96,333.67Zm41.25-36.81-.24-.22c-1.54-1.37-3.14-2.79-4.8-4.05l-.08,0a44.1,44.1,0,0,0-13.26-7.2,31.74,31.74,0,0,1-13.58-8.28c-3.83-3.84-7.21-6-11-7a15.38,15.38,0,0,0-2.43-.39c-.37,0-.75-.08-1.14-.14l-.18.06a4.06,4.06,0,0,1-.59.19c-3.17.77-4.27,2.15-4.19,5.29q0,1.2-.06,2.4l7,8.51.74.9,10.95,13.33a37.08,37.08,0,0,1-6.11,4.86c-.3.19-.61.39-.92.57-1.27.79-2.63,1.54-4.06,2.27l-.83.4c0,.1.09.19.13.29A73.82,73.82,0,0,0,97.16,317c1.66,2.7,3,3.08,6.45,1.78a79.1,79.1,0,0,0,14.94-7.33,27.85,27.85,0,0,1,11.55-4.19,15.27,15.27,0,0,0,5.88-1.87c2.17-1.32,3.13-2.85,3-4.81A5.28,5.28,0,0,0,137.21,296.86ZM78,223.32l-1.05.77-1.37,1a7.69,7.69,0,0,0-1,.77c-2.24,2.2-2.86,5.21-3.27,7.2a21.21,21.21,0,0,0-.41,3,17.72,17.72,0,0,1-.68,3.89c-.66,2.37-1.23,3.19-1.75,3.72a7.33,7.33,0,0,1-4.58,1.9h-.12c-2.3.29-5.63,1.39-12.14,3.56l-.1.07c6.59-2.2,9.94-3.32,12.26-3.6h.11a7.46,7.46,0,0,0,4.6-1.91c.53-.55,1.09-1.38,1.75-3.72a17,17,0,0,0,.67-3.88,21.23,21.23,0,0,1,.42-3c.44-2.12,1-5,3.27-7.22a10.93,10.93,0,0,1,1-.76l.07-.05,1.29-.95,1-.76A.08.08,0,0,0,78,223.32Zm1.2-24.53a8,8,0,0,0-.2,1.09h0a9.6,9.6,0,0,1,.2-1.07l.13-.46C79.29,198.51,79.25,198.66,79.21,198.79Zm-19,103.89a18.48,18.48,0,0,1-1.81-1.22c-1.59-1.23-2.64-2.6-7.35-12.17l-.78-1.54-.31-.63c.08.19.18.39.28.59L51,289.3c4.71,9.59,5.71,10.89,7.34,12.16a20.36,20.36,0,0,0,1.9,1.28A.13.13,0,0,1,60.23,302.68Zm17,12.47A16,16,0,0,0,76,311.23h0a15.21,15.21,0,0,1,1.21,3.92,16.94,16.94,0,0,1-.7,9,12.38,12.38,0,0,1-1.9,3.95c-.2.26-.41.52-.62.75a9.25,9.25,0,0,0,.63-.75,12.28,12.28,0,0,0,1.91-3.94l.26.06-.25-.09A17.2,17.2,0,0,0,77.18,315.15Zm7.13-84.06q-3.63-4.32-5.89-7.23l-.39-.5-1,.76-1.29.95-.07.05a10.93,10.93,0,0,0-1,.76c-2.22,2.2-2.83,5.1-3.27,7.22a21.23,21.23,0,0,0-.42,3,17,17,0,0,1-.67,3.88c-.66,2.34-1.22,3.17-1.75,3.72a7.46,7.46,0,0,1-4.6,1.91h-.11c-2.32.28-5.67,1.4-12.26,3.6-.7.46-1.38.93-2,1.39A77.57,77.57,0,0,0,35.26,263h0a12.77,12.77,0,0,0,.2,6.21c.94,3,3,4.76,6.32,7.67a30.83,30.83,0,0,0,3.14,2.42,12.69,12.69,0,0,1,2.62,2.23c1.32,1.46,1.79,2.42,3.53,6l.76,1.54c4.65,9.47,5.66,10.81,7.17,12a18.59,18.59,0,0,1-3.37-10.62A23.4,23.4,0,0,1,57,282.27c-.36-.72-.75-1.49-1.18-2.31l-.06-.12c-3.37-6.47-5.41-10.38-6-11l0,0a5.3,5.3,0,0,1-1.88-3.38c-.11-1.78,1.09-3.2,1.89-4.14a12,12,0,0,1,4-3.09c2.85-1.39,6.9-2.12,11.7-2.09,1.78,0,3,.12,4.07.2a11.72,11.72,0,0,0,4.64-.26,9.62,9.62,0,0,0,4.92-2.8,9.78,9.78,0,0,0,1.47-2.54,15.91,15.91,0,0,0,1-6.15c0-.63,0-1.24.08-1.88.15-2.31.79-4.26,2-8.13v0a36.6,36.6,0,0,1,1.61-4.13Zm5.38,38.23c-3.44.82-4.69,2.38-4.6,5.81,0,.53,0,1.06,0,1.59h0c0-.53,0-1.06,0-1.6-.09-3.36,1.2-5,4.59-5.8a4,4,0,0,0,.49-.17Zm2.38,39.51-.12-.27h0l.12.27a74.09,74.09,0,0,0,4.61,8.43A74.79,74.79,0,0,1,92.07,308.83ZM96,333.67a9.26,9.26,0,0,1-4.76-2c-2.28-1.83-2.77-4.37-3-6.84-.07-1-.12-2-.22-2.95v-.11c0-1.63-.13-3.32-.33-4.95a39.49,39.49,0,0,0-1.37-6.37,31,31,0,0,1-4.08.7c.22.76.36,1.41.47,1.88a28.91,28.91,0,0,1,.48,7.92c-.06,1-.18,2.33-.18,2.33v.09s-.27,1.89-.42,3.8c-.34,4.43-.17,5.24.13,6a7.35,7.35,0,0,0,3.13,3.34,59.48,59.48,0,0,0,12.07-2.7A16,16,0,0,1,96,333.67Zm41.25-36.81-.24-.22c-1.54-1.37-3.14-2.79-4.8-4.05l-.08,0a44.1,44.1,0,0,0-13.26-7.2,31.74,31.74,0,0,1-13.58-8.28c-3.83-3.84-7.21-6-11-7a15.38,15.38,0,0,0-2.43-.39c-.37,0-.75-.08-1.14-.14l-.18.06a4.06,4.06,0,0,1-.59.19c-3.17.77-4.27,2.15-4.19,5.29q0,1.2-.06,2.4l7,8.51.74.9,10.95,13.33a37.08,37.08,0,0,1-6.11,4.86c-.3.19-.61.39-.92.57-1.27.79-2.63,1.54-4.06,2.27l-.83.4c0,.1.09.19.13.29A73.82,73.82,0,0,0,97.16,317c1.66,2.7,3,3.08,6.45,1.78a79.1,79.1,0,0,0,14.94-7.33,27.85,27.85,0,0,1,11.55-4.19,15.27,15.27,0,0,0,5.88-1.87c2.17-1.32,3.13-2.85,3-4.81A5.28,5.28,0,0,0,137.21,296.86ZM78,223.32l-1.05.77-1.37,1a7.69,7.69,0,0,0-1,.77c-2.24,2.2-2.86,5.21-3.27,7.2a21.21,21.21,0,0,0-.41,3,17.72,17.72,0,0,1-.68,3.89c-.66,2.37-1.23,3.19-1.75,3.72a7.33,7.33,0,0,1-4.58,1.9h-.12c-2.3.29-5.63,1.39-12.14,3.56l-.1.07c6.59-2.2,9.94-3.32,12.26-3.6h.11a7.46,7.46,0,0,0,4.6-1.91c.53-.55,1.09-1.38,1.75-3.72a17,17,0,0,0,.67-3.88,21.23,21.23,0,0,1,.42-3c.44-2.12,1-5,3.27-7.22a10.93,10.93,0,0,1,1-.76l.07-.05,1.29-.95,1-.76A.08.08,0,0,0,78,223.32Zm1.2-24.53a8,8,0,0,0-.2,1.09h0a9.6,9.6,0,0,1,.2-1.07l.13-.46C79.29,198.51,79.25,198.66,79.21,198.79Zm-19,103.89a18.48,18.48,0,0,1-1.81-1.22c-1.59-1.23-2.64-2.6-7.35-12.17l-.78-1.54-.31-.63c.08.19.18.39.28.59L51,289.3c4.71,9.59,5.71,10.89,7.34,12.16a20.36,20.36,0,0,0,1.9,1.28A.13.13,0,0,1,60.23,302.68Zm17,12.47A16,16,0,0,0,76,311.23h0a15.21,15.21,0,0,1,1.21,3.92,16.94,16.94,0,0,1-.7,9,12.38,12.38,0,0,1-1.9,3.95c-.2.26-.41.52-.62.75a9.25,9.25,0,0,0,.63-.75,12.28,12.28,0,0,0,1.91-3.94l.26.06-.25-.09A17.2,17.2,0,0,0,77.18,315.15Zm7.13-84.06q-3.63-4.32-5.89-7.23l-.39-.5-1,.76-1.29.95-.07.05a10.93,10.93,0,0,0-1,.76c-2.22,2.2-2.83,5.1-3.27,7.22a21.23,21.23,0,0,0-.42,3,17,17,0,0,1-.67,3.88c-.66,2.34-1.22,3.17-1.75,3.72a7.46,7.46,0,0,1-4.6,1.91h-.11c-2.32.28-5.67,1.4-12.26,3.6-.7.46-1.38.93-2,1.39A77.57,77.57,0,0,0,35.26,263h0a12.77,12.77,0,0,0,.2,6.21c.94,3,3,4.76,6.32,7.67a30.83,30.83,0,0,0,3.14,2.42,12.69,12.69,0,0,1,2.62,2.23c1.32,1.46,1.79,2.42,3.53,6l.76,1.54c4.65,9.47,5.66,10.81,7.17,12a18.59,18.59,0,0,1-3.37-10.62A23.4,23.4,0,0,1,57,282.27c-.36-.72-.75-1.49-1.18-2.31l-.06-.12c-3.37-6.47-5.41-10.38-6-11l0,0a5.3,5.3,0,0,1-1.88-3.38c-.11-1.78,1.09-3.2,1.89-4.14a12,12,0,0,1,4-3.09c2.85-1.39,6.9-2.12,11.7-2.09,1.78,0,3,.12,4.07.2a11.72,11.72,0,0,0,4.64-.26,9.62,9.62,0,0,0,4.92-2.8,9.78,9.78,0,0,0,1.47-2.54,15.91,15.91,0,0,0,1-6.15c0-.63,0-1.24.08-1.88.15-2.31.79-4.26,2-8.13v0a36.6,36.6,0,0,1,1.61-4.13Zm5.38,38.23c-3.44.82-4.69,2.38-4.6,5.81,0,.53,0,1.06,0,1.59h0c0-.53,0-1.06,0-1.6-.09-3.36,1.2-5,4.59-5.8a4,4,0,0,0,.49-.17Zm2.38,39.51-.12-.27h0l.12.27a74.09,74.09,0,0,0,4.61,8.43A74.79,74.79,0,0,1,92.07,308.83Zm4,24.26a8.69,8.69,0,0,1-4.49-1.85c-2.13-1.7-2.59-4.11-2.77-6.46a11.4,11.4,0,0,1,0-2.74v-.2c-.28-1.59-.37-3.4-.59-5.1a39.49,39.49,0,0,0-1.37-6.39h0l-.52.13a31,31,0,0,1-4.08.7c.22.76.36,1.41.47,1.88a28.91,28.91,0,0,1,.48,7.92c-.06,1-.18,2.33-.18,2.33v.09s-.27,1.89-.42,3.8c-.34,4.43-.17,5.24.13,6a7.35,7.35,0,0,0,3.13,3.34,59.48,59.48,0,0,0,12.07-2.7h0c.66-.21,1.31-.45,2-.7A.42.42,0,0,0,100,333,13.37,13.37,0,0,1,96,333.09Zm41.17-36.23-.24-.22c-1.54-1.37-3.14-2.79-4.8-4.05l-.08,0a44.1,44.1,0,0,0-13.26-7.2,31.74,31.74,0,0,1-13.58-8.28c-3.83-3.84-7.21-6-11-7a15.38,15.38,0,0,0-2.43-.39c-.37,0-.75-.08-1.14-.14l-.18.06a4.06,4.06,0,0,1-.59.19c-3.17.77-4.27,2.15-4.19,5.29q0,1.2-.06,2.4l7,8.51.74.9,10.95,13.33a37.08,37.08,0,0,1-6.11,4.86c-.3.19-.61.39-.92.57-1.27.79-2.63,1.54-4.06,2.27l-.83.4c0,.1.09.19.13.29A73.82,73.82,0,0,0,97.16,317c1.66,2.7,3,3.08,6.45,1.78a79.1,79.1,0,0,0,14.94-7.33,27.85,27.85,0,0,1,11.55-4.19,15.27,15.27,0,0,0,5.88-1.87c2.17-1.32,3.13-2.85,3-4.81A5.28,5.28,0,0,0,137.21,296.86ZM97.92,333.25a15,15,0,0,1-1.9-.12,8.76,8.76,0,0,1-4.49-1.85c-2.12-1.71-2.58-4.12-2.76-6.47-.08-1-.13-2-.22-2.94v-.11a49.39,49.39,0,0,0-.34-5,39.73,39.73,0,0,0-1.37-6.41l-.52.13a31,31,0,0,1-4.08.7c.22.76.36,1.41.47,1.88a28.91,28.91,0,0,1,.48,7.92c-.06,1-.18,2.33-.18,2.33v.09s-.27,1.89-.42,3.8c-.34,4.43-.17,5.24.13,6a7.35,7.35,0,0,0,3.13,3.34,59.48,59.48,0,0,0,12.07-2.7h0c.66-.21,1.31-.45,2-.7A13,13,0,0,1,97.92,333.25Z" fill="#004b8b"/><path d="M149.5,310.47h0l-.23-.27a15.93,15.93,0,0,1-4.17,3.43,32,32,0,0,1-5.08,2.52l-.22.09A39.28,39.28,0,0,0,128.22,324c-.88.78-1.68,1.57-2.41,2.36l.22.27h0l.44.55c.74-.79,1.53-1.59,2.41-2.37a38.33,38.33,0,0,1,11.29-7.52l.21-.08a34.12,34.12,0,0,0,5.24-2.61A17.1,17.1,0,0,0,150,311ZM145.21,314a32.43,32.43,0,0,1-5.18,2.57l-.22.09a39.07,39.07,0,0,0-11.47,7.66c-.46.41-.9.83-1.34,1.26.43-.44.89-.87,1.36-1.29a38.61,38.61,0,0,1,11.48-7.66l.21-.08a33.34,33.34,0,0,0,5.18-2.58c.15-.09.29-.19.44-.27Zm.48-.32c.44-.29.84-.57,1.21-.83C146.54,313.13,146.14,313.4,145.69,313.69Z" fill="#6b8fe1"/><path d="M162.18,325.61a4.63,4.63,0,0,0-2.39,1.86,5,5,0,0,0-.47,1.61v0s0,0,0,.05l0,.07a7.81,7.81,0,0,0-.1,3.84h.43c0-.13-.06-.26-.08-.4a2.59,2.59,0,0,0,.09.4h.54a6.83,6.83,0,0,1,0-3.59l.05-.21a4.53,4.53,0,0,1,.35-1.29,4,4,0,0,1,2.26-1.55Zm-2.75,5.5a.81.81,0,0,1,0-.22h0C159.44,331,159.43,331,159.43,331.11Z" fill="#6b8fe1"/><path d="M154,315.79a1.07,1.07,0,0,1-.18.19,1.63,1.63,0,0,0,.17-.2l-.18-.22a8.76,8.76,0,0,1-4,2.41l-1.43.46-.11,0c-1.18.38-2.41.78-3.58,1.24a23.42,23.42,0,0,0-7.51,5l-1.05,1c-2,1.9-4.06,3.85-6,5.88l.27.34c2-2,4-3.92,6-5.78l1-.95a22.53,22.53,0,0,1,7.25-4.73c1.19-.46,2.44-.85,3.65-1.23l1.49-.48a10,10,0,0,0,4.4-2.62Zm-4.22,2.57-1.49.48-.91.29.82-.27.1,0,1.45-.46a14,14,0,0,0,1.7-.68A12.12,12.12,0,0,1,149.74,318.36Z" fill="#6b8fe1"/><path d="M69.69,313.85a7.11,7.11,0,0,0-5.45-2h-.83a.53.53,0,0,0-.28,0c-.31.12-.64.23-.93.32a8.07,8.07,0,0,0-2.19,1c-2.11,1.48-2.69,3.72-1.77,6.84a7.08,7.08,0,0,0,6.92,5.33h0a6.44,6.44,0,0,0,6.16-6.06A6.74,6.74,0,0,0,69.69,313.85Zm-11.38,2.79a6.72,6.72,0,0,0,0,1.19A5.23,5.23,0,0,1,58.31,316.64Zm0,1.22a11.45,11.45,0,0,0,.2,1.22A8.35,8.35,0,0,1,58.3,317.86Zm2-4.51a8,8,0,0,1,2.1-.91c.32-.1.66-.21,1-.33h.11l-1,.35a8.4,8.4,0,0,0-2.24,1h.09a4.48,4.48,0,0,0-1.78,2.29A4.43,4.43,0,0,1,60.27,313.35Zm.35.68a7.41,7.41,0,0,1,1.92-.82l.92-.31h.81A6.07,6.07,0,0,1,69,314.58a5.71,5.71,0,0,1,1.38,4.61,5.4,5.4,0,0,1-5.14,5.1,6,6,0,0,1-5.93-4.56C58.48,317.06,58.91,315.25,60.62,314Zm-1.68,6.49a6.85,6.85,0,0,0,2.45,3.09A6.42,6.42,0,0,1,58.94,320.52Zm6.3,4.26h0a5,5,0,0,1-.94-.08,7.54,7.54,0,0,0,.94.06,6,6,0,0,0,5.71-5.63A6,6,0,0,1,65.24,324.78Z" fill="#6b8fe1"/><path d="M49.87,323.71a14.69,14.69,0,0,0-2.3-6.83,9.14,9.14,0,0,0-3.69-3.39,8.82,8.82,0,0,0-3.5-.73,14.24,14.24,0,0,0-6.93,2l-.18.09-.72.35c.2.31.41.61.63.92l.66-.32.19-.1a13.44,13.44,0,0,1,6.45-1.86,7.53,7.53,0,0,1,3.07.63,7.92,7.92,0,0,1,3.26,3,13.75,13.75,0,0,1,2.13,6.37v0a10.87,10.87,0,0,1-.13,5.24,6.23,6.23,0,0,1-.52,1.16l.45.26a6.38,6.38,0,0,0,.57-1.26,11.42,11.42,0,0,0,.16-5.55v0c-.06-.46-.13-1-.22-1.49.1.54.17,1.05.23,1.51a11.5,11.5,0,0,1-.16,5.6,7.12,7.12,0,0,1-.55,1.24,3.24,3.24,0,0,0,.36.2,7.35,7.35,0,0,0,.57-1.29A11.75,11.75,0,0,0,49.87,323.71Zm-6-9.64-.52-.2-.2-.06h0l.2.07.54.2.18.09Z" fill="#6b8fe1"/><path d="M118.47,189.1c-.46-.56-.93-1.1-1.43-1.63.08.37.16.71.23,1l.09.39a12,12,0,0,1,.4,4.53,6.51,6.51,0,0,1-1.56,3.93,6.11,6.11,0,0,1-2.79,1.53,9.92,9.92,0,0,1-4.72.18c-1.08-.22-2.62-.72-5.88-2.9-4.36-2.91-6.54-4.38-7.22-6.78a7.33,7.33,0,0,1,.21-4.49c.9-2.27,2.73-3.11,4.86-4.07a18.18,18.18,0,0,0,3.81-2.11,12,12,0,0,0-1.17-.48,21.39,21.39,0,0,1-3.1,1.63c-2.24,1-4.37,2-5.42,4.64a8.25,8.25,0,0,0-.24,5.15c.78,2.79,3.07,4.32,7.64,7.37,3.44,2.3,5.1,2.83,6.27,3.06a11.06,11.06,0,0,0,5.24-.21l0,0a7.1,7.1,0,0,0,3.17-1.79,7.49,7.49,0,0,0,1.85-4.55A12.71,12.71,0,0,0,118.47,189.1Zm-23.59-.43a7.63,7.63,0,0,1,.41-3.87,6.18,6.18,0,0,1,.89-1.56h0a6.3,6.3,0,0,0-.89,1.58A7.77,7.77,0,0,0,94.88,188.67Zm-15.37-3.44-.06-.06a10.53,10.53,0,0,1-2.93-5.32A8.17,8.17,0,0,1,76.9,176l-.57.09a5.43,5.43,0,0,0-.56.09A8.61,8.61,0,0,0,75.5,180a11.48,11.48,0,0,0,3.18,5.84c1.08,1.24,1.94,2.22,1.73,3.5s-1.35,1.82-2.85,2.54a13.58,13.58,0,0,0-5,3.58c-2.57,3.12-2.53,6.44-2.49,9.38,0,2.3,0,4.28-1.39,5.37-2.08,1.57-6.13.8-9.21-.66-3.24-1.54-5.37-3.7-5.44-5.49,0-1.11.78-1.69,2-2.57a12.27,12.27,0,0,0,4.33-4.62c2.27-4.37,1.55-9.58,1-13.78-.08-.58-.16-1.14-.22-1.67a5.64,5.64,0,0,0-.53.31,4.66,4.66,0,0,0-.47.3c.06.39.11.8.17,1.22.56,4,1.25,9.05-.86,13.12a11.39,11.39,0,0,1-4,4.24c-1.35,1-2.52,1.79-2.46,3.48.1,2.66,3.19,5.05,6,6.4a16,16,0,0,0,6.51,1.64,6.05,6.05,0,0,0,3.77-1.1c1.87-1.4,1.84-3.63,1.81-6.22,0-2.75-.08-5.87,2.25-8.69A12.52,12.52,0,0,1,78,192.85c1.61-.77,3.13-1.5,3.43-3.32S80.7,186.59,79.51,185.23Zm-26,19.09a1.64,1.64,0,0,1,0-.22,2.17,2.17,0,0,1,.16-.94,2.34,2.34,0,0,0-.15,1A1.48,1.48,0,0,0,53.53,204.32Zm5.73,5.74c-.21-.1-.42-.2-.63-.32l.62.3c.49.23,1,.44,1.51.64C60.26,210.5,59.75,210.29,59.26,210.06Zm6.28,1.58a10.31,10.31,0,0,1-1.53-.13,8.85,8.85,0,0,0,3.51-.14A6.77,6.77,0,0,1,65.54,211.64Zm3.48-1a4,4,0,0,1-.34.23l.34-.24c.12-.09.23-.19.34-.29A3.17,3.17,0,0,1,69,210.66Zm.64-.63a4.48,4.48,0,0,0,.44-.72A3,3,0,0,1,69.66,210ZM73,195.82c-.15.18-.29.36-.43.55.14-.19.28-.39.43-.57a1,1,0,0,1,.14-.15S73,195.76,73,195.82Zm4.79-3.43L76.6,193c.41-.23.82-.43,1.19-.61l.52-.24Zm.54-.27a10.63,10.63,0,0,0,1.36-.78A8,8,0,0,1,78.32,192.12Zm1.91-5.18a3.5,3.5,0,0,1,.73,1.93A3.66,3.66,0,0,0,80.23,186.94Z" fill="#6b8fe1"/><path d="M93.07,175.67l-.3.18H90.66a4.41,4.41,0,0,1-.74-.47c-.33,0-.67,0-1,0s-.42,0-.64,0a5.88,5.88,0,0,0,2,1.56.46.46,0,0,0,.23.06H92.9a.59.59,0,0,0,.26-.07,9.63,9.63,0,0,0,1.42-1C94.08,175.8,93.58,175.72,93.07,175.67Z" fill="#6b8fe1"/><path d="M47.22,209.63a21.85,21.85,0,0,1-2.73-1.32v.06a22.63,22.63,0,0,0,2.61,1.28h.16Zm5,4.05A8.22,8.22,0,0,0,51,211.77a9,9,0,0,0-3.8-2.69l-.09,0a20.12,20.12,0,0,1-2.59-1.3c0,.19,0,.38,0,.57v.06l0,.43a20.83,20.83,0,0,0,2.33,1.13l.09,0a8,8,0,0,1,3.4,2.36,7.62,7.62,0,0,1,1,1.67c1.14,2.6.73,5.6.51,7.22a61.57,61.57,0,0,1-2.39,10.19c.1.21.22.42.34.63a65.32,65.32,0,0,0,2.51-10.65c.22-1.67.64-4.76-.55-7.51a8.32,8.32,0,0,0-1.07-1.79,8.65,8.65,0,0,0-2.77-2.18,8.59,8.59,0,0,1,2.79,2.18,8.32,8.32,0,0,1,1.07,1.79,14,14,0,0,1,.55,7.5,64.56,64.56,0,0,1-2.51,10.7c.1.2.21.39.32.59a66.14,66.14,0,0,0,2.67-11.21A14.36,14.36,0,0,0,52.17,213.68Z" fill="#6b8fe1"/><path d="M52.9,188c-.43.46-.83.92-1.21,1.4a7.44,7.44,0,0,1-2,2.85l-.31.31h0c-.43.69-.83,1.4-1.21,2.13A8.66,8.66,0,0,0,50.44,193l0,0a7.22,7.22,0,0,0,2.45-4.53A2.14,2.14,0,0,0,52.9,188ZM50,192.63h0l.17.16Z" fill="#6b8fe1"/><path d="M42.59,296.69a8.72,8.72,0,0,0-1.27-3.22c-2.11-3-4.69-6.44-8.74-8.27a8.25,8.25,0,0,0-4-.82h0a.49.49,0,0,0-.24,0,11.27,11.27,0,0,0-2.94,1.32c-.05.45-.09.91-.12,1.37a10.61,10.61,0,0,1,3.28-1.63l.1,0a7.27,7.27,0,0,1,3.43.73c3.84,1.73,6.31,5,8.33,7.92a7.79,7.79,0,0,1,1.11,2.83c.36,1.74-.32,3.13-2.28,4.62-1.16.89-2.28,1.83-3.41,2.79-.61.52-1.32,1.12-2,1.69a34.33,34.33,0,0,1-4.63,3.36c.06.14.13.28.2.42a35.57,35.57,0,0,0,4.74-3.44c.71-.58,1.43-1.18,2-1.7l.65-.54c-.15.14-.29.26-.44.38l-.19.17c-.65.55-1.34,1.13-2,1.7a35.62,35.62,0,0,1-4.74,3.45c.09.17.17.35.27.53a36.18,36.18,0,0,0,4.82-3.51c.69-.56,1.39-1.15,2-1.7l.2-.16c1-.87,2.09-1.77,3.18-2.6C41.47,301.18,43.17,299.47,42.59,296.69Zm-16-11a9.41,9.41,0,0,1,1.43-.6A12.72,12.72,0,0,0,26.57,285.66Zm1.92-.75h0Zm3.84.71a7.76,7.76,0,0,0-2.16-.68,7.89,7.89,0,0,1,2.17.66,15.13,15.13,0,0,1,4.19,2.85A15.57,15.57,0,0,0,32.33,285.62Zm7.27,16.25-.82.64c.26-.22.53-.43.8-.64a9.8,9.8,0,0,0,1.57-1.47A8.24,8.24,0,0,1,39.6,301.87Zm-1.3-11.56c.54.62,1,1.26,1.51,1.9C39.33,291.57,38.83,290.93,38.3,290.31Zm3.75,6.42a8.22,8.22,0,0,0-1.18-3l-.59-.85c.21.28.4.56.59.83a8.28,8.28,0,0,1,1.19,3,4.68,4.68,0,0,1,.1,1A4.54,4.54,0,0,0,42.05,296.73Z" fill="#6b8fe1"/><path d="M157.66,251.21h-1a11.58,11.58,0,0,0,.81,4.41c.12-1.07.22-2.14.29-3.2C157.68,252,157.66,251.6,157.66,251.21Z" fill="#6b8fe1"/><path d="M137.79,296.09l-.13-.12c-1.62-1.44-3.28-2.94-5-4.26a45.25,45.25,0,0,0-13.6-7.35,30.81,30.81,0,0,1-13.14-8,35,35,0,0,0-5.73-4.74,20.64,20.64,0,0,0-5.69-2.54,18.89,18.89,0,0,0-2.59-.42l-.13,0c-.34,0-.69-.07-1-.12h-.14a.71.71,0,0,0-.25,0l-.3.1-.45.15c-3.64.87-5.09,2.7-5,6.34,0,.33,0,.66,0,1l.51.62c0-.53,0-1.06,0-1.59-.09-3.43,1.16-5,4.6-5.81l.5-.16a4,4,0,0,1-.49.17c-3.39.82-4.68,2.44-4.59,5.8,0,.54,0,1.07,0,1.6l.62.75q.08-1.2.06-2.4c-.08-3.14,1-4.52,4.19-5.29a4.06,4.06,0,0,0,.59-.19l.18-.06c.39.06.77.1,1.14.14a15.38,15.38,0,0,1,2.43.39c3.74,1,7.12,3.15,11,7a31.74,31.74,0,0,0,13.58,8.28,44.1,44.1,0,0,1,13.26,7.2l.08,0c1.66,1.26,3.26,2.68,4.8,4.05l.24.22a5.28,5.28,0,0,1,1.78,3.71c.12,2-.84,3.49-3,4.81a15.27,15.27,0,0,1-5.88,1.87,27.85,27.85,0,0,0-11.55,4.19,79.1,79.1,0,0,1-14.94,7.33c-3.4,1.3-4.79.92-6.45-1.78a73.82,73.82,0,0,1-4.57-8.38c0-.1-.09-.19-.13-.29l-.51.24.12.27a74.79,74.79,0,0,0,4.59,8.44,74.09,74.09,0,0,1-4.61-8.43l-.12-.27-.54.23c0,.09.07.17.11.25a74.4,74.4,0,0,0,4.64,8.5c1.3,2.09,2.59,3,4.33,3a9.66,9.66,0,0,0,3.4-.79A79.73,79.73,0,0,0,119,312.33a27,27,0,0,1,11.13-4,16.4,16.4,0,0,0,6.28-2c2.53-1.54,3.65-3.37,3.51-5.77A6.36,6.36,0,0,0,137.79,296.09Zm-16.88,14.54a22.27,22.27,0,0,1,2.38-1.09C122.48,309.87,121.69,310.23,120.91,310.63Zm6.31-2.32a25.08,25.08,0,0,1,2.85-.53C129.09,307.92,128.14,308.1,127.22,308.31Z" fill="#6b8fe1"/><path d="M113,229.12a2.71,2.71,0,0,0-2.9-2h0a.48.48,0,0,0-.29,0c-2.6,1.1-3.45,3.08-2.39,5.57a2.91,2.91,0,0,0,2.13,1.92l.31,0a2.79,2.79,0,0,0,2.12-1.18A4.12,4.12,0,0,0,113,229.12Zm-3-1.52h0l0,0Zm1.17,5.2a1.77,1.77,0,0,1-1.47.78,2,2,0,0,1-1.32-1.29c-.82-1.94-.27-3.26,1.75-4.16h0c.94-.06,1.48.34,1.86,1.37C112.53,230.76,112,231.75,111.18,232.8Z" fill="#6b8fe1"/><path d="M107.22,286c-.5-.3-1-.6-1.51-.88.51.29,1,.59,1.52.9l.28.16Zm-7.48-3.68a2.2,2.2,0,0,0-.37-.06.87.87,0,0,1,.37.23h0a1.89,1.89,0,0,1,.82,0A4.73,4.73,0,0,0,99.74,282.36Zm-.68-.15v.06h0a1.53,1.53,0,0,1,.3,0A1.21,1.21,0,0,0,99.06,282.21Zm21.57,14.22a7.07,7.07,0,0,0-3.21-4.47c-3.15-2.23-6.56-4.3-9.57-6.15l-.34-.21c-1.91-1.17-3.89-2.19-6.1-3.32a6.13,6.13,0,0,0-1.57-.45l-.64-.13H99a.31.31,0,0,0-.19,0l-.67.15-.23,0a6.17,6.17,0,0,0-3.31,1.52A10.9,10.9,0,0,0,92.69,286l.74.9a9.67,9.67,0,0,1,1.93-2.73,5.21,5.21,0,0,1,2.91-1.24l.15,0,.58-.13.68.13a4.72,4.72,0,0,1,1.27.36c1.87.95,4,2.06,6,3.28l.34.2c2.82,1.72,6.34,3.87,9.51,6.11a6.1,6.1,0,0,1,2.78,3.78,5.57,5.57,0,0,1-1.3,4.15,18.5,18.5,0,0,1-7.57,6.54c-4.79,2.09-9.47,1.22-12.47-2.22-.3.19-.61.39-.92.57a10.57,10.57,0,0,0,8.27,3.84,13.91,13.91,0,0,0,5.53-1.22,19.56,19.56,0,0,0,8-6.89A6.53,6.53,0,0,0,120.63,296.43Zm-22.48-14-.46.1.33-.08.24-.05Zm.78-.18-.62.14.62-.15Z" fill="#6b8fe1"/><path d="M118.42,221.3c-2.31-2.29-5.36-2.63-7.73-2.67h-.24l-.7.11-.14,0c-.46.07-1,.15-1.42.26-4.93,1.13-8,4.27-9.37,9.61a34.21,34.21,0,0,0-1,10.85c.18,2.52.82,6.06,4.38,7.66a5.44,5.44,0,0,0,1,.33l1.25-.8a6,6,0,0,1-1.77-.49c-2.32-1-3.51-3.19-3.76-6.76a33,33,0,0,1,1-10.51c1.26-4.92,4.07-7.82,8.57-8.85.49-.1,1-.19,1.5-.26l.68-.12h.08c2.32,0,5,.35,7,2.36,2.62,2.6,3.41,5.94,2.39,10.21.3-.43.58-.87.85-1.32s.42-.69.61-1.05A10.33,10.33,0,0,0,118.42,221.3Zm-8.59-2c-.5.08-1,.17-1.53.28.46-.11.94-.19,1.4-.27l.13,0,.68-.11Z" fill="#6b8fe1"/><path d="M154.68,262.7c-.42-1.07-1.05-2.68-2.43-5.9l-.1-.25a11.27,11.27,0,0,1-.79-2.16,8.54,8.54,0,0,1-.12-3.18h-.56a8.9,8.9,0,0,0,.14,3.29,11.52,11.52,0,0,0,.83,2.27l.1.23c1.38,3.22,2,4.82,2.43,5.9s.74,1.88,1.38,3.28c.08-.29.14-.57.21-.86C155.32,264.31,155,263.61,154.68,262.7Zm-.52.2c-.46-1.15-1.08-2.72-2.43-5.89l-.1-.23a12.14,12.14,0,0,1-.83-2.26,9,9,0,0,1-.14-3.31h-.42a9.66,9.66,0,0,0,.15,3.43,11.9,11.9,0,0,0,.87,2.37l.09.23c1.37,3.14,2,4.72,2.43,5.86s.81,2.06,1.6,3.78c.06-.22.12-.44.17-.66C154.91,264.79,154.6,264,154.16,262.9ZM78,223.36l-1,.76-1.29.95-.07.05a10.93,10.93,0,0,0-1,.76c-2.22,2.2-2.83,5.1-3.27,7.22a21.23,21.23,0,0,0-.42,3,17,17,0,0,1-.67,3.88c-.66,2.34-1.22,3.17-1.75,3.72a7.46,7.46,0,0,1-4.6,1.91h-.11c-2.32.28-5.67,1.4-12.26,3.6-.7.46-1.38.93-2,1.39.61-.23,1.22-.46,1.85-.67l.14,0c6.87-2.3,10.32-3.46,12.65-3.75h.11a7.84,7.84,0,0,0,4.9-2.07c.57-.6,1.19-1.49,1.87-3.94a18,18,0,0,0,.69-4,21.89,21.89,0,0,1,.4-2.91c.46-2.16,1-4.86,3.11-6.94a9.48,9.48,0,0,1,1-.72l.09-.06,1.29-1,.88-.65Zm47.71-16.08a4.15,4.15,0,0,1-.43.3,9.19,9.19,0,0,1-3.55,1.21,64.68,64.68,0,0,1-7.74.56,51.59,51.59,0,0,0-13,1.45c-.59.17-1.13.34-1.62.52a6.08,6.08,0,0,1,0,.61c.52-.21,1.09-.39,1.74-.58a22.94,22.94,0,0,1,2.51-.57c-.92.18-1.76.37-2.5.58s-1.23.38-1.75.57h0c0,.23,0,.45-.06.67a19.65,19.65,0,0,1,2.06-.7,50,50,0,0,1,12.63-1.4,68.06,68.06,0,0,0,7.82-.58,10,10,0,0,0,4-1.36Zm-18.88,3c1.22-.14,2.53-.24,3.9-.3C109.39,210.09,108.08,210.19,106.86,210.32Zm7.11-.38c-1.1,0-2.17,0-3.2.08,1-.05,2.09-.08,3.19-.09l2.11-.06C115.36,209.91,114.66,209.93,114,209.94ZM82.72,333.16c-.3-.71-.47-1.52-.13-6,.15-1.91.42-3.8.42-3.8v-.09s.12-1.37.18-2.33a28.91,28.91,0,0,0-.48-7.92c-.11-.47-.25-1.12-.47-1.88-.35,0-.7.07-1.06.09.25.84.41,1.56.52,2.06a27.71,27.71,0,0,1,.46,7.67c0,.89-.12,1.48-.21,2.21s-.23,1.92-.38,3.86c-.37,4.67-.17,5.54.2,6.43a7.72,7.72,0,0,0,2.58,3.16c.51-.05,1-.1,1.5-.17A7.35,7.35,0,0,1,82.72,333.16Zm58.05-50.37-.11-.09a48.9,48.9,0,0,0-5.89-3.91,30,30,0,0,1-4.63-3.12,41.14,41.14,0,0,1-4.49-4,4.63,4.63,0,0,1-.28.54h0c.35.37.7.71,1.06,1.06-.36-.33-.72-.68-1.07-1.05-.08.16-.16.32-.25.47a43.64,43.64,0,0,0,4.28,3.77,31.29,31.29,0,0,0,4.75,3.23,47.27,47.27,0,0,1,5.76,3.84c3.37,2.57,5.15,4,6.34,5.71.1-.16.2-.32.29-.49s.24-.39.35-.59C145.57,286.46,143.68,285,140.77,282.79Zm-9.74-5.7a33.74,33.74,0,0,0,3.37,2.15A29.59,29.59,0,0,1,131,277.09Zm9.3,6.11-.1-.07c-.69-.54-1.39-1.06-2.11-1.56.71.49,1.41,1,2.1,1.54l.11.09,1.28,1Zm6,23.51c-1.21,1.89-2.87,3.31-6.14,5.25a37.53,37.53,0,0,1-6.82,3.28,26.79,26.79,0,0,0-4.91,2.3,38.59,38.59,0,0,0-6.12,4.58l.68.83a38,38,0,0,1,6.08-4.56,25.91,25.91,0,0,1,4.74-2.22,38.37,38.37,0,0,0,7-3.35c3.21-1.91,5-3.35,6.25-5.21Zm-60.2-76.9a37.3,37.3,0,0,0-2,4.92c-.59,1.84-1,3.24-1.37,4.45.31-1.2.73-2.6,1.26-4.43v0a42.13,42.13,0,0,1,2-4.85c-.25.19-.51.36-.77.54a36.6,36.6,0,0,0-1.61,4.13v0c-1.24,3.87-1.88,5.82-2,8.13,0,.64-.06,1.25-.08,1.88a15.91,15.91,0,0,1-1,6.15,9.78,9.78,0,0,1-1.47,2.54,9.62,9.62,0,0,1-4.92,2.8,11.72,11.72,0,0,1-4.64.26c-1-.08-2.29-.2-4.07-.2-4.8,0-8.85.7-11.7,2.09a12,12,0,0,0-4,3.09c-.8.94-2,2.36-1.89,4.14a5.3,5.3,0,0,0,1.88,3.38l0,0c.64.59,2.68,4.5,6,11l.06.12c.43.82.82,1.59,1.18,2.31q.24-.67.54-1.32l-.78-1.51c-3.92-7.55-5.54-10.65-6.3-11.35l0,0a4.18,4.18,0,0,1-1.54-2.66c-.09-1.36.91-2.53,1.64-3.39a10.87,10.87,0,0,1,3.66-2.82,26,26,0,0,1,11.22-2c1.62,0,2.83.11,3.8.19l.18,0a12.44,12.44,0,0,0,5-.27,9.25,9.25,0,0,0,7.1-6,24.93,24.93,0,0,0,1.24-6.52c0-.57,0-1.18.08-1.78.14-2.21.76-4.12,2-7.93A39.31,39.31,0,0,1,87.28,229ZM54,258.71a11.39,11.39,0,0,0-3.83,3,12.4,12.4,0,0,0-.9,1.13,12.2,12.2,0,0,1,.89-1.15A11.55,11.55,0,0,1,54,258.69a17.8,17.8,0,0,1,4.42-1.41A19.12,19.12,0,0,0,54,258.71ZM81,251a9.85,9.85,0,0,1-1.56,2.68,10,10,0,0,1-5.18,3,12.07,12.07,0,0,1-4.81.26h-.19c-1-.09-2.19-.19-3.84-.19a39.36,39.36,0,0,0-4.3.19,38.34,38.34,0,0,1,4.12-.21l.19,0c1.76,0,3,.11,4,.2a12.13,12.13,0,0,0,4.79-.26,10.07,10.07,0,0,0,5.19-3A10.24,10.24,0,0,0,81,250.92c.06-.15.12-.3.17-.44C81.14,250.64,81.08,250.8,81,251Zm1.16-8.22c0,.62-.06,1.22-.07,1.83a18.11,18.11,0,0,1-.61,5,14.66,14.66,0,0,0,.46-4.94v0a10.78,10.78,0,0,0,.21-1.82c0-.23,0-.46.07-.69C82.2,242.3,82.18,242.53,82.17,242.75ZM78,223.36l-1,.76-1.29.95-.07.05a10.93,10.93,0,0,0-1,.76c-2.22,2.2-2.83,5.1-3.27,7.22a21.23,21.23,0,0,0-.42,3,17,17,0,0,1-.67,3.88c-.66,2.34-1.22,3.17-1.75,3.72a7.46,7.46,0,0,1-4.6,1.91h-.11c-2.32.28-5.67,1.4-12.26,3.6-.7.46-1.38.93-2,1.39.61-.23,1.22-.46,1.85-.67l.14,0c6.87-2.3,10.32-3.46,12.65-3.75h.11a7.84,7.84,0,0,0,4.9-2.07c.57-.6,1.19-1.49,1.87-3.94a18,18,0,0,0,.69-4,21.89,21.89,0,0,1,.4-2.91c.46-2.16,1-4.86,3.11-6.94a9.48,9.48,0,0,1,1-.72l.09-.06,1.29-1,.88-.65Zm-.12,91.69a16.67,16.67,0,0,0-1.12-3.75l-.82-.07a16,16,0,0,1,1.21,3.92,17.2,17.2,0,0,1-.7,9l.25.09-.26-.06a12.28,12.28,0,0,1-1.91,3.94,9.25,9.25,0,0,1-.63.75c.21-.23.42-.49.62-.75a12.38,12.38,0,0,0,1.9-3.95,16.94,16.94,0,0,0,.7-9,15.21,15.21,0,0,0-1.21-3.92l-.44-.05a14.25,14.25,0,0,1,1.32,4.09,16.52,16.52,0,0,1-.68,8.7,11.93,11.93,0,0,1-1.83,3.81,13.1,13.1,0,0,1-6.25,4.3c-.46.15-.86.26-1.27.36a18.88,18.88,0,0,0-3.25,1.11A5.84,5.84,0,0,0,61,335.29l1.21.28a6.34,6.34,0,0,1,1.8-1.05,17.61,17.61,0,0,1,3.09-1.06l.08,0c.42-.11.81-.21,1.25-.36a14.28,14.28,0,0,0,6.77-4.67,13.09,13.09,0,0,0,2-4.09v0A18.07,18.07,0,0,0,77.91,315.05ZM78,223.36l-1,.76-1.29.95-.07.05a10.93,10.93,0,0,0-1,.76c-2.22,2.2-2.83,5.1-3.27,7.22a21.23,21.23,0,0,0-.42,3,17,17,0,0,1-.67,3.88c-.66,2.34-1.22,3.17-1.75,3.72a7.46,7.46,0,0,1-4.6,1.91h-.11c-2.32.28-5.67,1.4-12.26,3.6-.7.46-1.38.93-2,1.39.61-.23,1.22-.46,1.85-.67l.14,0c6.87-2.3,10.32-3.46,12.65-3.75h.11a7.84,7.84,0,0,0,4.9-2.07c.57-.6,1.19-1.49,1.87-3.94a18,18,0,0,0,.69-4,21.89,21.89,0,0,1,.4-2.91c.46-2.16,1-4.86,3.11-6.94a9.48,9.48,0,0,1,1-.72l.09-.06,1.29-1,.88-.65Zm-.27-.37-.91.66-1.36,1a8.34,8.34,0,0,0-1.06.82c-2.38,2.33-3,5.43-3.43,7.48a22.59,22.59,0,0,0-.42,3,17.82,17.82,0,0,1-.65,3.77c-.64,2.27-1.16,3-1.62,3.5A6.79,6.79,0,0,1,64.05,245h-.12c-2.17.28-5.2,1.24-10.8,3.11l-1.5,1c6.51-2.17,9.84-3.27,12.14-3.56h.12a7.33,7.33,0,0,0,4.58-1.9c.52-.53,1.09-1.35,1.75-3.72a17.72,17.72,0,0,0,.68-3.89,21.21,21.21,0,0,1,.41-3c.41-2,1-5,3.27-7.2a7.69,7.69,0,0,1,1-.77l1.37-1,1.05-.77ZM60.28,302.74a20.36,20.36,0,0,1-1.9-1.28c-1.63-1.27-2.63-2.57-7.34-12.16l-.78-1.59c-.1-.2-.2-.4-.28-.59l.31.63.78,1.54c4.71,9.57,5.76,10.94,7.35,12.17a18.48,18.48,0,0,0,1.81,1.22A18.69,18.69,0,0,1,59,301c-1.51-1.17-2.52-2.51-7.17-12l-.76-1.54c-1.74-3.56-2.21-4.52-3.53-6a12.69,12.69,0,0,0-2.62-2.23,30.83,30.83,0,0,1-3.14-2.42c-3.36-2.91-5.38-4.66-6.32-7.67a12.77,12.77,0,0,1-.2-6.21c-.37.42-.73.85-1.07,1.28,0,.13,0,.26,0,.39a2.34,2.34,0,0,1,0-.38l-.29.37a12.31,12.31,0,0,0,.48,4.87c1,3.29,3.26,5.22,6.64,8.16a32.4,32.4,0,0,0,3.22,2.48,11.44,11.44,0,0,1,2.43,2.07c1.21,1.34,1.67,2.26,3.36,5.71l.77,1.58c4.77,9.7,5.78,11,7.49,12.36a18.5,18.5,0,0,0,2.86,1.87A13.17,13.17,0,0,1,60.28,302.74ZM34.36,268.45a8.78,8.78,0,0,1-.21-1.3A13,13,0,0,0,34.36,268.45Zm.23.91c-.09-.3-.17-.6-.23-.89.07.29.15.59.25.89a10.86,10.86,0,0,0,1,2.16A10.31,10.31,0,0,1,34.59,269.36Zm6.51,7.93-1.21-1.06,1.19,1,.77.66ZM49.44,286l.52,1.06C49.77,286.71,49.59,286.35,49.44,286ZM124,198.88a2.29,2.29,0,0,1-.1.23c0,.08-.06.17-.1.26s-.11.24-.17.36c.06-.12.11-.25.16-.37a2.72,2.72,0,0,0,.11-.25l.09-.25c-.08-.26-.18-.51-.27-.77a9.46,9.46,0,0,1-.41,1.11,8.9,8.9,0,0,1-1.64,2.55c-1.79,1.91-4,2.42-6.14,2.91a25.36,25.36,0,0,1-9.15.26c-2.62-.38-4.68-.68-6.88-2.09a39.13,39.13,0,0,1-4.43-4.28c-.68-.71-1.25-1.29-1.73-1.8-2-2.1-2.43-2.54-3.53-3.09s-3.63-1.79-6.42-.7c-3,1.16-4.14,4.35-4.48,5.67a8,8,0,0,0-.25,1.45,3.24,3.24,0,0,1,.36-.2,8,8,0,0,1,.2-1.09c0-.13.08-.28.14-.45l-.13.46a9.6,9.6,0,0,0-.2,1.07c.27-.14.54-.28.82-.4,0-.19.07-.39.12-.58.3-1.16,1.27-4,3.83-4.95,2.36-.93,4.7.23,5.58.67s1.32.87,3.23,2.87l1.73,1.8a36.88,36.88,0,0,0,4.61,4.43c2.37,1.53,4.54,1.84,7.27,2.24h0a26.27,26.27,0,0,0,9.52-.28c2.21-.51,4.68-1.07,6.69-3.21a10,10,0,0,0,1.8-2.78C124.17,199.41,124.08,199.14,124,198.88Zm-40.61-5.39a5.68,5.68,0,0,0-1.39.78,5.18,5.18,0,0,1,1.38-.79,5.61,5.61,0,0,1,1.61-.36A6.41,6.41,0,0,0,83.38,193.49Zm22.82,11.94h0a32.78,32.78,0,0,1-3.31-.59c1,.25,2.12.41,3.32.58l.41.06Z" fill="#6b8fe1"/><path d="M97.92,333.25a15,15,0,0,1-1.9-.12,8.76,8.76,0,0,1-4.49-1.85c-2.12-1.71-2.58-4.12-2.76-6.47-.08-1-.13-2-.22-2.94v-.11a49.39,49.39,0,0,0-.34-5,39.73,39.73,0,0,0-1.37-6.41l-.52.13a39.49,39.49,0,0,1,1.37,6.37c.2,1.63.29,3.32.33,4.95v.11c.1.94.15,2,.22,2.95.19,2.47.68,5,3,6.84a9.26,9.26,0,0,0,4.76,2,16,16,0,0,0,2,.13h0c.66-.21,1.31-.45,2-.7A13,13,0,0,1,97.92,333.25Zm44-40.43a39.74,39.74,0,0,0-7.49-6.5c-.62-.47-1.35-1-2.07-1.52a80,80,0,0,0-13.27-7.68l-1.07-.53a11.94,11.94,0,0,1-6.6-7.72,15.53,15.53,0,0,1-.48-5.48l-.47-.57-.53-.64a25,25,0,0,0-.15,2.62,15.51,15.51,0,0,0,.57,4.34,12.91,12.91,0,0,0,7.13,8.37l1.08.53a80.46,80.46,0,0,1,13.1,7.56c.53.41,1.09.81,1.61,1.2l.47.34a39.26,39.26,0,0,1,7.31,6.33,15.32,15.32,0,0,1,1.24,1.71c.23-.32.46-.63.67-.95A16.06,16.06,0,0,0,141.93,292.82Zm1.95,10.93-.45-.54a8.25,8.25,0,0,1-4.69,5.22l-.85.39a53.31,53.31,0,0,1-7.13,2.86c-5.89,1.73-11.27,5-17.45,10.74-1.1,1-2.13,2.11-3.12,3.19l-.22.24c-.64.71-1.31,1.43-2,2.11-3.61,3.67-7.52,5.18-12,4.6a8.29,8.29,0,0,1-4.22-1.73c-2-1.58-2.4-3.87-2.57-6.1-.07-.9-.11-1.82-.16-2.72v-.2c-.08-1.61-.17-3.42-.39-5.14a41.22,41.22,0,0,0-1.38-6.44l-.45.12a39.49,39.49,0,0,1,1.37,6.39c.22,1.7.31,3.51.59,5.1v.2a11.4,11.4,0,0,0,0,2.74c.18,2.35.64,4.76,2.77,6.46A8.69,8.69,0,0,0,96,333.09a13.37,13.37,0,0,0,4,0h0a51.27,51.27,0,0,0,5.29-2.36l1.18-.63a20.92,20.92,0,0,0,1.88-1.7c.67-.69,1.35-1.42,2-2.12l.22-.23c1-1.08,2-2.19,3.09-3.17,6.12-5.65,11.44-8.92,17.25-10.62a55.91,55.91,0,0,0,7.19-2.89l.86-.39a9.78,9.78,0,0,0,2.75-1.85A9,9,0,0,1,139,309l-.69.32a56.32,56.32,0,0,1-7.35,3c-5.82,1.71-11.14,5-17.25,10.62-1.14,1-2.21,2.21-3.24,3.33l0,.06c-.65.71-1.33,1.44-2,2.13a18.15,18.15,0,0,1-1.74,1.59c.71-.39,1.44-.82,2.17-1.28.68-.68,1.34-1.39,2-2.1l0,0c1-1.11,2.08-2.26,3.2-3.3,6-5.58,11.3-8.82,17-10.5a56.42,56.42,0,0,0,7.43-3l.68-.32a9.56,9.56,0,0,0,5-5.23Zm-27-89.29a40.74,40.74,0,0,0-5.06-.26c-.7,0-1.45,0-2.24-.06h-.06a.62.62,0,0,0-.19,0l-1.27.26c-.84.17-1.72.34-2.58.55a14.6,14.6,0,0,0-10.6,9.31c-2,5.27-3.74,10.81-5.17,15.59a26.24,26.24,0,0,0-.79,4.81l0,.2-.15,1.4a25.74,25.74,0,0,0-.23,2.91v.07c-.22,1.4-.36,2.85-.59,4.26a8.07,8.07,0,0,1-4,5.68c-1.6,1-3.28,1.91-4.9,2.8-1.14.63-2.35,1.3-3.51,2l-.66.38.63.76.5-.29c1.16-.68,2.36-1.35,3.49-2l.15-.08c1.58-.88,3.21-1.78,4.79-2.74a9.11,9.11,0,0,0,4.45-6.42c.22-1.35.36-2.73.5-4.06l0-.39c.09-.92.18-1.88.3-2.82.06-.5.12-1,.18-1.63a25.11,25.11,0,0,1,.77-4.6c1.5-5,3.14-10.32,5.13-15.52a13.62,13.62,0,0,1,9.87-8.66c.79-.19,1.62-.35,2.41-.51l1.37-.27h0c.73,0,1.48,0,2.21,0h.05a38.84,38.84,0,0,1,4.94.26c3.94.55,6.53,2.34,7.72,5.32.09.24.18.47.26.71.08-.33.16-.66.23-1h0c.06-.28.12-.57.16-.86C123.65,216.74,120.89,215,116.92,214.46ZM89.1,249.15l0,.16v-.07c.09-1,.19-1.93.31-2.88C89.28,247.29,89.19,248.23,89.1,249.15Zm.48-4.45c0,.46-.09.86-.14,1.24,0-.33.07-.67.1-1l0-.22A27.24,27.24,0,0,1,90,241.5,28.92,28.92,0,0,0,89.58,244.7Z" fill="#6b8fe1"/></svg>
