<svg id="Layer_1" data-name="Layer 1" xmlns="http://www.w3.org/2000/svg" viewBox="0 0 416.82 477"><g id="no_plastic_bag" data-name="no plastic bag"><path d="M345,106.77c-5.32-5.76-16.71-15.49-16.71-15.49V37a19,19,0,0,0-18.92-19H266.81a19,19,0,0,0-19,19V53.37a196,196,0,0,0-86,1.69V37a19,19,0,0,0-19-19H100S81.07,26.71,80.52,37.17V97.69c-2.86,3-6.2,6.13-9.42,9.41-74.07,75.26-73.76,196.11.71,271a107.11,107.11,0,0,0,9.64,8.7v39.54C81,444.19,113.36,459,113.36,459H295.82c17.86-.25,32.35-14.73,31.52-32.6V393.14a135.78,135.78,0,0,0,19.05-16.5C419.82,301.29,419.21,181,345,106.77ZM208.64,64.25h.5a179.25,179.25,0,0,1,38.7,4.32V138.2h-86V70.43A179.32,179.32,0,0,1,208.64,64.25Zm38.77,86.89a16.89,16.89,0,0,1-16.78,15.72H178.56a16.88,16.88,0,0,1-16.78-15.72ZM125.83,43.91H94.39V37.17a6.15,6.15,0,0,1,6.09-6.2h42.45a6,6,0,0,1,6,6.05V149.84a30,30,0,0,0,29.85,30h52.15a30,30,0,0,0,29.86-30v-93H292a6.63,6.63,0,0,0,6.67-5.66,6.47,6.47,0,0,0-6.42-7.28H260.79V37.17a6.07,6.07,0,0,1,5.93-6.2h42.64a6.07,6.07,0,0,1,6,6.16V309.05L94.39,164.68V56.85h31.19a6.64,6.64,0,0,0,6.67-5.66A6.47,6.47,0,0,0,125.83,43.91ZM81.45,118v38.09L61.18,142.9A179.13,179.13,0,0,1,81.45,118ZM30.92,241.72A176.93,176.93,0,0,1,53.41,155.5l28,18.3V366.36A176.57,176.57,0,0,1,30.92,241.72ZM295.85,446H113.38A19.62,19.62,0,0,1,94,426.62H315.15A19.61,19.61,0,0,1,295.82,446ZM94.39,413.68V182.08L315.33,326.44v87.24Zm241.27-47.76c-2.4,2.47-4.87,4.84-7.39,7.17V335.64l21.44,14a171.87,171.87,0,0,1-14,16.32Zm23.11-28.81-30.5-19.92V110.9q3.24,2.94,6.35,6.08a177.62,177.62,0,0,1,24.15,220.16Z" fill="#9dbcd8"/><path d="M242.43,337l-100.3-67.14a6.49,6.49,0,0,0-9.91,3.16,5.94,5.94,0,0,0-.34,2.57,6.56,6.56,0,0,0,3.06,5L235.25,347.7a6.47,6.47,0,0,0,7.38-10.62l-.18-.13Z" fill="#9dbcd8"/><path d="M182.21,335.67l-48.38-31.83a6.47,6.47,0,1,0-7.3,10.69l.18.11,48.39,31.85a6.49,6.49,0,0,0,9.94-3.41,5.73,5.73,0,0,0,.24-2.6,6.57,6.57,0,0,0-3.07-4.8Z" fill="#9dbcd8"/></g></svg>
