<svg id="Layer_1" data-name="Layer 1" xmlns="http://www.w3.org/2000/svg" viewBox="0 0 416.92 495"><g id="no_plastic_cup" data-name="no plastic cup"><path d="M369,165.84a187.2,187.2,0,0,0-64.15-65.26v-3.2a12.47,12.47,0,0,0-12.47-12.47H256.74V38.58h36.39a6.05,6.05,0,0,0,6-4.53c.85-3.75-2.21-7-6.1-7H250.51a6.24,6.24,0,0,0-6.24,6.24V84.91H124.89a12.47,12.47,0,0,0-12.47,12.47v38.31h-8.3a12.75,12.75,0,0,0-12.48,12.65,11.8,11.8,0,0,0,.09,1.46l4,33.71-30.06-19.6a166.48,166.48,0,0,1,47.67-47.17V99.81a185.55,185.55,0,0,0,22.83,330.26l1.49,20.32c.72,9.85,18.78,17.61,18.78,17.61H261.55a18.93,18.93,0,0,0,18.88-17.49l1.55-21.1a188.17,188.17,0,0,0,77.14-62c1-1.42,2.05-2.86,3.05-4.32A185.13,185.13,0,0,0,369,165.87ZM124.89,96.49H292.38v39.2H124.89ZM317,148.17l-4.41,37.41h-203l-4.41-37.42Zm-31.09,63.25-6.77,92.14L132.26,207.71l-.65-8.76H286.78ZM119.54,199v.18l-.29-.18ZM86.78,379.83A171.61,171.61,0,0,1,58.22,176l62.21,40.61,14.48,197.27A171.58,171.58,0,0,1,86.78,379.83Zm181.55,69.79a6.38,6.38,0,0,1-6.34,5.91H156.36a6.38,6.38,0,0,1-6.34-5.94L133.57,225.31l144.33,94.2Zm62.36-71a171.43,171.43,0,0,1-47.54,34.5l6.32-85.82L344.25,363a175.22,175.22,0,0,1-13.56,15.62Zm21.57-28.74-61.38-40.06,8.22-111.73h14.17a12.4,12.4,0,0,0,12.33-10.94L330,149.53a12.39,12.39,0,0,0-10.87-13.75,11.64,11.64,0,0,0-1.45-.09H304.85V117.35a170.58,170.58,0,0,1,47.41,232.49Z" fill="#9dbcd8"/></g></svg>
