<svg id="Layer_1" data-name="Layer 1" xmlns="http://www.w3.org/2000/svg" viewBox="0 0 456.37 495.42"><path d="M441.2,113.41,361,67.36a56.2,56.2,0,0,0-22.73-7.22l-.29,0h-.7a56.56,56.56,0,0,0-43.1,15.28,193.09,193.09,0,0,0-33-11.28l30.63-4.7a12.94,12.94,0,0,0,10.81-14.73l-2.9-18.79A12.91,12.91,0,0,0,285,15.07l-91.38,14.1a55.91,55.91,0,0,0-22.25,8.53l-.26.14c-.2.13-.4.27-.58.41a56.7,56.7,0,0,0-22.77,32C46.08,107.24-6.39,219.66,30.6,321.36A196,196,0,0,0,96.94,411L86.72,428.6a12.93,12.93,0,0,0,4.77,17.63L108,455.69A12.94,12.94,0,0,0,125.6,451l10-17.24a194.75,194.75,0,0,0,64.63,16l3,19.82a12.85,12.85,0,0,0,14.59,10.82l.13,0,18.8-2.89a12.91,12.91,0,0,0,10.77-14.75l-2.25-14.87C352.13,430.85,425,330.48,408,223.65a195.92,195.92,0,0,0-54.56-107.37c-1.25-1.26-2.52-2.48-3.76-3.7l69.21,39.73a12.92,12.92,0,0,0,17.62-4.78L445.9,131A12.94,12.94,0,0,0,441.2,113.41ZM329.78,73.13,327.3,93.8a28.88,28.88,0,0,0-8.06,3.44L301.7,86.36A43.3,43.3,0,0,1,329.78,73.13ZM175,115.16a6.5,6.5,0,0,0-6.84-3.42h0l-5.59.86-2.82-18.52,18.42-2.19v.32l22.76,150.24-20.8-13.58L164.52,125.6l5.64-.86A6.6,6.6,0,0,0,175,115.16ZM191.35,90a15.3,15.3,0,0,1,8.55-16.12c4.85-.38,9.74-.59,14.66-.59h.51a180.55,180.55,0,0,1,69.37,14c-.12.21-.26.42-.38.64l-73.82,127.3Zm24.44,162.13-2.39-15.85,64.68-111.56,5,2.87a6.59,6.59,0,1,0,6.58-11.41l-4.93-2.82,9.39-16.2,15.78,9.78-.17.28L223,256.83Zm-20.19-210,91.16-14,2.82,18.31L221.91,56.78l-.73-6.11A6.58,6.58,0,1,0,208.09,52l0,.24.78,6.58-6.69,1A28.08,28.08,0,0,0,194,62.3L183.7,45.69A43.15,43.15,0,0,1,195.6,42.06Zm-22.77,11,11,17.7a28.34,28.34,0,0,0-4.16,7.71l-20.5,2.44A43.33,43.33,0,0,1,172.83,53.06ZM86,127.49A180.46,180.46,0,0,1,146.14,87a11.32,11.32,0,0,0,.06,1.42v.8c.11,1.36.25,2.73.46,4.09l19,125.93L64.8,153.36A183.13,183.13,0,0,1,86,127.49Zm.4,254.33A181,181,0,0,1,56.65,166.17l111.83,73,5.77,38.34L104.5,397.8A184.42,184.42,0,0,1,86.39,381.82Zm27.9,62.24-16.11-9.24L177.36,298.3,181.84,328c-.09.14-.2.28-.28.43Zm29.09-23.49,41.79-71.78,12.92,85.6a179.52,179.52,0,0,1-54.71-13.87Zm72.8,46.67-33-218.44L204,262.37,234.5,464.42Zm128.31-86.7a179,179,0,0,1-101,52.4L221.4,286.5l5.5-9.48,132.32,86.37a180.44,180.44,0,0,1-14.73,17.11Zm50.75-125.69a179.92,179.92,0,0,1-28,96.24L233.87,264l87.06-150.26a15.32,15.32,0,0,1,2.77-3.49,184.13,184.13,0,0,1,18.93,16.58,179.59,179.59,0,0,1,52.61,128Zm30-114.13-59.41-34.11,3.25-5.23a6.58,6.58,0,1,0-11.18-6.94l-3.48,5.64-5.88-3.37a28.52,28.52,0,0,0-7.9-3.08L343,74.21a42.68,42.68,0,0,1,11.53,4.56l80,45.89Z" fill="#9dbcd8"/></svg>
