<svg id="Layer_1" data-name="Layer 1" xmlns="http://www.w3.org/2000/svg" viewBox="0 0 416.82 495"><path d="M257.81,96.4v92.28c0,2.71-2.65,4.9-5.91,4.9h-38v-.13h-39.5c-3.26,0-5.92-2.2-5.92-4.9V96.27c0-2.71-2.65-4.9-5.91-4.9H97.77c-3.27,0-5.92,2.19-5.92,4.9V426.34c0,2.7,2.65,4.9,5.92,4.9H212.4v.13H328.56c3.27,0,5.92-2.19,5.92-4.9V96.4c0-2.7-2.65-4.89-5.92-4.89H263.73C260.46,91.51,257.81,93.7,257.81,96.4Z" fill="none" stroke="#9dbcd8" stroke-miterlimit="10" stroke-width="15"/><line x1="98.17" y1="383.28" x2="332.34" y2="383.28" fill="none" stroke="#9dbcd8" stroke-miterlimit="10" stroke-width="15"/></svg>
