<svg id="Layer_1" data-name="Layer 1" xmlns="http://www.w3.org/2000/svg" viewBox="0 0 274 91.46"><path d="M0,0V91.46H274V0ZM43.18,52c-1.34,5.22-6.49,6.83-10.89,3.69l-.66-.49v9.66H26.69V38.58c2.79-.86,3.92-.46,4.85,1.89A6.65,6.65,0,0,1,37.86,38c3.08.5,5.25,2.62,5.71,6.37A20.82,20.82,0,0,1,43.18,52Zm8.07,4.83h-5V31.19h5Zm20.49-1.53c0,.56-.56,1.6-.85,1.6-1.08,0-2.47.81-3.15-.8-.18-.41-.35-.84-.59-1.42-.41.31-.76.55-1.07.83-2.3,2.1-5,2.08-7.71,1.24-2.38-.74-3.12-2.8-3.2-5.14s.61-4.36,2.92-5.09a53.18,53.18,0,0,1,6.5-1.16c.71-.14,1.94.52,1.94-.94,0-1.23-.51-2.36-1.92-2.39a10.77,10.77,0,0,0-4,.49c-1.64.64-2.54.38-3.06-1.28a16.68,16.68,0,0,0-.67-1.6c3.79-1.79,7.49-2.35,11.28-1,2.64,1,3.59,3.19,3.62,5.85C71.8,48.06,71.81,51.65,71.74,55.25ZM87.89,52.4C87.48,55,85.42,56.88,82.32,57a53.43,53.43,0,0,1-6.8-.36c-1.28-.09-1.88-.8-1.68-2.17a18.08,18.08,0,0,0,0-2.45c2,.45,3.77.87,5.55,1.22a3.22,3.22,0,0,0,1.69,0A2.94,2.94,0,0,0,82.69,52c.13-.35-.49-1.25-1-1.53-1.48-.85-3.07-1.49-4.6-2.26-2.65-1.35-3.59-3.11-3.22-6,.25-2,2-3.55,4.69-4.08a14.8,14.8,0,0,1,9.19,1.25c-.51,1.24-1,2.42-1.46,3.56a40.35,40.35,0,0,0-4.92-1c-.74-.08-1.53.55-2.3.86a8.11,8.11,0,0,0,1.63,1.72c1.07.62,2.29,1,3.43,1.52C87.15,47.41,88.35,49.45,87.89,52.4ZM101,55.74a1.25,1.25,0,0,1-.81.87,31.94,31.94,0,0,1-6.4.15c-1.83-.24-2.88-1.84-3.07-3.67-.22-2.14-.2-4.31-.26-6.48,0-1.36,0-2.72,0-4.17l-2.1-.3c-.57-1.41-.21-2.3,1.13-3.1a5.38,5.38,0,0,0,1.92-2.4c1.12-2.55,1.05-2.59,4.06-2.1.19,1.27,0,2.88.63,3.45s2.27.23,3.46.3c.33,0,.67.08,1.11.13v3.84h-4.9c0,3.14-.09,6.15.09,9.14,0,.55,1.13,1.33,1.84,1.48a12.49,12.49,0,0,0,3.35-.26A29.56,29.56,0,0,1,101,55.74Zm7.78.11a1.45,1.45,0,0,1-1,1,12.12,12.12,0,0,1-3.24,0,1.43,1.43,0,0,1-.91-1.06c-.06-5.71,0-11.42,0-17.51,1.58,0,3-.06,4.39,0,.29,0,.76.66.76,1Q108.85,47.63,108.76,55.85ZM106.1,36.14c-1.86,0-2.74-.8-2.75-2.47S104.41,31,106.22,31,109,32,109,33.59,108.05,36.16,106.1,36.14Zm13.09,15.63c2.48,2.34,5.08.83,7.89-.27a30.88,30.88,0,0,1,0,3.75,1.78,1.78,0,0,1-1,1.12,10.93,10.93,0,0,1-9.11-.17,8.13,8.13,0,0,1-3.23-3.55,12.52,12.52,0,0,1-.45-8.7,7.55,7.55,0,0,1,6.6-5.85,13.92,13.92,0,0,1,7.93,1.11c-.56,1.44-1,2.68-1.54,3.95-2.66-.57-5.37-2.33-7.38.78C117.53,45.9,117.72,50.37,119.19,51.77Zm22.51,0c1.37,1.57,3.49,1.52,8-.3a25.79,25.79,0,0,1-.06,3.56,2,2,0,0,1-1.07,1.3,12,12,0,0,1-9.15-.07,5.49,5.49,0,0,1-1.67-1.17c-2.59-2.46-3.29-8.5-1.47-12.59,1.42-3.19,4.84-5,9-4.58a51.05,51.05,0,0,1,5.1,1.09l-1.6,4.14c-2.64-.58-5.28-2.28-7.31.64C140,45.81,140.29,50.17,141.7,51.79Zm29,5.14c-1.34,0-2.81.08-4.26,0-.27,0-.68-.81-.69-1.25-.06-3,0-5.94,0-8.92a12.55,12.55,0,0,0-.18-2,2.56,2.56,0,0,0-2.4-2.48c-1.55-.12-2.92.29-3.49,1.86a10.81,10.81,0,0,0-.64,3.33c-.1,2.68-.08,5.37,0,8,0,1.08-.27,1.55-1.43,1.53-4.67-.1-3.82.61-3.85-3.72-.05-6.8,0-13.6,0-20.4,0-1.41.38-2,1.83-1.83,1.06.09,2.14,0,3.38,0v9.23a7.34,7.34,0,0,1,7.38-2.11c2.52.57,4.3,2.2,4.4,4.8C170.82,47.5,170.69,52.07,170.69,56.93Zm18.72-1.63c0,.55-.6,1.57-.9,1.56-1,0-2.47.82-3.06-.87-.16-.43-.37-.84-.69-1.54-1.79,2.38-4.21,2.85-6.87,2.68A5,5,0,0,1,173,53.08c-.64-2.91.2-5.5,2.47-6.45A24.34,24.34,0,0,1,181,45.36a20,20,0,0,1,3.19,0c.22-2.55-.58-3.58-2.78-3.42a46.63,46.63,0,0,0-5.2,1c-.47-1-1-2-1.62-3.32,3.86-1.76,7.63-2.38,11.53-.87,2.41.94,3.33,3,3.36,5.46C189.47,47.88,189.48,51.59,189.41,55.3Zm20.39,1.63c-1.6,0-3,.08-4.41-.06-.32,0-.77-.88-.77-1.35-.08-3.2,0-6.39-.06-9.59,0-2.58-.83-3.67-2.73-3.75-2.15-.08-3.58,1.13-3.73,3.56-.21,3.18-.26,6.37-.25,9.57,0,1.25-.34,1.7-1.65,1.67-4.3-.1-3.53.42-3.57-3.5,0-4.39,0-8.79,0-13.18,0-.73-.52-2,.89-1.95s3.12-1,3.55,1.37a4.51,4.51,0,0,0,.39.83,6.89,6.89,0,0,1,5.85-2.64c4.05,0,6.4,2.29,6.46,6.35S209.8,52.57,209.8,56.93Zm9.71-6.09a7.75,7.75,0,0,0-1.52,0c-.37.11-.86.48-.92.8s.34.8.66,1a3.52,3.52,0,0,0,1.49.26c1.43,0,2.85,0,4.28,0,2.85.11,4.86,1.5,5.38,3.67A5.85,5.85,0,0,1,226,63.3a14.75,14.75,0,0,1-12.56.69,5.61,5.61,0,0,1-2.72-3c-.94-2.36.12-4,2.93-5.54-.33-1.06-1-2.15-.89-3.13s1-1.88,1.66-2.89a5.86,5.86,0,0,1-2.54-5.92c.46-3.54,2.61-5.42,6.82-5.57a95.62,95.62,0,0,1,9.56.39,1.43,1.43,0,0,1,.87,1.07,3.09,3.09,0,0,1-.79,1.78c-.35.35-1.06.34-1.75.52C228.5,47.77,224.63,50.71,219.51,50.84Zm26.74-2H234.69a3.9,3.9,0,0,0,4,4.43,24.77,24.77,0,0,0,3.22-.35c1.05-.2,2.06-.57,3.14-.87a3.52,3.52,0,0,1,.17.35c.34,3.67-.24,4.4-3.92,4.65a25.67,25.67,0,0,1-5,0,7.58,7.58,0,0,1-6.81-6.66,18.6,18.6,0,0,1,.3-6.74c1-4,4.72-6.09,9-5.66s6.84,2.77,7.36,7.15A35.69,35.69,0,0,1,246.25,48.83Z" fill="#004b8b"/><path d="M246.25,48.83a35.69,35.69,0,0,0,0-3.75c-.52-4.38-3-6.71-7.36-7.15s-8,1.67-9,5.66a18.6,18.6,0,0,0-.3,6.74A7.58,7.58,0,0,0,236.34,57a25.67,25.67,0,0,0,5,0c3.68-.25,4.26-1,3.92-4.65a3.52,3.52,0,0,0-.17-.35c-1.08.3-2.09.67-3.14.87a24.77,24.77,0,0,1-3.22.35,3.9,3.9,0,0,1-4-4.43Zm-8.19-7.11c2,0,3.18,1.28,3.14,3.55h-6.39C234.85,43,236,41.71,238.06,41.72Z" fill="#fff"/><path d="M223.5,52.89c-1.43,0-2.85,0-4.28,0a3.52,3.52,0,0,1-1.49-.26c-.32-.17-.71-.68-.66-1s.55-.69.92-.8a7.75,7.75,0,0,1,1.52,0c5.12-.13,9-3.07,7.12-9.12.69-.18,1.4-.17,1.75-.52a3.09,3.09,0,0,0,.79-1.78,1.43,1.43,0,0,0-.87-1.07,95.62,95.62,0,0,0-9.56-.39c-4.21.15-6.36,2-6.82,5.57a5.86,5.86,0,0,0,2.54,5.92c-.62,1-1.53,1.91-1.66,2.89s.56,2.07.89,3.13c-2.81,1.55-3.87,3.18-2.93,5.54a5.61,5.61,0,0,0,2.72,3A14.75,14.75,0,0,0,226,63.3a5.85,5.85,0,0,0,2.84-6.74C228.36,54.39,226.35,53,223.5,52.89Zm-4-11.67c1.81,0,2.63,1,2.63,3.18s-.8,3.07-2.55,3.08-2.71-1-2.67-3.17S217.79,41.24,219.48,41.22Zm4.1,19.05c-1.39,1.33-5.84,1.66-7.48.67a1.78,1.78,0,0,1,.07-3.25,13.94,13.94,0,0,1,3.38-.76,23.56,23.56,0,0,1,3.44.44c.52.14,1.21.7,1.27,1.14A2.34,2.34,0,0,1,223.58,60.27Z" fill="#fff"/><path d="M209.8,56.93c-1.6,0-3,.08-4.41-.06-.32,0-.77-.88-.77-1.35-.08-3.2,0-6.39-.06-9.59,0-2.58-.83-3.67-2.73-3.75-2.15-.08-3.58,1.13-3.73,3.56-.21,3.18-.26,6.37-.25,9.57,0,1.25-.34,1.7-1.65,1.67-4.3-.1-3.53.42-3.57-3.5,0-4.39,0-8.79,0-13.18,0-.73-.52-2,.89-1.95s3.12-1,3.55,1.37a4.51,4.51,0,0,0,.39.83,6.89,6.89,0,0,1,5.85-2.64c4.05,0,6.4,2.29,6.46,6.35S209.8,52.57,209.8,56.93Z" fill="#fff"/><path d="M189.43,44.17c0-2.46-1-4.52-3.36-5.46-3.9-1.51-7.67-.89-11.53.87.61,1.27,1.15,2.36,1.62,3.32a46.63,46.63,0,0,1,5.2-1c2.2-.16,3,.87,2.78,3.42a20,20,0,0,0-3.19,0,24.34,24.34,0,0,0-5.44,1.27c-2.27.95-3.11,3.54-2.47,6.45a5,5,0,0,0,4.85,4.05c2.66.17,5.08-.3,6.87-2.68.32.7.53,1.11.69,1.54.59,1.69,2,.83,3.06.87.3,0,.89-1,.9-1.56C189.48,51.59,189.47,47.88,189.43,44.17Zm-8.61,9.13c-1.21.06-2.34-.18-2.58-1.61a2.28,2.28,0,0,1,1.66-2.79,31.76,31.76,0,0,1,4.24-.62C184.44,51.56,183.28,53.18,180.82,53.3Z" fill="#fff"/><path d="M170.69,56.93c-1.34,0-2.81.08-4.26,0-.27,0-.68-.81-.69-1.25-.06-3,0-5.94,0-8.92a12.55,12.55,0,0,0-.18-2,2.56,2.56,0,0,0-2.4-2.48c-1.55-.12-2.92.29-3.49,1.86a10.81,10.81,0,0,0-.64,3.33c-.1,2.68-.08,5.37,0,8,0,1.08-.27,1.55-1.43,1.53-4.67-.1-3.82.61-3.85-3.72-.05-6.8,0-13.6,0-20.4,0-1.41.38-2,1.83-1.83,1.06.09,2.14,0,3.38,0v9.23a7.34,7.34,0,0,1,7.38-2.11c2.52.57,4.3,2.2,4.4,4.8C170.82,47.5,170.69,52.07,170.69,56.93Z" fill="#fff"/><path d="M149.67,51.49a25.79,25.79,0,0,1-.06,3.56,2,2,0,0,1-1.07,1.3,12,12,0,0,1-9.15-.07,5.49,5.49,0,0,1-1.67-1.17c-2.59-2.46-3.29-8.5-1.47-12.59,1.42-3.19,4.84-5,9-4.58a51.05,51.05,0,0,1,5.1,1.09l-1.6,4.14c-2.64-.58-5.28-2.28-7.31.64-1.4,2-1.12,6.36.29,8S145.19,53.31,149.67,51.49Z" fill="#fff"/><path d="M127.08,51.5a30.88,30.88,0,0,1,0,3.75,1.78,1.78,0,0,1-1,1.12,10.93,10.93,0,0,1-9.11-.17,8.13,8.13,0,0,1-3.23-3.55,12.52,12.52,0,0,1-.45-8.7,7.55,7.55,0,0,1,6.6-5.85,13.92,13.92,0,0,1,7.93,1.11c-.56,1.44-1,2.68-1.54,3.95-2.66-.57-5.37-2.33-7.38.78-1.27,2-1.08,6.43.39,7.83C121.67,54.11,124.27,52.6,127.08,51.5Z" fill="#fff"/><path d="M109,33.59c0,1.73-.92,2.57-2.87,2.55s-2.74-.8-2.75-2.47S104.41,31,106.22,31,109,32,109,33.59Z" fill="#fff"/><path d="M108.76,55.85a1.45,1.45,0,0,1-1,1,12.12,12.12,0,0,1-3.24,0,1.43,1.43,0,0,1-.91-1.06c-.06-5.71,0-11.42,0-17.51,1.58,0,3-.06,4.39,0,.29,0,.76.66.76,1Q108.85,47.63,108.76,55.85Z" fill="#fff"/><path d="M101,55.74a1.25,1.25,0,0,1-.81.87,31.94,31.94,0,0,1-6.4.15c-1.83-.24-2.88-1.84-3.07-3.67-.22-2.14-.2-4.31-.26-6.48,0-1.36,0-2.72,0-4.17l-2.1-.3c-.57-1.41-.21-2.3,1.13-3.1a5.38,5.38,0,0,0,1.92-2.4c1.12-2.55,1.05-2.59,4.06-2.1.19,1.27,0,2.88.63,3.45s2.27.23,3.46.3c.33,0,.67.08,1.11.13v3.84h-4.9c0,3.14-.09,6.15.09,9.14,0,.55,1.13,1.33,1.84,1.48a12.49,12.49,0,0,0,3.35-.26A29.56,29.56,0,0,1,101,55.74Z" fill="#fff"/><path d="M87.89,52.4C87.48,55,85.42,56.88,82.32,57a53.43,53.43,0,0,1-6.8-.36c-1.28-.09-1.88-.8-1.68-2.17a18.08,18.08,0,0,0,0-2.45c2,.45,3.77.87,5.55,1.22a3.22,3.22,0,0,0,1.69,0A2.94,2.94,0,0,0,82.69,52c.13-.35-.49-1.25-1-1.53-1.48-.85-3.07-1.49-4.6-2.26-2.65-1.35-3.59-3.11-3.22-6,.25-2,2-3.55,4.69-4.08a14.8,14.8,0,0,1,9.19,1.25c-.51,1.24-1,2.42-1.46,3.56a40.35,40.35,0,0,0-4.92-1c-.74-.08-1.53.55-2.3.86a8.11,8.11,0,0,0,1.63,1.72c1.07.62,2.29,1,3.43,1.52C87.15,47.41,88.35,49.45,87.89,52.4Z" fill="#fff"/><path d="M71.77,44.45c0-2.66-1-4.89-3.62-5.85-3.79-1.36-7.49-.8-11.28,1a16.68,16.68,0,0,1,.67,1.6c.52,1.66,1.42,1.92,3.06,1.28a10.77,10.77,0,0,1,4-.49c1.41,0,1.92,1.16,1.92,2.39,0,1.46-1.23.8-1.94.94a53.18,53.18,0,0,0-6.5,1.16c-2.31.73-3,2.78-2.92,5.09S56,56,58.37,56.7c2.69.84,5.41.86,7.71-1.24.31-.28.66-.52,1.07-.83.24.58.41,1,.59,1.42.68,1.61,2.07.78,3.15.8.29,0,.83-1,.85-1.6C71.81,51.65,71.8,48.06,71.77,44.45Zm-8.49,8.83c-1.19.11-2.38,0-2.7-1.45a2.3,2.3,0,0,1,1.66-2.95,33.74,33.74,0,0,1,4.09-.61C66.83,51.33,65.68,53.08,63.28,53.28Z" fill="#fff"/><rect x="46.24" y="31.19" width="5.01" height="25.59" fill="#fff"/><path d="M43.57,44.36c-.46-3.75-2.63-5.87-5.71-6.37a6.65,6.65,0,0,0-6.32,2.48c-.93-2.35-2.06-2.75-4.85-1.89V64.81h4.94V55.15l.66.49c4.4,3.14,9.55,1.53,10.89-3.69A20.82,20.82,0,0,0,43.57,44.36Zm-5.48,6.31a2.61,2.61,0,0,1-3,2.24,2.87,2.87,0,0,1-3-2.31c-.27-1-.35-2.12-.52-3.2.15-1,.25-1.93.45-2.87a2.87,2.87,0,0,1,3.1-2.36,2.63,2.63,0,0,1,3,2.28A27,27,0,0,1,38.09,50.67Z" fill="#fff"/><path d="M223.58,60.27c-1.39,1.33-5.84,1.66-7.48.67a1.78,1.78,0,0,1,.07-3.25,13.94,13.94,0,0,1,3.38-.76,23.56,23.56,0,0,1,3.44.44c.52.14,1.21.7,1.27,1.14A2.34,2.34,0,0,1,223.58,60.27Z" fill="#004b8b"/><path d="M222.11,44.4c0,2.11-.8,3.07-2.55,3.08s-2.71-1-2.67-3.17.9-3.07,2.59-3.09S222.11,42.21,222.11,44.4Z" fill="#004b8b"/><path d="M38.09,50.67a2.61,2.61,0,0,1-3,2.24,2.87,2.87,0,0,1-3-2.31c-.27-1-.35-2.12-.52-3.2.15-1,.25-1.93.45-2.87a2.87,2.87,0,0,1,3.1-2.36,2.63,2.63,0,0,1,3,2.28A27,27,0,0,1,38.09,50.67Z" fill="#004b8b"/><path d="M63.28,53.28c-1.19.11-2.38,0-2.7-1.45a2.3,2.3,0,0,1,1.66-2.95,33.74,33.74,0,0,1,4.09-.61C66.83,51.33,65.68,53.08,63.28,53.28Z" fill="#004b8b"/><path d="M180.82,53.3c-1.21.06-2.34-.18-2.58-1.61a2.28,2.28,0,0,1,1.66-2.79,31.76,31.76,0,0,1,4.24-.62C184.44,51.56,183.28,53.18,180.82,53.3Z" fill="#004b8b"/><path d="M241.2,45.27h-6.39c0-2.29,1.23-3.56,3.25-3.55S241.24,43,241.2,45.27Z" fill="#004b8b"/></svg>
