<svg id="Layer_1" data-name="Layer 1" xmlns="http://www.w3.org/2000/svg" viewBox="0 0 416.82 477"><path d="M318.64,442.12h-116V442H97.65c-8.74,0-15.85-6.21-15.85-13.86V36.29c0-7.65,7.11-13.87,15.85-13.87H154c8.74,0,15.85,6.22,15.85,13.87V141.5c0,1.53,2.24,3.25,5.24,3.25H213.7v.15h27.54c3,0,5.24-1.72,5.24-3.26V36.43c0-7.64,7.11-13.86,15.85-13.86h56.31c8.74,0,15.85,6.22,15.85,13.86V428.26C334.49,435.9,327.38,442.12,318.64,442.12ZM213.2,431.52H318.64c3,0,5.24-1.73,5.24-3.26V36.43c0-1.54-2.24-3.26-5.24-3.26H262.33c-3,0-5.25,1.72-5.25,3.26V141.64c0,7.65-7.11,13.86-15.84,13.86H203.09v-.14h-28c-8.74,0-15.84-6.22-15.84-13.86V36.29C159.21,34.75,157,33,154,33H97.65c-3,0-5.24,1.72-5.24,3.26V428.11c0,1.54,2.24,3.26,5.24,3.26H213.2Z" fill="#9dbcd8"/><rect x="87.11" y="378.65" width="242.08" height="10.85" fill="#9dbcd8"/><path d="M114.57,66.5h-.09L87,66a5,5,0,0,1,.17-10l27.46.47a5,5,0,0,1-.08,10Z" fill="#9dbcd8"/><path d="M277.57,66h-20.7a5,5,0,0,1,0-10h20.7a5,5,0,0,1,0,10Z" fill="#9dbcd8"/></svg>
