<svg id="Layer_1" data-name="Layer 1" xmlns="http://www.w3.org/2000/svg" viewBox="0 0 456.37 495.42"><path d="M234.16,449.28a13.5,13.5,0,0,1-7.77-2.5,14.32,14.32,0,0,1-5.8-9L190.37,287.16l9.8-2,30.22,150.65a4.38,4.38,0,0,0,1.75,2.75,3.45,3.45,0,0,0,2.7.61l10.71-2.14a4,4,0,0,0,2.8-4.83L213,256.21l9.8-2,35.32,176a14,14,0,0,1-10.64,16.59L236.81,449A13.24,13.24,0,0,1,234.16,449.28Z" fill="#9dbcd8"/><path d="M182.81,249.53,155.49,113.34c-.45-1.79-2.94-13,3.24-23.13,4.5-7.39,12.3-12.26,23.18-14.49L294.65,53.1l7.18,35.83-95.92,19.24a12.14,12.14,0,0,0-9.51,14.29l19,94.64v.5h-5l-4.88,1L186.6,124.42a22.11,22.11,0,0,1,17.34-26l86.12-17.28-3.25-16.21L183.89,85.52c-8,1.64-13.57,4.94-16.58,9.82-4.34,7-2.14,15.46-2.12,15.54l.08.35,27.35,136.34Z" fill="#9dbcd8"/><path d="M98.69,416.66a13.28,13.28,0,0,1-7.9-2.58L82,407.64a13.43,13.43,0,0,1-5.38-9.21,14.36,14.36,0,0,1,2.71-10.33l195.56-267c1-1.54,7.6-10.94,19.24-13.22,8.5-1.66,17.36.8,26.35,7.33h0l92.75,67.94-21.6,29.48L312.7,154.86a12.13,12.13,0,0,0-17,2.61L110.22,410.74A14.32,14.32,0,0,1,98.69,416.66ZM299.24,117.42a16.17,16.17,0,0,0-3.12.29c-8.12,1.54-12.85,8.84-12.9,8.91l-.2.3L87.37,394a4.39,4.39,0,0,0-.85,3.16,3.49,3.49,0,0,0,1.37,2.4L96.7,406a4,4,0,0,0,5.45-1.19L287.68,151.56a22.13,22.13,0,0,1,30.93-4.77l70.85,51.9,9.78-13.35-84.67-62C309.16,119.4,304,117.42,299.24,117.42Z" fill="#9dbcd8"/><rect x="275.26" y="132.03" width="10" height="28.32" transform="translate(-2.77 286.94) rotate(-53.99)" fill="#9dbcd8"/><rect x="300.79" y="130.05" width="31.59" height="10" transform="translate(163.06 443.11) rotate(-86.61)" fill="#9dbcd8"/><rect x="163.4" y="120.96" width="28.32" height="10" transform="matrix(0.98, -0.18, 0.18, 0.98, -19.56, 33.56)" fill="#9dbcd8"/><rect x="184.64" y="75.01" width="10" height="36.53" transform="translate(7.81 200.99) rotate(-56.83)" fill="#9dbcd8"/></svg>
