<svg id="Layer_1" data-name="Layer 1" xmlns="http://www.w3.org/2000/svg" viewBox="0 0 456.37 495.42"><path d="M284.86,156.65c-12-7.28-28.88-4.53-37.62,6.13l-8.12,9.92L69.36,380a3,3,0,0,0,.84,4.53l23.16,14a4.19,4.19,0,0,0,5.25-.85L259,201.78c5.16-6.29,15.09-7.91,22.2-3.61l96.47,58.35a6.35,6.35,0,0,0,8-1.3l17.23-21a4.52,4.52,0,0,0-1.27-6.9Z" fill="none" stroke="#9dbcd8" stroke-miterlimit="10" stroke-width="12.95"/><line x1="281.22" y1="198.17" x2="284.86" y2="156.65" fill="none" stroke="#9dbcd8" stroke-miterlimit="10" stroke-width="12.95"/><line x1="259.02" y1="201.78" x2="229.78" y2="184.1" fill="none" stroke="#9dbcd8" stroke-miterlimit="10" stroke-width="12.95"/><path d="M179.29,239l-18.08-63.37A14.7,14.7,0,0,1,172,157.54l111.32-29.2a5.28,5.28,0,0,0,3.88-6.52L279.7,95.56a5.56,5.56,0,0,0-6.8-3.72L138.15,127.18c-13.89,3.64-22.07,17.39-18.27,30.71l3.54,12.39,4,14.23,25.6,89.77" fill="none" stroke="#9dbcd8" stroke-miterlimit="10" stroke-width="13.17"/><path d="M191.2,280.79,231,420.23a3.49,3.49,0,0,1-2.55,4.29l-26.72,7a3.68,3.68,0,0,1-4.48-2.45L165,316" fill="none" stroke="#9dbcd8" stroke-miterlimit="10" stroke-width="13.17"/><line x1="171.99" y1="157.54" x2="138.15" y2="127.18" fill="none" stroke="#9dbcd8" stroke-miterlimit="10" stroke-width="13.17"/><line x1="161.21" y1="175.66" x2="127.47" y2="184.51" fill="none" stroke="#9dbcd8" stroke-miterlimit="10" stroke-width="13.17"/></svg>
