<svg id="Layer_1" data-name="Layer 1" xmlns="http://www.w3.org/2000/svg" viewBox="0 0 564.64 433.9"><path d="M553.7,110.62c-1.2,1.62-5,6.62-10.64,13.12-.46.51-.92,1-1.39,1.58-3,3.34-6.36,7-10.11,10.8l-.75.75h0l-.76.76c-2.75,2.71-5.67,5.46-8.73,8.15l-.92.81a0,0,0,0,0,0,0l-.94.8c-9,7.7-19,14.79-29.36,19.19-.66.29-1.33.56-2,.82a58.31,58.31,0,0,1-10,3c-.69.13-1.38.25-2.06.35a40.7,40.7,0,0,1-10,.31l-.85-.08-1.16-.12h0a0,0,0,0,0,0,0l-1.16-.13q-7.05-.79-13.34-1.89c-.84-.14-1.67-.28-2.48-.44-29-5.32-45-14.34-45-14.34s-1.12,8.25-3.51,21.34c-.15.79-.3,1.6-.45,2.42-1.12,6-2.49,12.92-4.12,20.43l-.21,1h0c-.07.31-.14.63-.22,1q-.77,3.52-1.62,7.22c-.07.31-.14.62-.22.94v0c-.08.31-.15.63-.23.94-.4,1.75-.83,3.53-1.26,5.32-.08.31-.16.63-.23.94h0c-.08.31-.16.62-.23.93-.4,1.59-.8,3.2-1.21,4.81-.08.32-.16.64-.25,1v0c-.08.33-.17.65-.25,1q-.66,2.57-1.36,5.16c-.16.6-.32,1.2-.49,1.8q-.86,3.21-1.79,6.47c-.18.63-.36,1.27-.55,1.9q-1.69,5.91-3.58,11.86c-.21.69-.43,1.38-.66,2.08a.06.06,0,0,1,0,0c-.33,1-.67,2.08-1,3.13-1.12,3.38-2.28,6.76-3.48,10.1v0q-.9,2.51-1.83,5c-3.21,8.57-6.73,16.9-10.54,24.71q-1.19,2.42-2.41,4.77a148.33,148.33,0,0,1-13.61,21.79c-.2.28-.42.55-.64.82a.09.09,0,0,1,0,0c-.21.28-.42.54-.65.81-6.92,8.66-14.56,15.32-22.95,19a314.47,314.47,0,0,1,10.23,36.69c.27,1.28.53,2.57.76,3.85a121.94,121.94,0,0,1,2.15,17.89h0c0,.47,0,.94,0,1.4h0c0,.45,0,.88,0,1.31A34.89,34.89,0,0,1,334,415.06c-2.13,6.08-11.2,4.4-22.79-.91-.7-.31-1.41-.65-2.13-1-2.84-1.37-5.81-2.93-8.84-4.62l-1-.55,0,0-1-.56q-2.71-1.56-5.48-3.23l-2-1.23c-2.18-1.34-4.36-2.72-6.53-4.1l-1-.65,0,0-1-.65c-2.68-1.73-5.31-3.49-7.87-5.24l-1-.64h0l-.94-.65c-4.08-2.79-7.93-5.52-11.39-8l-1.65-1.2c-8.59-6.22-14.34-10.71-14.34-10.71s-8.67,2.23-22.54,4.61l-2.14.36c-3,.5-6.31,1-9.77,1.5l-1.07.15h0l-1.07.15q-3.9.53-8.09,1l-1.11.12h-.06l-1.12.12c-3.17.35-6.45.67-9.81,1l-2.6.2c-6.61.51-13.53.86-20.62,1-1.33,0-2.67,0-4,0h-.06c-1,0-2,0-3,0a233.55,233.55,0,0,1-44.6-4.27l-1.32-.27h0c-.42-.08-.85-.18-1.28-.28-14.09-3.08-27.56-7.87-39.38-15-.58-.35-1.16-.7-1.73-1.07a89.55,89.55,0,0,1-14.39-11.19l-.13-.13-.58-.57h0l-.71-.7c-21.19-21.12-29.18-45.3-30.9-67.23,0-.32-.05-.64-.07-1h0c0-.32-.05-.65-.07-1a138.76,138.76,0,0,1,2.87-36.83c.09-.41.18-.82.26-1.22v0l.27-1.21a147.49,147.49,0,0,1,5.82-19.49c.87-2.3,1.56-3.93,1.93-4.77.2-.45.31-.68.31-.68l.46-.17c.62-.24,1.86-.69,3.65-1.22a104.21,104.21,0,0,1,30.25-4l1.61,0h0c.55,0,1.11,0,1.68,0a118.25,118.25,0,0,1,18.53,2.14l2.47.51c3.31.72,6.72,1.6,10.2,2.67a334.92,334.92,0,0,0,33.58,8.48l1,.19h0l1,.2a293.4,293.4,0,0,0,52.76,5.31h3.49c5.57,0,11.26-.25,17-.68l1.25-.11h0l1.27-.1c3.62-.32,7.27-.71,10.95-1.21l3.19-.45a207.6,207.6,0,0,0,33.8-7.91q1.95-.63,3.9-1.32a185.38,185.38,0,0,0,42.75-21.38c.65-.43,1.3-.87,1.95-1.33a185.11,185.11,0,0,0,17.07-13.35c.55-.47,1.09-.95,1.64-1.45q4.59-4.11,9.05-8.66l.76-.78h0q.39-.39.75-.78,5.24-5.43,10.24-11.49c.48-.57.95-1.14,1.42-1.72q4.38-5.4,8.59-11.32l.59-.84h0c.21-.28.41-.56.59-.84.43-.59.84-1.19,1.25-1.79,0,0-10.4-1.7-20.67-11-.53-.48-1.07-1-1.6-1.51a53,53,0,0,1-7.69-9.66c-.52-.84-1-1.71-1.53-2.61A63.45,63.45,0,0,1,326.62,105c-.21-.61-.4-1.22-.58-1.85-.67-2.23-1.26-4.58-1.75-7.07-.14-.63-.26-1.27-.37-1.92a96.57,96.57,0,0,1-1.37-12c-.05-.71-.08-1.42-.1-2.15-.4-10.57.57-22.94,3.44-37.43l.09-.48s0-.54,0-1.48a135.25,135.25,0,0,1,1.14-15c.05-.32.09-.63.14-.95a.43.43,0,0,0,0-.05l.15-.95c.94-5.65,2.5-10.9,5.05-12.88a3.67,3.67,0,0,1,3.49-.66l.36.11C346.54,13.55,370,34.06,370,34.06s1.27.38,3.4,1.14l2.17.79a131.72,131.72,0,0,1,16.11,7.32c.67.36,1.35.74,2,1.13a78.55,78.55,0,0,1,14.93,10.77c.62.58,1.23,1.18,1.81,1.79,7.7,8,12.33,18,8.54,30.06,0,0,3-3.49,9.71-6.61.77-.36,1.59-.71,2.47-1.06,6.7-2.63,16.38-4.63,29.6-3.37l1,.1h0l1.05.12a105,105,0,0,1,12.34,2.23l1.08.26h0l1.1.28c3.82,1,7.86,2.21,12.12,3.73.8.28,1.62.58,2.45.89q6.18,2.3,13,5.42c7.95,3.66,14.68,6.73,20.37,9.31l2,.9C543.72,106.66,550.84,109.62,553.7,110.62Z" fill="#004b8b"/><path d="M48.44,302.27c-1.23-4.7-3.44-6.29-8.75-6.3h-.12a1.06,1.06,0,0,0-.4,0c-4.9,1.09-7.86,3.69-9.06,7.93-.74,2.65,0,6.08,1.94,9a12.85,12.85,0,0,0,3,3.16,8.68,8.68,0,0,0,3.45,1.59,9.24,9.24,0,0,0,1.65.17h.14a6.2,6.2,0,0,0,5.2-2.73C47.41,312.16,49.84,307.66,48.44,302.27ZM34,299.47a8.7,8.7,0,0,0-.95,1A6.22,6.22,0,0,1,34,299.47Zm-1.09,12.9c-1.79-2.66-2.48-5.8-1.81-8.2a9.59,9.59,0,0,1,1.53-3.2,10.16,10.16,0,0,0-1.5,3.2c-.66,2.37,0,5.52,1.8,8.21A13.09,13.09,0,0,0,34,313.79,13.35,13.35,0,0,1,32.92,312.37Zm3.43,3.4a8.66,8.66,0,0,0,1.14.57A7.58,7.58,0,0,1,36.35,315.77Zm8.22-1.2a5.13,5.13,0,0,1-4.45,2.27,7.91,7.91,0,0,1-1.45-.14,4,4,0,0,1-.59-.16c.2.06.39.11.59.15a5.53,5.53,0,0,0,5.9-2.15,23.11,23.11,0,0,0,2.13-3.85A20.67,20.67,0,0,1,44.57,314.57ZM43.7,314a4.55,4.55,0,0,1-4.83,1.72,8.47,8.47,0,0,1-5-3.87c-1.63-2.47-2.27-5.33-1.68-7.46,1-3.47,3.42-5.61,7.46-6.53h.11c4.3,0,5.74,1,6.71,4.82C47.37,306.31,46.53,309.8,43.7,314Z" fill="#6b8fe1"/><path d="M88.68,279c-3.84-4-9.08-6.6-16-8a54.31,54.31,0,0,0-7.42-.81c-1-.07-2.17-.14-3.23-.24h-.23a1,1,0,0,0-.52,0c-2,.69-4,1.41-6.06,2.13l-.26.09c-4.76,1.69-9.69,3.44-14.6,4.93a41.73,41.73,0,0,1-9.78,1.43c-1.54.07-3.13.08-4.66.08-1,0-2.12,0-3.26,0,0,.32,0,.65.07,1l1.06,0-1.06,0c0,.32,0,.64.07,1,1,0,2.09,0,3.12,0,1.56,0,3.18,0,4.77-.09A42.66,42.66,0,0,0,41,278.92c5.1-1.55,10.33-3.41,15-5.05l1.33-.47c1.52-.54,3.05-1.08,4.57-1.6,1.09.1,2.21.17,3.28.23a53.22,53.22,0,0,1,7.15.82c6.52,1.32,11.4,3.75,14.91,7.41,2,2.11,2.92,3.93,2.67,5.55s-1.53,3.07-4,4.5c-2.69,1.59-5.42,2.95-8.7,4.56-5.45,2.67-9.24,6.21-11.61,10.83C63,310.7,62.46,316.19,62,321l-.05.47c-.19,1.88-.31,3.79-.43,5.64l0,.39c-.14,2.26-.32,5.07-.64,7.71a19.67,19.67,0,0,1-6.68,12.15l-.45.4.71.7h0l.58.57.13.13.47-.41a21.55,21.55,0,0,0,7.31-13.33c.31-2.51.48-5.08.64-7.56v-.26c.12-1.86.25-4,.45-6v-.13c.51-5,1-10.21,3.47-15,2.14-4.23,5.63-7.48,10.67-9.93,3.33-1.64,6.09-3,8.83-4.64,3-1.77,4.59-3.69,4.89-5.88S91.09,281.47,88.68,279Zm-33.12-6-.43.15.18-.07.25-.09,1.34-.47Zm6-2.11-.57.19.59-.21h0Zm5,35.25c-2.5,5-3,10.24-3.55,15.34l0,.13c-.2,2-.33,4.13-.45,6l0,.27c-.16,2.46-.32,5-.63,7.5a19.74,19.74,0,0,1-5,10.72,19.89,19.89,0,0,0,5-10.71c.32-2.66.5-5.49.64-7.77l0-.38c.12-1.84.24-3.75.43-5.61l.05-.47c.49-4.76,1.05-10.16,3.52-15,.18-.35.36-.69.56-1C66.89,305.42,66.7,305.76,66.53,306.11Z" fill="#6b8fe1"/><path d="M332.6,379.47a58.26,58.26,0,0,1-2.22,5.75,34.6,34.6,0,0,1-1.92,4c-1.29,2.07-3.58,4.9-9.83,8.5a64.85,64.85,0,0,1-10,4.65l-.42.16a64.32,64.32,0,0,0-10,4.85l1,.56a61.31,61.31,0,0,1,9.4-4.51l.42-.16a66.92,66.92,0,0,0,10.15-4.72,39.79,39.79,0,0,0,6.37-4.43,38.11,38.11,0,0,1-6.42,4.49A66.36,66.36,0,0,1,309,403.36l-.42.16a60.84,60.84,0,0,0-9.33,4.47l1,.55a62.12,62.12,0,0,1,8.73-4.13l.41-.16a66.15,66.15,0,0,0,10.31-4.79c6.67-3.85,9.12-6.93,10.52-9.2a36.16,36.16,0,0,0,2.05-4.26c.4-.88.77-1.78,1.12-2.68C333.13,382,332.87,380.75,332.6,379.47Zm22.74-159.59a15,15,0,0,1,10.12-2.51,10.09,10.09,0,0,1,4.76,1.92,23.24,23.24,0,0,0,3.07,1.76c4,1.93,6.71,1.72,10.15,1.44a34.76,34.76,0,0,1,4.78-.21c.09-.32.17-.64.25-1a37.26,37.26,0,0,0-5.17.21c-3.23.26-5.77.46-9.54-1.34a23.92,23.92,0,0,1-2.95-1.69,11.3,11.3,0,0,0-5.22-2.09,16.15,16.15,0,0,0-10.91,2.73,5.1,5.1,0,0,0-2.26,3.52c-.26,3.47,4.76,7,9.43,7.77a9.54,9.54,0,0,0,4.51-.28,29.5,29.5,0,0,1,6.95-.9,72.43,72.43,0,0,1,7.8.25c1.06.1,2.09.22,2.6.28a24.49,24.49,0,0,1,2.41.46c.17-.6.33-1.2.49-1.8a26.21,26.21,0,0,0-2.63-.51c-.57-.07-1.62-.2-2.7-.29a74.39,74.39,0,0,0-8-.26,32.15,32.15,0,0,0-7.44,1,7.34,7.34,0,0,1-3.59.25c-3.62-.66-7.91-3.44-7.74-5.75a3.32,3.32,0,0,1,1.5-2.17,14.17,14.17,0,0,1,9.34-2.31,8.76,8.76,0,0,1,4.31,1.76,27.43,27.43,0,0,0,3.17,1.82c4.31,2.05,7.26,1.81,10.71,1.54a33.44,33.44,0,0,1,4.47-.2c.08-.32.17-.64.25-1h-1a33.13,33.13,0,0,0-3.85.22c-3.26.26-6.08.48-10.12-1.44a27,27,0,0,1-3.05-1.75,9.87,9.87,0,0,0-4.77-1.93,15.33,15.33,0,0,0-10.12,2.52,6.89,6.89,0,0,0-.79.7A5.9,5.9,0,0,1,355.34,219.88Z" fill="#6b8fe1"/><path d="M335.51,401.22a17.36,17.36,0,0,1-7.87,4.48l-2.82.85-.21.06c-2.33.7-4.75,1.42-7.06,2.27a41.76,41.76,0,0,0-8.49,4.28c.72.34,1.43.68,2.13,1a37.94,37.94,0,0,1,7.09-3.45c2.31-.85,4.75-1.57,7.1-2.27l2.91-.88a21.76,21.76,0,0,0,7.25-3.61c0-.43,0-.86,0-1.31h0C335.54,402.16,335.53,401.69,335.51,401.22ZM328,406.63l-2.91.87c-1.77.53-3.59,1.08-5.38,1.67,1.74-.59,3.52-1.12,5.25-1.64l.2-.06,2.84-.85a22.21,22.21,0,0,0,6-2.79A21.63,21.63,0,0,1,328,406.63Z" fill="#6b8fe1"/><path d="M393.67,178a17.74,17.74,0,0,0-8.24,9.94,8.36,8.36,0,0,0,3.49,10,17.62,17.62,0,0,0,4.55,2.21c.08-.33.15-.65.22-1l-.21-.07.21.06.21-1a14.5,14.5,0,0,1-3.74-1.85,6.58,6.58,0,0,1-2.73-7.89,15.82,15.82,0,0,1,7.3-8.86c1.08-.64,2.18-1.25,3.29-1.83.15-.82.3-1.63.45-2.42C396.84,176.21,395.24,177.09,393.67,178Zm-4.12,19.18,1,.64c-.35-.2-.69-.42-1-.64a10,10,0,0,1-.8-.62C389,196.78,389.26,197,389.55,197.19ZM386,190.9a6.64,6.64,0,0,1,.14-1.31,7.44,7.44,0,0,0,.16,3.3A6.9,6.9,0,0,1,386,190.9Zm.47-2.67a7.51,7.51,0,0,0-.21.78,8,8,0,0,1,.19-.78,15.75,15.75,0,0,1,2.37-4.61A16.2,16.2,0,0,0,386.44,188.23Z" fill="#6b8fe1"/><path d="M342.1,124.06c-2.32-4.59-6.62-6.54-10.61-7.81.49.9,1,1.77,1.53,2.61a12.93,12.93,0,0,1,7.22,6.06,4.82,4.82,0,0,1,.47,3.6c.53.53,1.07,1,1.6,1.51.09-.18.18-.37.26-.56A6.61,6.61,0,0,0,342.1,124.06Z" fill="#6b8fe1"/><path d="M481.65,95c-.53-1.58-1.1-3.31-1.73-5.53A99.08,99.08,0,0,1,477.42,79l-1.1-.28a99.14,99.14,0,0,0,2.6,11c.63,2.24,1.21,4,1.74,5.57,1.11,3.29,1.84,5.47,1.78,9.17a30.21,30.21,0,0,1-3.25,12.79c-5.71,11.41-17,16.22-20.7,17.8a61.5,61.5,0,0,1-16.76,4.17,54.2,54.2,0,0,1-7.74.51c-6.09-.14-12-1.8-19.65-5.56-1.65-.77-3.25-1.62-4.82-2.54,1.56.91,3.15,1.75,4.79,2.51,7.68,3.76,13.56,5.42,19.64,5.55a51.55,51.55,0,0,0,7.75-.49A61.58,61.58,0,0,0,458.46,135c3.7-1.59,15-6.41,20.69-17.8a30.22,30.22,0,0,0,3.24-12.77c.07-3.69-.62-5.75-1.77-9.17-.45-1.36-1.07-3.21-1.74-5.57a99.93,99.93,0,0,1-2.6-11l-1.08-.26A97.59,97.59,0,0,0,477.88,90c.67,2.39,1.3,4.25,1.76,5.64,1.11,3.31,1.78,5.31,1.72,8.84a29.37,29.37,0,0,1-3.15,12.38c-5.53,11.07-16.56,15.78-20.19,17.33a60.69,60.69,0,0,1-16.47,4.1,52,52,0,0,1-7.58.47c-5.91-.12-11.65-1.75-19.19-5.44A58.38,58.38,0,0,1,403.07,126a83.9,83.9,0,0,0-13-8.42c-7.8-4.2-11.72-6.3-16.47-7.78-7.59-2.34-8.3-2.62-12.8-5a40.15,40.15,0,0,1-6.9-4.51,18.81,18.81,0,0,0-7.08-3.87c-3.23-1-6.15-1.25-12.44-1.79-3.07-.26-6.17-.41-9.18-.45l-1.27-.07c.11.65.23,1.29.37,1.92l.8,0c3,0,6.05.19,9.12.45,5.93.5,8.9.76,11.93,1.69a16.72,16.72,0,0,1,6.39,3.52,43.76,43.76,0,0,0,7.24,4.73c4.68,2.46,5.42,2.75,13.15,5.14,4.54,1.41,8.41,3.49,16.12,7.63a81.08,81.08,0,0,1,12.7,8.21A60.31,60.31,0,0,0,413.87,135c7.82,3.83,13.84,5.52,20.11,5.66a54.65,54.65,0,0,0,7.89-.51,62.73,62.73,0,0,0,17.05-4.25c3.79-1.62,15.34-6.54,21.21-18.27a31.21,31.21,0,0,0,3.34-13.18C483.54,100.62,482.79,98.39,481.65,95Z" fill="#6b8fe1"/><path d="M397.07,145.91a41.61,41.61,0,0,0-4.16-1.61l-1.59-.6-1.53-.56a10.79,10.79,0,0,0-2.19-.23h-.16a14.81,14.81,0,0,0-7,1.79c-.09,0-.29.16-.57.29,0,0-1,.49-1.87.85-2,.82-8.87-.78-11.89-1.68l-2.38-.71-2-.6c-.18.28-.38.56-.59.84l2.29.68,2.38.71c.05,0,2.23.66,4.82,1.21-2-.4-3.77-.88-4.83-1.2l-2.33-.69-2.33-.7-.59.84,2.61.78,2.32.69c.41.12,10,3,13.35,1.62.58-.24,1.26-.55,2-.9l.71-.37a12,12,0,0,1,7.71-1.34l2.89,1.07c2.89,1.08,3.73,1.39,3.83,1.45,1.48.88,2.12,3.61,1.75,7.5-.28,3.19-1.82,8-7.56,12.92h0a14.28,14.28,0,0,1-4,2.52,14.84,14.84,0,0,0-4.71,3.12,29.81,29.81,0,0,0-7.79,11.93,30.36,30.36,0,0,0-1.38,6.22,29.92,29.92,0,0,0,0,7c.34,3.6,2.93,5.42,5.14,6.6,4.46,2.36,9.25,3.34,14,4,.08-.31.15-.63.23-.94-4.71-.65-9.42-1.61-13.75-3.9-2.12-1.13-4.32-2.71-4.63-5.85a30.56,30.56,0,0,1,0-6.76,29.62,29.62,0,0,1,1.35-6,28.72,28.72,0,0,1,7.55-11.55c.16-.16.31-.31.48-.45l-.47.46a27.82,27.82,0,0,0-8.86,17.55,29.39,29.39,0,0,0,0,6.76c.24,2.51,1.62,4.26,4.62,5.85a40.75,40.75,0,0,0,13.71,3.88c.08-.32.15-.63.22-.94a40,40,0,0,1-13.42-3.78c-2.67-1.42-3.89-2.94-4.1-5.1a28.78,28.78,0,0,1,0-6.56,28.37,28.37,0,0,1,1.28-5.83A27.84,27.84,0,0,1,382.9,175a12.63,12.63,0,0,1,4.11-2.73,16,16,0,0,0,4.55-2.86c6.21-5.29,7.91-10.63,8.26-14.18.06-.73.1-1.43.1-2.09C399.92,149.5,399,147,397.07,145.91Zm-7.52-1.81-.09,0a13,13,0,0,0-2.15-.18l-.74,0a8.64,8.64,0,0,1,.88,0,9.62,9.62,0,0,1,2.09.2l.33.13Zm.59.21.52.19Zm6.35,2.41h0a2.2,2.2,0,0,1,.25.17Zm-9.9,24.64-.62.27c.19-.1.38-.18.57-.26a16.16,16.16,0,0,0,2.54-1.34A14.84,14.84,0,0,1,386.59,171.36Zm12.19-16.24a16.18,16.18,0,0,1-1.27,4.88,16.52,16.52,0,0,0,1.22-4.88,14.88,14.88,0,0,0-.37-5.85A14.69,14.69,0,0,1,398.78,155.12Zm50.31,13.13c-3.76-9-8.88-14.74-15.22-17a35.66,35.66,0,0,0-6.18-1.41,36.62,36.62,0,0,1-12.59-3.94,37.89,37.89,0,0,1-3.49-2.27l-2.33-1.58c-15.38-10.41-17.62-11.61-21.31-12.6-9.33-2.52-14,.34-14.75,1.24l-.79,1c-.83,1-1.45,1.78-1.66,2.05l-.07.09c-.4.52-4.38,3.95-9.25,3.26a10.78,10.78,0,0,1-8.55-7.85,8,8,0,0,1,.5-5,12.13,12.13,0,0,0,.76-6.4,16.38,16.38,0,0,0-5.05-9.16c-6.86-6.76-17.61-6.14-23.07-5.52.18.63.37,1.24.58,1.85,5.42-.6,14.89-1,21,5a14.67,14.67,0,0,1,4.52,8.09,10.79,10.79,0,0,1-.69,5.55,9.72,9.72,0,0,0-.52,6A12.87,12.87,0,0,0,361.14,139a13.73,13.73,0,0,0,11.21-4l.08-.1c.2-.26.82-1,1.64-2l.37-.46.41-.51c.19-.15,4-2.86,12.54-.56,3.4.91,5.56,2.07,20.67,12.3l2.33,1.58a40.14,40.14,0,0,0,3.67,2.38,38.67,38.67,0,0,0,13.28,4.17,33.41,33.41,0,0,1,5.8,1.32c5.65,2,10.29,7.17,13.83,15.35.81.16,1.64.3,2.48.44Zm-97.4-39.94a9.76,9.76,0,0,1,.71-4.42,11.54,11.54,0,0,0,.72-6,14.5,14.5,0,0,0-3-6.59,14.13,14.13,0,0,1,3,6.62,11.47,11.47,0,0,1-.72,6A9.66,9.66,0,0,0,351.69,128.31Z" fill="#6b8fe1"/><path d="M331.58,24.33a29.18,29.18,0,0,0-4.14-.73l-.15.95a28.52,28.52,0,0,1,4,.71,6.27,6.27,0,0,1,4.27,3.36,6.3,6.3,0,0,0-4.27-3.32,27.26,27.26,0,0,0-4-.7c0,.32-.09.63-.14.95a27.85,27.85,0,0,1,3.88.68c2.77.77,4.11,2.55,4.23,5.58.06,1.83-.94,3.21-2.16,4.7A10.73,10.73,0,0,1,326,40.58c0,.94,0,1.48,0,1.48l-.09.48a11.48,11.48,0,0,0,4.42-1.24,13.61,13.61,0,0,0,4.41-3.67c1.46-1.81,2.66-3.5,2.57-5.93C337.15,27.83,335.23,25.35,331.58,24.33Z" fill="#6b8fe1"/><path d="M467.25,94.81c-.22-.8-.43-1.6-.64-2.42-.66-2.48-1.34-5-2.26-7.55a25.62,25.62,0,0,1-1.49-8.6l-1.05-.12c0,.21,0,.41,0,.62,0-.21,0-.42,0-.62l-1-.1a27.6,27.6,0,0,0,1.63,9.44c.82,2.23,1.45,4.59,2.07,6.88l.13.51c.21.81.43,1.62.65,2.43,1.29,4.66,2.34,9.24,1.08,14-2.22,8.46-9.31,13.66-18.95,13.91a76,76,0,0,1-13.73-1c-4.41-.7-9.5-1.81-13.77-4.82s-6.17-5.82-2.85-11.32c2.12-3.53,4.13-7.09,6.36-11l.29-.52c1.14-2,2.3-4.06,3.47-6.08a37.78,37.78,0,0,0,4-9.1c-.88.35-1.7.7-2.47,1.06a40.28,40.28,0,0,1-3.37,7.12c-1.27,2.19-2.53,4.42-3.77,6.62l-.58,1c-1.85,3.29-3.76,6.68-5.75,10-2.51,4.16-3.83,8.72,3.41,13.81,4.61,3.24,10,4.44,14.66,5.18a79.26,79.26,0,0,0,12.4,1h1.74c10.47-.27,18.48-6.17,20.9-15.39C469.7,104.58,468.6,99.73,467.25,94.81ZM447.42,124.2h0a28.07,28.07,0,0,0,3.75-.35A24.82,24.82,0,0,1,447.42,124.2Zm15.95-39a22.3,22.3,0,0,1-.71-2.29c.2.76.44,1.53.72,2.29.77,2.1,1.37,4.26,1.93,6.39C464.74,89.42,464.13,87.24,463.37,85.15ZM466.24,95c-.16-.59-.32-1.18-.47-1.77l.48,1.78c.22.81.44,1.61.63,2.42C466.68,96.66,466.47,95.85,466.24,95Z" fill="#6b8fe1"/><path d="M354.93,74.47h-.19c.27,0,.53,0,.79,0ZM336,10.06a3.67,3.67,0,0,0-3.49.66c1.14-.12,2.27-.28,3.4-.47l.45-.08Zm72.65,45.15a18,18,0,0,1-.3,2.23,14.3,14.3,0,0,1-1.1,3.43,16.1,16.1,0,0,1-5.82,6.52c-16.05,8.53-18.36,9.33-23,10.92-.2.08-2.5.84-2.68.9l-.77.28a16.06,16.06,0,0,0-2.28,1.23c-.3.2-1.13.41-3.26-.34a19.61,19.61,0,0,1-5.75-3.3c-2-1.52-4.12-3.09-7.24-3.49A11.65,11.65,0,0,0,347.67,76a7.15,7.15,0,0,0-1.32,1.55c-.12.17-.23.34-.36.5-3.41,4.13-11.69,4-15.1,3.76A24.58,24.58,0,0,1,322.45,80c0,.73.05,1.44.1,2.15a27.85,27.85,0,0,0,8.17,1.58c.89.06,1.93.11,3,.11,4.66,0,10.71-.82,13.84-4.63a5.84,5.84,0,0,0,.47-.65,5.28,5.28,0,0,1,1-1.13,9.45,9.45,0,0,1,7.11-1.89c2.49.32,4.3,1.66,6.23,3.08a21.91,21.91,0,0,0,6.36,3.61c1,.34,3.45,1.14,5.12.09a12.73,12.73,0,0,1,1.87-1l3.41-1.13c4.69-1.62,7-2.44,23.32-11.09a17,17,0,0,0,7.81-11.21c.06-.28.11-.56.15-.83C409.86,56.39,409.25,55.79,408.63,55.21ZM336.87,82.7c.62,0,1.24-.13,1.87-.23C338.12,82.58,337.49,82.65,336.87,82.7ZM349.23,76a8.38,8.38,0,0,1,1.26-.67A10.05,10.05,0,0,0,349.23,76ZM363,77.82a22.37,22.37,0,0,0-3.72-2.39,20.21,20.21,0,0,1,3.76,2.4l.62.48Zm15.77,1.41,0,0,2-.71C380.18,78.75,379.51,79,378.79,79.23Zm23.2-11a18.25,18.25,0,0,0,3.57-3A16.48,16.48,0,0,1,402,68.19Z" fill="#6b8fe1"/><path d="M391.66,43.31c-.06,6.28-3.2,11.82-9.52,16.88l-.54.41c-.5.39-1.07.82-1.72,1.3-2.26,1.68-4.59,3.29-6.94,4.79a.85.85,0,0,0-.22.2c-2.49,3-5,4.51-7.55,4.61a6.07,6.07,0,0,1-3-.73,15.88,15.88,0,0,0-3.38-1.16,14,14,0,0,0-3-.34,17.85,17.85,0,0,0-5,.89,21.08,21.08,0,0,1-5.69,1c-3.28,0-10-.75-11.86-4.11-.82-1.4-.79-3.44.08-5.89l0-.08c2-5.51,7.45-11.18,13.33-13.82a26.57,26.57,0,0,1,7.36-1.95A41.11,41.11,0,0,0,365.65,42a50,50,0,0,0,9.61-5.72l.07-.06.22-.2-2.17-.79a47.15,47.15,0,0,1-8.62,5,39.15,39.15,0,0,1-11,3.15,28.93,28.93,0,0,0-7.9,2.11c-6.37,2.86-12.3,9-14.42,15-1,2.95-1,5.52,0,7.43,2.29,4.06,9.33,5.11,13.39,5.11h.34A22.75,22.75,0,0,0,351.44,72a12.59,12.59,0,0,1,6.87-.5,15.32,15.32,0,0,1,2.95,1,8.13,8.13,0,0,0,3.67.94h.32c3.13-.11,6.16-1.87,9-5.23,2.17-1.39,4.43-3,6.91-4.78l0,0c.87-.64,1.62-1.2,2.26-1.71,6.48-5.19,9.85-10.85,10.23-17.26C393,44.05,392.33,43.67,391.66,43.31ZM332.36,67.5a5.21,5.21,0,0,1-.59-1.73,5.29,5.29,0,0,0,.62,1.71,8.56,8.56,0,0,0,4.45,3.3A8.17,8.17,0,0,1,332.36,67.5Zm18.9,3.55a17.32,17.32,0,0,1,2.23-.56C352.75,70.64,352,70.84,351.26,71.05Zm10.48.61c-.51-.24-1-.45-1.56-.64s-1.07-.33-1.62-.46a12.67,12.67,0,0,0-2.72-.31h0a12.24,12.24,0,0,1,2.71.31,15.19,15.19,0,0,1,1.63.47,13.18,13.18,0,0,1,1.51.6,1.27,1.27,0,0,0,.23.12ZM382.8,61c-.63.5-1.37,1.06-2.24,1.69l0,0c-2.48,1.83-4.75,3.39-6.92,4.79l-.12.1c-2.66,3.16-5.44,4.81-8.25,4.91h-.29a5.67,5.67,0,0,1-1-.1,6.18,6.18,0,0,1-1.05-.25,7.3,7.3,0,0,0,1.05.25,7.79,7.79,0,0,0,1.28.08c2.84-.1,5.64-1.78,8.32-5,2.36-1.52,4.72-3.14,7-4.83.66-.48,1.23-.92,1.74-1.31l.54-.41c4.47-3.58,7.41-7.39,8.86-11.53C390.23,53.55,387.29,57.37,382.8,61Z" fill="#6b8fe1"/><path d="M34.57,214.23l-.77.85c-.37.84-1.06,2.47-1.93,4.77l.13-.13c1.34-1.3,2.61-2.53,4.37-4.54.64-.7,1.26-1.43,1.85-2.17C36.43,213.54,35.19,214,34.57,214.23Zm103.05,8.85c0,.33,0,.66,0,1,0-.33,0-.67,0-1l-1-.19a36.17,36.17,0,0,1-.49,6c-1.21,8.45-3.47,15.23-7.57,27.55l0,.09a13.91,13.91,0,0,1-1.83,3.73,15.75,15.75,0,0,1-6.77,5.4c-1.8.75-5,1.63-12.06.59A56.05,56.05,0,0,1,96,263.08l-.24-.09c-.85-.32-1.75-.65-2.75-1-7.1-2.43-12.33-3.49-21.82-5.42-3.09-.63-5.29-1-8.07-1.49h0c-3.19-.56-7.17-1.24-14.37-2.65-7-1.37-7.79-1.6-8.56-1.91-.07,0-6.63-2.6-14.08-11.18l-.27,1.21c.18.22.37.43.56.63l-.57-.61c-.08.4-.17.81-.26,1.22,7.55,8.27,13.79,10.52,13.85,10.54.93.35,1.75.6,8.91,2s11.4,2.13,14.41,2.65l.43.07c2.62.46,4.69.82,7.64,1.42l.7.14c9.06,1.86,14,2.89,20.83,5.21.94.32,1.82.63,2.74,1a58.64,58.64,0,0,0,12.46,3.35,42.88,42.88,0,0,0,6.1.49,17.6,17.6,0,0,0,7.12-1.24,17.82,17.82,0,0,0,7.7-6.08,15.45,15.45,0,0,0,2.08-4.21l.08-.24c4.1-12.34,6.37-19.14,7.59-27.7a42.54,42.54,0,0,0,.51-5.88ZM29,243.91a43.34,43.34,0,0,0,8.87,6.63A41.14,41.14,0,0,1,29,243.91Zm10.72,7.52h0l.16.06Zm97.4-22.4c-1.22,8.48-3.47,15.25-7.56,27.54l-.08.25a14.75,14.75,0,0,1-2,4,16.53,16.53,0,0,1-2.75,3,16.67,16.67,0,0,0,2.71-3,15,15,0,0,0,1.95-4l0-.08c4.12-12.37,6.39-19.18,7.62-27.71.11-.75.24-1.66.35-2.68C137.36,227.24,137.26,228.14,137.13,229Z" fill="#6b8fe1"/><path d="M107.18,223c-3.55-2.46-6.54-4.47-9.63-6.31a12.12,12.12,0,0,1-4.78-4.94l-2.47-.51a13.79,13.79,0,0,0,6.16,7.11c3.23,1.91,6.33,4,9.5,6.23,4.16,2.87,6,6.3,5.55,10.47-.3,3.39-3.77,7.8-7.62,8.2a19.53,19.53,0,0,1-7.3-.67c-6.65-1.91-10.29-6.62-11.47-14.83-.68-4.77-2.05-10.15-7.07-13.92l-3.87-2.9c-.82-.61-1.63-1.22-2.41-1.83-.57,0-1.13,0-1.68,0h0l-1.61,0c1.4,1.15,2.87,2.27,4.41,3.41l3.87,2.9c4.45,3.34,5.69,8.27,6.31,12.66,1.3,9.05,5.4,14.27,12.91,16.43a22.11,22.11,0,0,0,6.06.84h.08a18.94,18.94,0,0,0,2-.1,10.38,10.38,0,0,0,6.44-3.57,11.61,11.61,0,0,0,3-6.4C114.05,230.26,112,226.27,107.18,223Zm-.61.8-1.24-.87,1.23.84a17.11,17.11,0,0,1,2.3,1.87A18.22,18.22,0,0,0,106.57,223.78Zm-22.48,4.08c-.11-.79-.25-1.61-.41-2.42.17.81.31,1.63.42,2.42.05.41.12.8.19,1.19C84.21,228.66,84.15,228.27,84.09,227.86ZM92.64,242a18.7,18.7,0,0,0,2.36,1A17.37,17.37,0,0,1,92.64,242Zm19.92-6.94a11.11,11.11,0,0,1-7,8.74,11.21,11.21,0,0,0,6.94-8.71,10.38,10.38,0,0,0,.07-1.23C112.61,234.28,112.6,234.68,112.56,235.09Z" fill="#6b8fe1"/><path d="M118.16,366.83a15.36,15.36,0,0,0-2.49-5.9c-4.12-5.57-9.19-11.8-17.12-15.15a17.28,17.28,0,0,0-7.75-1.49h0a1,1,0,0,0-.46,0,23.26,23.26,0,0,0-9.46,5.09l-1.59,1.37a65.12,65.12,0,0,0-9.75,9.61c.57.37,1.15.72,1.73,1.07a63,63,0,0,1,9.41-9.27l1.6-1.38a21.27,21.27,0,0,1,8.49-4.59.45.45,0,0,0,.16,0,15.14,15.14,0,0,1,6.74,1.34c7.5,3.15,12.35,9.13,16.31,14.48a13.44,13.44,0,0,1,2.17,5.18c.72,3.2-.62,5.74-4.46,8.48-.35.25-.7.5-1,.76.43.1.86.2,1.28.28l.39-.28a13.22,13.22,0,0,0,4.33-4.59,12.83,12.83,0,0,1-4.29,4.6l-.39.28,1.32.27C116.18,374.84,119.25,371.74,118.16,366.83ZM98.07,346.67a16.28,16.28,0,0,0-4.3-1.27,15.67,15.67,0,0,1,4.34,1.26,28.49,28.49,0,0,1,5.19,2.87A29.44,29.44,0,0,0,98.07,346.67Zm14.77,12.21a56.24,56.24,0,0,0-4.51-5.14A53.35,53.35,0,0,1,112.84,358.88Zm4.4,11.06a7.63,7.63,0,0,0-.11-2.92,14.57,14.57,0,0,0-2.32-5.53h0c-.63-.85-1.28-1.72-2-2.59.69.87,1.34,1.73,2,2.58a14.59,14.59,0,0,1,2.34,5.54A7.32,7.32,0,0,1,117.24,369.94Z" fill="#6b8fe1"/><path d="M379.54,252.55c.23-.7.45-1.39.66-2.08a10.41,10.41,0,0,0-.78-2.05,9.51,9.51,0,0,0-1.39-2,10.05,10.05,0,0,0-4.42-2.59A38.7,38.7,0,0,1,367,241c-2.33-1.21-4.18-2.17-7-1.91-6,.56-11,6.39-12.65,11.59a12.61,12.61,0,0,0-.13,7.19l0,.12a16.31,16.31,0,0,1,.1,7.61,12.78,12.78,0,0,1-2.32,5.25h0a16,16,0,0,0-2.66,5.62c-.6,2.19-3.17,13.42,4.23,20.19,2.52,2.31,6.63,4.64,10.12,4.64h.09a6.58,6.58,0,0,0,2.74-.59,4.4,4.4,0,0,0,.71-.41c1.59-1.06,2.17-2.75,2.41-4.77.13-1.07.16-2.22.2-3.43.12-4,.26-9,3.49-14.28a20.46,20.46,0,0,1,5.48-5.89c.45-.36.91-.72,1.37-1.11q.93-2.47,1.83-5a18.76,18.76,0,0,1-4.53,4.61,22.51,22.51,0,0,0-6,6.43c-3.47,5.69-3.63,10.95-3.76,15.18-.1,3.48-.17,6-2.18,6.93-3,1.41-8-1.31-10.57-3.71-6.58-6-4.21-16.32-3.67-18.33a14.07,14.07,0,0,1,2.38-5,14.55,14.55,0,0,0,2.63-5.94,18.07,18.07,0,0,0-.11-8.4,11,11,0,0,1,.06-6.36c1.46-4.59,5.77-9.74,10.87-10.22,2.15-.19,3.51.51,5.76,1.69a40.38,40.38,0,0,0,7.05,3,7.82,7.82,0,0,1,3.47,2,7.71,7.71,0,0,1,1.08,1.55,11.9,11.9,0,0,1,1,6.45c.34-1.05.68-2.09,1-3.13a9.4,9.4,0,0,0-1.6-4.66,7.18,7.18,0,0,1,.56.91A10.57,10.57,0,0,1,379.54,252.55ZM362.21,286.5c-.1.74-.18,1.46-.23,2.16C362,288,362.1,287.24,362.21,286.5Zm-.57,8.87A7.35,7.35,0,0,1,361,298,8.11,8.11,0,0,0,361.64,295.37ZM360.88,240l-.79,0a9.75,9.75,0,0,0-2.22.47,9.26,9.26,0,0,1,2.22-.48,7.73,7.73,0,0,1,3.89.61A8.17,8.17,0,0,0,360.88,240Zm5.58,1.83c-.51-.26-1-.51-1.44-.73.46.21.93.46,1.44.72s1.08.58,1.64.85C367.54,242.43,367,242.14,366.46,241.85Zm6.86,2.93c-.89-.29-1.78-.6-2.65-.95.86.33,1.73.65,2.62.93a5.22,5.22,0,0,1,.56.18Z" fill="#6b8fe1"/><path d="M525.35,98.37a31.58,31.58,0,0,1-13.85,6.37c-2.93.6-5.25.17-7.09-1.31A19.4,19.4,0,0,1,500,98.86l-.24-.38,0,0a78.75,78.75,0,0,1-6.58-11.77c-.43-1-.82-2-1.18-3-.83-.31-1.65-.61-2.45-.89.5,1.56,1.08,3.11,1.73,4.63a80,80,0,0,0,6.71,12l.29.45a21.09,21.09,0,0,0,4.81,5.08,9.32,9.32,0,0,0,5.83,2h.2a14.94,14.94,0,0,0,2.83-.3,33.86,33.86,0,0,0,15.41-7.38Zm-21.61,5.82a20.55,20.55,0,0,1-2.1-1.83,20.32,20.32,0,0,0,2.11,1.81,8.62,8.62,0,0,0,1.15.78A8,8,0,0,1,503.74,104.19Zm5.35,1.79a7.73,7.73,0,0,1-1.52-.12,11.94,11.94,0,0,0,1.72.11Zm2.62-.28c-.33.07-.67.12-1,.16l1-.18a36.89,36.89,0,0,0,5-1.37A36,36,0,0,1,511.71,105.7Z" fill="#6b8fe1"/><path d="M540.11,122.93a28.27,28.27,0,0,0-7-.79c-1.47,0-3.15,0-5.74-.31-1.54-.15-7.1-1.15-17.19-3H510c-3.53-.63-6.32-1.12-9.95-.3a19.46,19.46,0,0,0-6.76,3c-16.58,11.16-25.36,18-25.41,18.1a59,59,0,0,1-8.88,5.45l-.43.2-.07,0a6.56,6.56,0,0,1-1.61.41l-.16,0c-2.1.39-3.31,5.39-2.48,10.3,1.05,6.06,4.9,10.61,8,13.38.17.42.35.84.54,1.27l1.16.13-.06-.14-.4-1-.31-.73,0-.11-.09-.07c-.2-.19-.41-.38-.62-.59l.71.66h0c.11.28.22.56.34.84l.36.84.07.15a.49.49,0,0,1,0,.11h0l1.16.12c-.08-.2-.17-.4-.26-.6l-.06-.15c-.23-.55-.47-1.1-.69-1.66a.9.9,0,0,0-.25-.36c-2.9-2.57-6.56-6.82-7.53-12.44a17.05,17.05,0,0,1-.25-2.9c0-2.88.77-4.81,1.12-5.18a8.81,8.81,0,0,0,2.11-.52s.36-.14.69-.31a58.66,58.66,0,0,0,9.23-5.68c.93-.72,9.54-7.41,25.3-18a17.45,17.45,0,0,1,6-2.73,15,15,0,0,1,3.27-.36h0a33.24,33.24,0,0,1,5.8.66l.26,0c10.38,1.85,15.59,2.77,17.18,2.93,2.68.27,4.4.3,5.94.32a26.83,26.83,0,0,1,6.56.73c.73.17,1.42.35,2.07.55.47-.54.93-1.07,1.39-1.58C542.15,123.44,541.17,123.17,540.11,122.93Zm-78.42,44.6a21.72,21.72,0,0,1-1.49-1.63C460.69,166.48,461.2,167,461.69,167.53Zm-5.55-8.47a18.31,18.31,0,0,1-.84-3.14c0-.26-.08-.52-.11-.78l.12.78A19.27,19.27,0,0,0,456.14,159.06Zm37.78-36.66c-15.77,10.61-24.41,17.31-25.36,18a57.84,57.84,0,0,1-9,5.56c-.29.15-.59.27-.59.27a7.48,7.48,0,0,1-1.81.44h0a7,7,0,0,0,1.85-.47,3.9,3.9,0,0,0,.59-.26,59.36,59.36,0,0,0,9.05-5.56c.08-.06,8.7-6.85,25.36-18.06a17.38,17.38,0,0,1,3.95-2.09A18.43,18.43,0,0,0,493.92,122.4Zm9.95-3.28c-.5,0-1,0-1.5.07a13.3,13.3,0,0,1,1.53-.08,21.61,21.61,0,0,1,2.66.18C505.67,119.2,504.77,119.14,503.87,119.12Z" fill="#6b8fe1"/><path d="M521.31,145.79h-.06c-3.53-.7-8.87-1.77-15,0-10.54,3.1-18.66,12.94-18.18,21.62.66-.26,1.33-.53,2-.82.08-7.56,7.52-16.21,16.74-18.95a22.6,22.6,0,0,1,6.4-.89,34.36,34.36,0,0,1,6.22.65l.94-.8c-.62-.12-1.29-.25-2-.37.72.11,1.39.24,2,.36Zm-31.13,15.42a24,24,0,0,1,8-10.23A25.17,25.17,0,0,0,490.18,161.21Z" fill="#6b8fe1"/><path d="M530.81,136.87l.75-.75a22.69,22.69,0,0,0-6.57-1.58,145.37,145.37,0,0,0-20.55-.52c-8.47.39-16.44,3.43-24.37,9.3-.89.65-1.87,1.26-2.74,1.79l-.36.23c-.33.2-.65.4-1,.6a.87.87,0,0,0-.33.33c-2.81,4.66-3.95,9.2-3.4,13.48.14,1.07.34,2,3.08,9.29.22.6.44,1.17.64,1.71.68-.1,1.37-.22,2.06-.35l-.47-1.26-.29-.77c-2.65-7.06-2.84-7.93-3-8.85-.5-3.83.51-7.9,3-12.1l1.11-.69c.9-.56,1.93-1.2,2.87-1.9,7.58-5.6,15.17-8.5,23.19-8.86a142.31,142.31,0,0,1,20.23.51,21.14,21.14,0,0,1,5.27,1.16l.76-.76a21.7,21.7,0,0,0-5.92-1.36c-1.81-.18-3.62-.32-5.44-.43,1.82.1,3.63.24,5.44.41A22.15,22.15,0,0,1,530.81,136.87ZM504.49,135c-8.24.37-16,3.33-23.78,9.07l-.2.14.2-.15c7.76-5.74,15.54-8.71,23.78-9.08,1.66-.08,3.32-.12,5-.13Q507,134.89,504.49,135Z" fill="#6b8fe1"/><path d="M308.79,374a11.37,11.37,0,0,0-4.19-8.13l-.25-.21c-3.16-2.65-6.43-5.39-9.9-7.8-6.69-4.66-15.75-10.39-26.64-13.47a61.21,61.21,0,0,1-25.71-14.68c-7.81-7.3-14.71-11.41-22.37-13.33h0a36.32,36.32,0,0,0-5.07-.78l-.26,0c-.66-.07-1.34-.14-2-.23a3.88,3.88,0,0,0-.76,0l-.6.19c-.31.1-.6.2-.87.27-7.14,1.58-10,4.94-9.8,11.6a51,51,0,0,1-2.4,16.37A23.89,23.89,0,0,0,201,364.58a124.22,124.22,0,0,1,7.33,13.25l1.07-.15a127.13,127.13,0,0,0-7.51-13.6,26.35,26.35,0,0,1-2.47-4.76,27.85,27.85,0,0,0,2.49,4.76,124.64,124.64,0,0,1,7.51,13.6l1.07-.15a129.58,129.58,0,0,0-7.69-14A21.87,21.87,0,0,1,200,344.29a52.73,52.73,0,0,0,2.48-16.94c-.16-5.74,2-8.27,8.21-9.67.4-.1.79-.22,1.16-.35l.34-.11c.76.1,1.52.18,2.25.25a36.1,36.1,0,0,1,4.77.72C226.53,320,233.15,324,240.65,331a63.19,63.19,0,0,0,26.59,15.17c10.55,3,19.42,8.62,26,13.18l.13.1h0c3.26,2.3,6.38,4.9,9.4,7.42l.47.39a9.47,9.47,0,0,1,3.5,6.8c.22,3.6-1.66,6.4-5.89,8.81a31.64,31.64,0,0,1-11.52,3.42,59.9,59.9,0,0,0-17,4.69l.94.65c.55-.24,1.11-.48,1.68-.7-.56.23-1.12.46-1.67.71l1,.64a58.86,58.86,0,0,1,15.34-4.07,33.9,33.9,0,0,0,12.3-3.69C306.87,381.7,309.06,378.34,308.79,374ZM211.5,316.42a10.68,10.68,0,0,1-1.06.32c-6.64,1.5-9.16,4.48-9,10.63A51.81,51.81,0,0,1,199,344a23.64,23.64,0,0,0-1,8.94,23.63,23.63,0,0,1,1-8.93,52.11,52.11,0,0,0,2.45-16.66c-.17-6.27,2.26-9.15,9-10.64.33-.08.65-.19,1-.3l.58-.17Z" fill="#6b8fe1"/><path d="M256.12,243.19a5.32,5.32,0,0,0-5.68-3.74h-.07a1.11,1.11,0,0,0-.57.06c-5.08,2-6.74,5.66-4.68,10.21a5.56,5.56,0,0,0,4.18,3.51,4,4,0,0,0,.6.05,5.63,5.63,0,0,0,4.17-2.16C255.84,249.08,257.46,246.55,256.12,243.19Zm-10.77,2a4.07,4.07,0,0,1,.4-1.22A4.85,4.85,0,0,0,245.35,245.2Zm4.86-4.8h0l-.09,0Zm-3.4,2.1a5.4,5.4,0,0,1,.76-.65A8.06,8.06,0,0,1,249,241a10.28,10.28,0,0,0-1.43.89,9.93,9.93,0,0,0-.76.65,7.35,7.35,0,0,0-.59.68A5.21,5.21,0,0,1,246.81,242.5Zm5.65,7.42a3.47,3.47,0,0,1-2.87,1.42A3.72,3.72,0,0,1,247,249c-1.62-3.56-.53-6,3.43-7.61h.07c1.84-.11,2.9.61,3.65,2.49C255.11,246.19,254.16,248,252.46,249.92Zm2.84-2.66a5.18,5.18,0,0,0,.26-2A4.83,4.83,0,0,1,255.3,247.26Z" fill="#6b8fe1"/><path d="M324.4,247.39a19.09,19.09,0,0,0-8.75-6.6h0a8.77,8.77,0,0,0-3.32-.35h-1.5a1,1,0,0,0-.38,0c-5.71,1.19-7.92,5.44-9.47,9.84A29.13,29.13,0,0,0,299.49,266a8.37,8.37,0,0,0,3.7,5.86,8.12,8.12,0,0,0,4.12,1.12h.19a12.36,12.36,0,0,0,2.58-.28c9.63-2.06,14.94-7.27,16.73-16.4A11.47,11.47,0,0,0,324.4,247.39Zm-14.56,24.35a11.61,11.61,0,0,1-2.36.27,7.09,7.09,0,0,1-3.73-1,7.51,7.51,0,0,1-3.24-5.23,28.26,28.26,0,0,1,1.42-15.24c.12-.35.25-.69.39-1-.13.33-.25.67-.37,1a28.35,28.35,0,0,0-1.43,15.23,7.76,7.76,0,0,0,3.25,5.23,8.24,8.24,0,0,0,6.09.7,29.78,29.78,0,0,0,4.72-1.41A27.78,27.78,0,0,1,309.84,271.74Zm7.21-2.62a19.22,19.22,0,0,0,2-1.32A16.47,16.47,0,0,1,317.05,269.12Zm7.72-13.19-.11.57c-1.73,7.91-6.52,12.46-15,14.28a7.15,7.15,0,0,1-5.29-.57,6.79,6.79,0,0,1-2.8-4.6,27.39,27.39,0,0,1,1.4-14.75c1.56-4.44,3.5-7.6,7.88-8.54h.07c.33,0,.65,0,1,0h.51a7.26,7.26,0,0,1,2.52.23,17,17,0,0,1,7.82,5.93A9.47,9.47,0,0,1,324.77,255.93Z" fill="#6b8fe1"/><path d="M271,366.46c-.54-3-2.65-5.76-6.29-8.18-6.17-4.08-12.85-7.9-18.74-11.27l-.67-.38c-3.73-2.14-7.61-4-11.95-6.08a11.83,11.83,0,0,0-3.06-.82c-.39-.07-.84-.15-1.25-.25a1.23,1.23,0,0,0-.38,0,1.2,1.2,0,0,0-.38,0l-1.3.28-.46.1c-2.27.48-4.62,1-6.49,2.78-4.87,4.65-6.75,10.05-5.75,16.53a47.92,47.92,0,0,0,6,16.86l2.14-.36a46.49,46.49,0,0,1-6.14-16.77A16.05,16.05,0,0,1,221.49,344c1.55-1.47,3.57-1.86,5.71-2.28l.31-.06,1.13-.25c.43.1.86.18,1.28.25a10.25,10.25,0,0,1,2.49.65c3.67,1.74,7.9,3.77,11.82,6l.66.36c5.53,3.16,12.4,7.1,18.62,11.2,3.15,2.09,5,4.42,5.44,6.91s-.44,4.93-2.54,7.61a44.05,44.05,0,0,1-7.09,7.38L261,383a47.08,47.08,0,0,0,7.1-7.44C270.51,372.41,271.48,369.36,271,366.46Zm-42.46-26-1.23.26-.3.06-.92.18.66-.14.46-.09,1.32-.29h0Zm16.24,7c-3.94-2.25-8.2-4.3-11.91-6.05a11.26,11.26,0,0,0-2.76-.73c-.43-.08-.88-.16-1.32-.26h0c.44.1.91.19,1.32.26h0a10.77,10.77,0,0,1,2.77.73c4.29,2,8.15,3.91,11.85,6l.58.33Z" fill="#6b8fe1"/><path d="M266.67,228.88c-4.52-4.19-10.47-4.82-15.15-4.89h-.29l-.08,0-.09,0-1.38.21-.26,0c-.92.15-1.87.29-2.8.49-9.65,2.07-15.65,7.83-18.33,17.61a58.46,58.46,0,0,0-2,19.86c.34,4.62,1.61,11.09,8.58,14a14.23,14.23,0,0,0,5.58,1.13,23,23,0,0,0,9.44-2.28c11.45-5.09,18.84-13.59,22-25.26C274.15,241.09,272.47,234.25,266.67,228.88Zm-17.08-3.67.25,0,1.33-.21-1.32.22-1.5.23Zm-3.6.67.86-.2.68-.13-.68.14-.86.19c-.84.21-1.66.45-2.44.71C244.33,226.32,245.15,226.08,246,225.88Zm-13.76,9.69c-.41.68-.79,1.39-1.15,2.14A20.77,20.77,0,0,1,232.23,235.57Zm1.31,38.92a13.84,13.84,0,0,0,1.44.73A11.43,11.43,0,0,1,233.54,274.49Zm36.26-25.15a35.84,35.84,0,0,1-7.45,14.35A37.86,37.86,0,0,1,249,273.35c-5.31,2.36-9.54,2.71-13.29,1.12-4.54-1.91-6.89-5.84-7.37-12.38a56.72,56.72,0,0,1,2-19.26c2.48-9,8-14.31,16.79-16.2,1-.2,2-.36,2.93-.5l1.35-.21h.15c4.55.08,9.73.65,13.71,4.33C270.45,235.09,272,241.34,269.8,249.34Z" fill="#6b8fe1"/><path d="M376.64,234.64c-1.18-.23-2.19-.39-3.19-.49a32.49,32.49,0,0,0-7-.05c-1.06.07-2.38.17-4,.21-5.17.12-7.55.11-9.86-1.2a9.53,9.53,0,0,1-2.69-2.37l-.74-.83c-2.31-2.52-4.63-4.59-10.3-8.33-3.14-2.08-6.46-4-9.67-5.9l-.4-.23c-2.36-1.38-4.66-2.73-6.93-4.12-3.16-2-6.34-4.26-8.23-7.8A22.1,22.1,0,0,1,311,194.1c-.65.46-1.3.9-1.95,1.33a23.9,23.9,0,0,0,2.73,9c2.13,4,5.55,6.44,8.94,8.54,2.47,1.53,5,3,7,4.15,3.12,1.82,6.66,3.88,10,6.07,5.4,3.57,7.65,5.57,9.92,8l.7.78a11.17,11.17,0,0,0,3.22,2.81c2.92,1.67,5.78,1.6,11,1.48,1.6,0,2.87-.13,4-.21h.13a31.17,31.17,0,0,1,6.55,0c1.06.12,2.07.27,3,.47a35.24,35.24,0,0,1,7.56,2.07c.19-.63.37-1.27.55-1.9A39.36,39.36,0,0,0,376.64,234.64Zm-.2,1-.6-.12.58.11c1.07.21,2.16.42,3.23.67C378.6,236,377.53,235.82,376.44,235.6Zm4.47-22.24-1.89-.2c-.53,0-4.25-.52-5.53-.73a25.09,25.09,0,0,1-10.12-4.22,12.56,12.56,0,0,1-3-3,12,12,0,0,1-1.94-5.93,8.5,8.5,0,0,1,.22-2.67,4.43,4.43,0,0,0,.08-2.2c-.72-3-4.16-4.22-8.15-5.63l-.25-.09-1.56-.56a108.34,108.34,0,0,1-12.16-5.53c-2.43-1.24-4.67-2.38-6.89-3.28-.55.5-1.09,1-1.64,1.45a74.76,74.76,0,0,1,7.52,3.51A110.84,110.84,0,0,0,348,189.9l1.7.61.15.05c3.42,1.21,6.38,2.26,6.85,4.23a2.71,2.71,0,0,1-.07,1.35,10.56,10.56,0,0,0-.28,3.21,14,14,0,0,0,2.26,6.85,14.59,14.59,0,0,0,3.46,3.51,26.85,26.85,0,0,0,11.09,4.61c1.35.22,5.06.69,5.64.75l1.94.22c2.7.28,4.76.51,8.93,1.22.07-.31.15-.62.23-.93h0c.07-.31.15-.63.23-.94C385.79,213.87,383.68,213.65,380.91,213.36Zm-23.25-17a9.78,9.78,0,0,0-.25,2.95,13.74,13.74,0,0,0,.2,1.68,12.15,12.15,0,0,1-.21-1.7,9.07,9.07,0,0,1,.24-2.9,1.82,1.82,0,0,0,.07-.25A1.74,1.74,0,0,1,357.66,196.36Zm.13-.77a3.75,3.75,0,0,0-.07-1,3.37,3.37,0,0,0-.1-.34,2,2,0,0,1,.11.35A3,3,0,0,1,357.79,195.59Zm-27.7,94.08a20,20,0,0,0,1.62,4.16l.19.42c2.7,5.89,3.94,8.83,4.76,10.81,1,2.38,1.67,3.95,3.47,7.57A70.78,70.78,0,0,0,346,322.91c.22-.27.44-.54.64-.82a74.73,74.73,0,0,1-5.57-9.87c-1.79-3.59-2.45-5.15-3.45-7.54-.82-1.95-2.06-4.91-4.77-10.81l-.2-.44a20.41,20.41,0,0,1-1.56-4c-.76-3.1-.69-6.52,2-14a61.88,61.88,0,0,1,3.33-7.73,41.13,41.13,0,0,0,3.3-8.27c1.14-3.93,1.69-7.34.69-11.16a20.28,20.28,0,0,0-2.5-5.51,35.48,35.48,0,0,0-8.24-9.15c-3.89-3.15-9.23-7.47-17.55-8.9-3.56-.62-8-1.38-12.22,1-1.75,1-3.88,2.67-6.42,8a31.2,31.2,0,0,0-2.71,8.77c-.31,1.6-.73,3.8-1.54,6.84-2.83,10.85-6.3,16.93-7.66,19-.54.83-1.95,2.95-2.15,3.24-2.22,3.35-3.69,5.46-4.83,7.09-.69,1-1.14,1.65-1.52,2.23a32.31,32.31,0,0,0-5.47,15.21c-.53,7.27,2.35,12.82,4.06,16.13l0,.05c4.44,8.53,10.81,13.34,16.43,17.57a63,63,0,0,0,9.33,5.9,92.82,92.82,0,0,1,11.29,7.05c7.63,5.45,11.1,8,13.42,12,3.15,5.43,4.18,12,3.07,19.46a25,25,0,0,1-3.43,10.23c-2.39,3.82-5.66,6.52-12.47,10.31a75.58,75.58,0,0,1-13.35,6,54.32,54.32,0,0,0-5.28,2l2,1.23c1.3-.55,2.63-1.05,4-1.49a77.62,77.62,0,0,0,13.68-6.16c7.15-4,10.6-6.86,13.2-11a26.57,26.57,0,0,0,3.68-11c1.18-7.88.07-14.83-3.3-20.64-2.61-4.47-6.57-7.31-13.76-12.47l-.21-.16a95.13,95.13,0,0,0-11.52-7.16,60.33,60.33,0,0,1-9-5.73c-5.46-4.12-11.66-8.8-15.89-16.93-1.64-3.14-4.37-8.41-3.89-15.19A30.58,30.58,0,0,1,274.83,282c.38-.58.86-1.27,1.5-2.18,1.06-1.53,2.52-3.63,4.85-7.13l.17-.25c.43-.65,1.53-2.3,2-3,1.75-2.73,5.11-8.89,7.89-19.58.77-2.93,1.19-5.08,1.53-6.81l0-.14a30.26,30.26,0,0,1,2.55-8.34c2.3-4.86,4.11-6.34,5.57-7.15,3.57-2,7.58-1.28,10.8-.72,7.77,1.33,12.86,5.45,16.58,8.46a33.57,33.57,0,0,1,7.81,8.68,18.11,18.11,0,0,1,2.3,5c.89,3.43.38,6.55-.68,10.2a38.62,38.62,0,0,1-3.17,7.93,63.62,63.62,0,0,0-3.46,8c-2.84,7.87-2.89,11.58-2,15a20.64,20.64,0,0,0,1.68,4.33l.19.42c2.65,5.77,3.86,8.65,4.74,10.75,1,2.43,1.68,4,3.51,7.65,2.95,5.91,4.8,9,6.16,10.72.23-.27.44-.53.65-.81a69.42,69.42,0,0,1-5.88-10.32c-1.81-3.64-2.47-5.18-3.47-7.59-.89-2.11-2.11-5-4.76-10.79l-.19-.41a21,21,0,0,1-1.63-4.16c-.79-3.28-.73-6.85,2-14.5a63.33,63.33,0,0,1,3.41-7.85,62.11,62.11,0,0,0-3.37,7.84C329.35,282.84,329.29,286.41,330.09,289.67Zm-3.71,74.48c-.1-.67-.22-1.33-.36-2C326.17,362.81,326.28,363.47,326.38,364.15Zm-3.32-9.75a25.38,25.38,0,0,1,2.2,4.93,26.84,26.84,0,0,0-2.19-4.89c-.15-.26-.31-.52-.47-.77A8.09,8.09,0,0,1,323.06,354.4Zm-50.44-42.48c4.34,8.32,10.62,13.07,16.17,17.26A61.44,61.44,0,0,0,298,335a93,93,0,0,1,11.38,7.09l.22.15c2.57,1.85,4.72,3.39,6.53,4.83-1.82-1.42-4-3-6.74-4.94A93,93,0,0,0,298,335a61.86,61.86,0,0,1-9.18-5.81c-5.54-4.17-11.82-8.9-16.15-17.24l0-.05c-.19-.36-.39-.75-.59-1.17ZM329,234.38l-.39-.32.43.34c.19.15.38.3.56.46A7,7,0,0,0,329,234.38Zm8,8.92a34.13,34.13,0,0,0-4.63-5.89,33.58,33.58,0,0,1,4.67,5.9,19,19,0,0,1,2.16,4.55c.08.23.15.47.22.7a15.15,15.15,0,0,1,.44,5,15.26,15.26,0,0,0-.45-5l-.21-.69A19.36,19.36,0,0,0,337,243.3ZM193.22,228.6c-1.66,1.19-4.16,2.91-7.59,5.28-1.1.76-1.92,1.31-2.53,1.74l-.15.1a19.94,19.94,0,0,0-2,1.41c-4.34,4-5.53,9.34-6.41,13.21a37.24,37.24,0,0,0-.8,5.46,30.8,30.8,0,0,1-1.33,7.09c-1.28,4.29-2.4,5.81-3.42,6.81-2.92,2.8-6.87,3.25-9,3.5l-.21,0c-4.66.54-11.47,2.67-25,6.91l-.29.09c-6.22,1.95-11.13,4.23-20.89,8.77a19.38,19.38,0,0,0-5.53,3.53c-4.43,4.15-5.31,9.33-5.83,12.41a22.62,22.62,0,0,0,.43,11.83A19.76,19.76,0,0,0,104.1,320a18,18,0,0,1-1.49-3.27,23.1,23.1,0,0,1-.43-11.87c.5-2.9,1.44-8.29,5.84-12.41a19.49,19.49,0,0,1,5.52-3.53l.22-.1c9.68-4.5,14.54-6.75,20.66-8.66l.15-.05c13.66-4.27,20.52-6.42,25.19-7l.22,0c2.12-.24,6.08-.69,9-3.49,1-1,2.12-2.47,3.43-6.81a30.85,30.85,0,0,0,1.32-7.11,35.89,35.89,0,0,1,.81-5.44c.8-3.65,2-9.16,6.39-13.19a16.07,16.07,0,0,1,2-1.42l2.69-1.86c3.41-2.34,5.88-4,7.53-5.23h-1.69c-1.66,1.17-3.85,2.68-6.45,4.46l-2.67,1.84a18,18,0,0,0-2.1,1.51c-4.62,4.26-5.87,9.94-6.7,13.7a39,39,0,0,0-.82,5.57,29.85,29.85,0,0,1-1.29,6.92c-1.24,4.14-2.26,5.52-3.17,6.4-2.65,2.55-6.37,3-8.36,3.2l-.23,0c-4.77.55-11.66,2.71-25.38,7l-.15,0c-6.2,1.93-11.08,4.2-20.8,8.71l-.2.1a20.27,20.27,0,0,0-5.81,3.71c-4.64,4.34-5.61,9.94-6.14,13a23.78,23.78,0,0,0,.48,12.28c2,6,6.4,9.56,13,14.93a62.72,62.72,0,0,0,6.33,4.55,22.7,22.7,0,0,1,4.76,3.78c2.38,2.45,3.28,4.15,6.6,10.46l1.52,2.88c9.34,17.76,11.34,20.19,14.68,22.62a43.2,43.2,0,0,0,9.31,5c1,0,2,0,3,0l-.81-.24a41.94,41.94,0,0,1-10.9-5.54c-3.2-2.32-5.14-4.7-14.38-22.27l-1.52-2.89c-3.38-6.41-4.28-8.13-6.76-10.67a23.74,23.74,0,0,0-3.62-3.09,23.71,23.71,0,0,1,3.67,3.1c2.5,2.58,3.41,4.31,6.78,10.73l1.48,2.81c9.23,17.52,11.28,20,14.39,22.28A42.58,42.58,0,0,0,160.09,381c.28.09.57.17.85.24,1.35,0,2.69,0,4,0a39.92,39.92,0,0,1-4.53-1.11,41.63,41.63,0,0,1-10.59-5.39c-3-2.15-5-4.6-14.09-21.93L134.27,350c-3.42-6.52-4.34-8.27-6.94-11a24.62,24.62,0,0,0-5.15-4.08,59.33,59.33,0,0,1-6.16-4.44c-6.57-5.32-10.53-8.54-12.39-14a21.91,21.91,0,0,1-.39-11.38c.5-3,1.35-8,5.53-11.88a18.21,18.21,0,0,1,5.26-3.35c9.73-4.52,14.62-6.79,20.77-8.72l.29-.09c13.5-4.22,20.27-6.34,24.83-6.87l.22,0c2.25-.25,6.44-.74,9.62-3.77,1.11-1.1,2.33-2.74,3.66-7.22a31,31,0,0,0,1.37-7.3,35.57,35.57,0,0,1,.79-5.32c.89-4,2-8.9,6.1-12.7a17.39,17.39,0,0,1,1.87-1.33l.16-.11,2.53-1.75c4.52-3.12,7.17-4.94,8.67-6.06Zm-71.6,107.16.6.38c-.22-.15-.45-.29-.68-.42-.48-.3-1-.62-1.44-.94Zm-6.26-4.51c1.09.9,2.23,1.77,3.39,2.6q-1.77-1.25-3.44-2.62c-1.19-1-2.27-1.84-3.3-2.71C113.05,329.38,114.16,330.28,115.36,331.25ZM213.22,227.8c-7.19,11.63-11.07,18.26-13.62,25.67-2.43,7-3.65,10.58-3.95,14.73-.08,1.14-.11,2.26-.14,3.33v.07a45.79,45.79,0,0,1-.29,4.79c.19-1.64.24-3.22.28-4.85,0-1.12.06-2.23.14-3.36.3-4.13,1.51-7.65,3.92-14.66l0-.07c2.55-7.4,6.43-14,13.6-25.65l-1.25.11c-7,11.32-10.79,17.88-13.34,25.25l0,.06c-2.44,7.09-3.66,10.65-4,14.89-.09,1.16-.12,2.27-.14,3.44-.1,3.59-.19,7-2,11.24a17.46,17.46,0,0,1-2.86,4.65c-2.2,2.36-5.44,4.09-9.64,5.13a24.68,24.68,0,0,1-9.07.47c-2-.16-4.49-.36-8-.38-9.38,0-17.3,1.28-22.88,3.82a23.47,23.47,0,0,0-7.85,5.65c-1.56,1.72-3.91,4.32-3.7,7.58s2.74,5.34,3.7,6.17l.09.09c1.24,1.07,5.23,8.23,11.83,20.08l.11.2a181.46,181.46,0,0,1,8.31,16.65l.11.24c2,4.49,2.91,6.54,6.52,9.69,1.91,1.66,5.78,4.14,13.5,9.09,3.47,2.23,6,3.79,7.57,4.72a39.54,39.54,0,0,1,5.38,3.62l2.6-.2c-1.89-2-3.33-2.85-6.9-5-2-1.2-4.33-2.64-7.53-4.69-7.62-4.9-11.45-7.35-13.25-8.92-3.31-2.88-4.12-4.72-6.08-9.16l-.07-.17c-1.51-3.39-3.79-8.53-8.35-16.71-7.68-13.85-10.85-19.52-12.34-20.81l-.1-.08c-.86-.75-2.87-2.49-3-4.87s1.79-4.65,3.21-6.22a21.27,21.27,0,0,1,7.17-5.15c5.34-2.43,13-3.7,22-3.63,3.19,0,5.54.19,7.44.35l.36,0a26.78,26.78,0,0,0,9.78-.5c4.63-1.15,8.22-3.08,10.68-5.75a18.74,18.74,0,0,0,3.21-5.18,29,29,0,0,0,2.18-11.94v-.07c0-1.07.06-2.17.14-3.3.29-4,1.5-7.52,3.9-14.49,2.57-7.45,6.52-14.14,13.91-26.07Zm-19.83,55.42a17.71,17.71,0,0,1-3,4.91c-2.31,2.51-5.73,4.34-10.15,5.43a25.67,25.67,0,0,1-9.43.47l-.36,0c-1.92-.15-4.3-.35-7.52-.35-9.19-.06-17,1.23-22.43,3.73a22.41,22.41,0,0,0-7.51,5.39,21.83,21.83,0,0,0-2.29,2.87,19,19,0,0,1,2.29-2.9,22.41,22.41,0,0,1,7.5-5.39c5.37-2.44,13-3.73,22.08-3.73h.35c3.44,0,5.9.22,7.92.38a25.45,25.45,0,0,0,9.39-.5c4.4-1.09,7.82-2.91,10.16-5.44a18.21,18.21,0,0,0,3-4.92,23.4,23.4,0,0,0,1.74-6.05A23.4,23.4,0,0,1,193.39,283.22Zm179.33-116c-1.34-3.89-6-9-20.76-11.35-.47.58-.94,1.15-1.42,1.72.27,0,.54.08.81.13,13.92,2.15,18.25,6.67,19.44,10.08a7.7,7.7,0,0,1-.18,5.47c-1.63,3.64-6.61,5.55-10.48,5.3-2.28-.16-3.48-1-5.67-2.5a55.1,55.1,0,0,0-5.84-3.6,50.19,50.19,0,0,0-8.32-3.39q-.36.39-.75.78h0l-.76.78a52.26,52.26,0,0,1,8.76,3.49,53,53,0,0,1,5.65,3.49c2.25,1.55,3.87,2.66,6.75,2.85,4.51.32,10.44-1.85,12.54-6.48A9.55,9.55,0,0,0,372.72,167.21Zm-24.66,6.08a42,42,0,0,0-4.43-2,40.07,40.07,0,0,1,4.48,2c.54.29,1.08.59,1.61.91C349.17,173.9,348.62,173.59,348.06,173.29Zm18.36,5a13.3,13.3,0,0,0,1.5-.78A10.15,10.15,0,0,1,366.42,178.33Z" fill="#6b8fe1"/><path d="M225.44,226.49a28.27,28.27,0,0,0-4.77,7.84c-4,9.65-7.31,19.81-10.12,28.57a44.66,44.66,0,0,0-1.57,8.79l0,.38c-.1.84-.19,1.71-.31,2.57-.23,1.75-.42,3.51-.61,5.3v.12c-.27,2.57-.55,5.23-1,7.81-.75,4.33-3.44,7.93-7.77,10.41-3.13,1.8-6.41,3.49-9.58,5.13-2.23,1.15-4.6,2.38-6.89,3.62l-1.55.84a61,61,0,0,0-8.34,5.09c-5.27,4-6,9.23-2.11,15.88.58,1,1.21,2,1.82,3l.14.23a44.36,44.36,0,0,1,3.79,6.87,32.76,32.76,0,0,1,2,9.85c.58,6.51,3.46,12.29,9.08,18.21.43.45.86.91,1.3,1.36l.48.5A64.36,64.36,0,0,1,198,379.1l1.12-.12a63.61,63.61,0,0,0-8.91-10.8l-.48-.49-1.29-1.36c-5.47-5.75-8.27-11.36-8.83-17.65a34,34,0,0,0-2.1-10.12,46.12,46.12,0,0,0-3.87-7l-.14-.22c-.61-1-1.23-1.95-1.8-2.94a19.13,19.13,0,0,1-1.63-3.52,20,20,0,0,0,1.63,3.45c.6,1,1.26,2.08,1.89,3.09l0,.08a45,45,0,0,1,3.87,7,34.19,34.19,0,0,1,2.13,10.11c.54,6.26,3.35,11.87,8.81,17.65l1.72,1.79c3.23,3.37,6.55,6.84,9,10.92l1.11-.12c-2.53-4.32-6-7.93-9.35-11.45-.58-.59-1.15-1.19-1.71-1.78-5.31-5.61-8-11-8.56-17.09a34.93,34.93,0,0,0-2.2-10.39,46.2,46.2,0,0,0-3.94-7.16l-.05-.07c-.63-1-1.28-2-1.87-3.06-3.35-5.77-2.84-10.05,1.6-13.46a59.58,59.58,0,0,1,8.07-4.91l1.56-.84c2.27-1.24,4.63-2.46,6.84-3.61l.29-.14c3.1-1.61,6.3-3.27,9.38-5,4.86-2.78,7.87-6.84,8.72-11.74.43-2.47.7-5,1-7.44l.08-.71c.17-1.7.36-3.45.59-5.17.12-.91.23-1.85.35-3a43.77,43.77,0,0,1,1.5-8.43c2.94-9.16,6.15-18.91,10.06-28.42a25.74,25.74,0,0,1,6-8.93Zm-16.36,53.38-.08.71c0-.14,0-.28,0-.42V280c0-.51.11-1,.17-1.5C209.17,279,209.12,279.43,209.08,279.87Zm.59-5.19-.15,1.19c0-.37.08-.74.13-1.11.07-.55.14-1.11.21-1.65C209.8,273.66,209.74,274.18,209.67,274.68Zm103,85.21c-4.23-4.77-9.54-8.4-14.68-11.91-1.21-.83-2.64-1.8-4-2.79-8.08-5.76-17.18-10-26-14.07l-2.11-1c-6.75-3.15-11-7.77-12.91-14.14-1.08-3.55-1.3-7.38-.7-12.43.26-2.18.61-4.35,1-6.46,1.07-5.38,3.87-10.54,8.81-16.23.59-.69,1.19-1.36,1.78-2l.86-1c4.23-4.8,8.59-9.76,11.7-15.51a53.18,53.18,0,0,0,6.17-18.91,31,31,0,0,0-2.1-16.16c-2.35-5.52-7.11-9-14.19-10.5q-1.95.69-3.9,1.32c.35,0,.69.05,1,.09,7.7,1,12.78,4.28,15.1,9.74a29.16,29.16,0,0,1,2,15.21,51.26,51.26,0,0,1-6,18.27c-3.1,5.74-7.61,10.82-11.59,15.32l-2.51,2.86c-5.17,6-8.1,11.4-9.24,17.1-.44,2.27-.79,4.49-1,6.6a46.66,46.66,0,0,0-.32,5.19,26.83,26.83,0,0,0,1.12,8c2.12,6.92,6.69,11.94,14,15.34l2.11,1c8.71,4.05,17.72,8.23,25.65,13.85,1,.75,2.12,1.48,3.16,2.19l.92.63c5,3.44,10.24,7,14.3,11.58,4.85,5.47,6.47,10.95,4.95,16.77a15.49,15.49,0,0,1-9.5,10.66l-1.66.72a110.58,110.58,0,0,1-14,5.23,68.28,68.28,0,0,0-8.82,3.07l1,.65a67.12,67.12,0,0,1,8.12-2.79,111.3,111.3,0,0,0,14.09-5.28l1.67-.72A18.82,18.82,0,0,0,312.4,386a17.67,17.67,0,0,1-5.41,3.45l-1.35.58a111.8,111.8,0,0,1-14.41,5.42,67.83,67.83,0,0,0-8.06,2.76l1,.65a65.47,65.47,0,0,1,7.35-2.48,114.72,114.72,0,0,0,14.55-5.47l1.34-.58a17.71,17.71,0,0,0,10.66-12C319.75,371.9,318,365.86,312.7,359.89Zm-61.58-55.35c0-.37.07-.74.11-1.12.24-2.08.59-4.28,1-6.52,1.1-5.54,4-10.84,9-16.67.84-.94,1.68-1.9,2.51-2.86,4-4.53,8.56-9.66,11.71-15.49a52.2,52.2,0,0,0,6.07-18.59,30.16,30.16,0,0,0-1-12.67,29.8,29.8,0,0,1,1,12.73,52.26,52.26,0,0,1-6.07,18.59c-3.06,5.66-7.39,10.58-11.57,15.34l-.87,1c-.59.68-1.19,1.35-1.78,2-5.06,5.82-7.92,11.11-9,16.66-.43,2.14-.78,4.33-1,6.53Zm65.05,76.19a15.9,15.9,0,0,0,.72-2A14.09,14.09,0,0,1,316.17,380.73Z" fill="#6b8fe1"/></svg>
